<?xml version="1.0" encoding="utf-8"?>
<!-- Generator: Adobe Illustrator 22.0.0, SVG Export Plug-In . SVG Version: 6.00 Build 0)  -->
<svg version="1.1" id="Livello_1" xmlns="http://www.w3.org/2000/svg" xmlns:xlink="http://www.w3.org/1999/xlink" x="0px" y="0px"
	 viewBox="0 0 378.2 378.2" style="enable-background:new 0 0 378.2 378.2;" xml:space="preserve">
<style type="text/css">
	.st0{fill:#8CCDF2;}
	.st1{fill:#FFFFFF;}
	.st2{fill:none;stroke:#FFFFFF;stroke-width:5;stroke-miterlimit:10;}
</style>
<circle class="st0" cx="189.1" cy="189.1" r="190.1"/>
<g>
	<path class="st1" d="M189.1,111.6l44.6,95.1c7.2,15.4,6.2,33.3-2.7,47.9c-8.8,14.4-23.4,22.9-40,23.5c-0.6,0-1.2,0-1.9,0
		c-0.6,0-1.2,0-1.9,0c-16.6-0.6-31.2-9.1-40-23.5c-8.9-14.6-9.9-32.5-2.7-47.9L189.1,111.6 M189.1,88.1l-53.6,114.4
		c-18.1,38.7,8.7,84.1,51.4,85.6c0.7,0,1.5,0,2.2,0c0.7,0,1.5,0,2.2,0c42.7-1.4,69.5-46.9,51.4-85.6L189.1,88.1L189.1,88.1z"/>
</g>
</svg>
