<?xml version="1.0" encoding="utf-8"?>
<!-- Generator: Adobe Illustrator 22.0.0, SVG Export Plug-In . SVG Version: 6.00 Build 0)  -->
<svg version="1.1" xmlns="http://www.w3.org/2000/svg" xmlns:xlink="http://www.w3.org/1999/xlink" x="0px" y="0px"
	 viewBox="0 0 40 40" style="enable-background:new 0 0 40 40;" xml:space="preserve">
<style type="text/css">
	.st0{display:none;}
	.st1{display:inline;}
	.st2{fill:#737373;}
	.st3{fill:#6C757D;}
</style>
<g id="Livello_1" class="st0">
	<g class="st1">
		<g>
			<path class="st2" d="M18.1,18.9c0.7,0,1.5,0,2.3,0c0.3,0.9,0.6,1.8,0.9,2.7c0.3,0.9,0.6,1.8,0.9,2.7c0.8-1.2,1.5-2.4,2.2-3.6
				c0,0,0,0,0,0c0,0,0,0,0,0c-0.6,0-1.2,0-1.8,0c0-0.6,0-1.1,0-1.7c1.7,0,3.4,0,5.1,0c-0.1,0.1-0.1,0.3-0.2,0.4
				c-0.1,0.2-0.2,0.4-0.3,0.5C27,20,27,20.2,26.8,20.4c-0.3,0.4-0.5,0.8-0.7,1.2c-0.2,0.3-0.4,0.7-0.6,1c0,0.1-0.1,0.1-0.1,0.2
				c0.7,0,1.4,0,2.1,0c0,0.1,0,0.2,0,0.3c0,0.3,0,0.5,0,0.8c0,0.1,0,0.1,0,0.2c0,0.1-0.1,0.1,0,0.2c-0.1,0.1,0,0.1,0,0.2
				c-2.5,0-4.9,0-7.4,0C20,24.3,20,24,19.9,23.8c-0.2,0.1-0.5,0-0.7,0c-0.2,0-0.5,0-0.7,0c-0.1,0.2-0.1,0.4-0.2,0.7
				c-0.7,0-1.4,0-2.2,0c0-0.2,0.1-0.3,0.1-0.5c0-0.1,0.1-0.2,0.1-0.3c0.1-0.1,0-0.3,0.1-0.3c0-0.2,0.1-0.3,0.2-0.5
				c0-0.2,0.1-0.3,0.2-0.5c0.1-0.1,0.1-0.3,0.1-0.4c0.1-0.1,0.1-0.3,0.2-0.4c0-0.1,0.1-0.3,0.1-0.4c0.1-0.3,0.2-0.7,0.4-1
				c0-0.1,0-0.2,0.1-0.3c0.1-0.2,0.1-0.5,0.3-0.7C18.1,19,18.1,19,18.1,18.9z M19.2,21c-0.1,0.1-0.1,0.2-0.1,0.3
				c0,0.2-0.1,0.3-0.1,0.5c0,0.2-0.1,0.4-0.1,0.6c0,0.1,0,0.1,0.1,0.1c0.2,0,0.4,0,0.7,0C19.5,22,19.4,21.5,19.2,21z"/>
			<path class="st2" d="M8.5,24.5c-1,0-2,0-3,0c-0.2,0-0.2,0-0.2-0.2c0-0.5,0-1.1,0-1.6c0-1.9,0-3.7,0-5.6c0-0.1,0-0.2,0.1-0.3
				c0-0.2,0.1-0.2,0.1-0.4c0,0,0-0.1,0.1-0.1c0,0,0.1-0.1,0.1-0.1C5.8,16,6,15.9,6.2,15.8c0.1,0,0.3-0.1,0.4-0.2c0.2,0,0.4,0,0.6,0
				c0.3,0,0.5,0.2,0.7,0.3c0,0,0,0,0.1,0c0.2,0.2,0.4,0.5,0.5,0.8c0,0.1,0,0.2,0,0.2c0,0.1,0.1,0.1,0,0.2c0.1,0.2,0,0.4,0,0.6
				c0,0.2,0,0.4,0,0.6c0,0.2,0,0.4,0,0.6c0,0.2,0,0.4,0,0.6c0,0.2,0,0.4,0,0.6c0,0.2,0,0.4,0,0.6c0,0.2,0,0.4,0,0.6
				c0,0.9,0,1.8,0,2.7C8.5,24.3,8.5,24.4,8.5,24.5z"/>
			<path class="st2" d="M12,24.5c-1,0-2,0-3,0c0,0-0.1,0-0.1,0c-0.1,0-0.1,0-0.1-0.1c0,0,0-0.1,0-0.1c0-2,0-4,0-6c0-0.1,0-0.2,0-0.3
				c0.1-0.1,0-0.3,0.1-0.4c0-0.1,0.1-0.2,0.2-0.3c0.1-0.2,0.3-0.3,0.5-0.5c0.1-0.1,0.2-0.1,0.3-0.1c0.5-0.1,0.9-0.1,1.3,0.2
				c0.2,0.2,0.5,0.4,0.6,0.8c0,0.1,0.1,0.1,0.1,0.2c0,0.1,0,0.3,0,0.4c0,0.1,0,0.2,0,0.4c0,0.1,0,0.2,0,0.2c0,0.1,0,0.2,0,0.2
				c0,1.7,0,3.4,0,5.1C12.1,24.3,12.1,24.4,12,24.5z"/>
			<path class="st2" d="M30.9,22.7c0.7,0,1.4,0,2.1,0c0,0.6,0,1.2,0,1.7c-1.8,0-3.6,0-5.4,0c0.8-1.3,1.6-2.6,2.3-3.8c0,0,0,0,0,0
				c0,0,0,0,0,0c-0.6,0-1.2,0-1.8,0c0-0.6,0-1.1,0-1.7c1.7,0,3.4,0,5.1,0C32.4,20.2,31.7,21.5,30.9,22.7z"/>
			<path class="st2" d="M15.7,24.5c-0.1,0-0.2,0-0.2,0c-0.9,0-1.7,0-2.6,0c-0.1,0-0.2-0.1-0.3,0c0,0-0.1,0-0.1-0.1c0,0,0-0.1,0-0.2
				c0-1.6,0-3.2,0-4.9c0-0.1,0-0.2,0-0.3c0-0.2,0.1-0.3,0.2-0.4c0.1-0.2,0.2-0.4,0.4-0.5c0.2-0.1,0.3-0.3,0.5-0.3c0,0,0.1,0,0.1,0
				c0.1,0,0.2-0.1,0.4,0c0.2,0,0.4,0,0.6,0.1c0.2,0,0.4,0.2,0.5,0.3c0.1,0.1,0.2,0.2,0.3,0.4c0,0.1,0.2,0.1,0.1,0.2
				c0.1,0.1,0.1,0.3,0.1,0.4c0.1,0.2,0,0.5,0,0.7C15.7,21.4,15.7,23,15.7,24.5z"/>
			<path class="st2" d="M15.2,18c-0.1,0-0.2-0.2-0.3-0.2c-0.1,0-0.2-0.1-0.3-0.1c-0.1,0-0.3-0.1-0.4,0c-0.1,0-0.3-0.1-0.4,0
				c-0.1,0-0.2,0.1-0.3,0.1c-0.1,0-0.2,0.1-0.3,0.1c-0.1,0.1-0.2,0.2-0.3,0.2c-0.1,0.1-0.2,0.2-0.3,0.3c-0.1,0.1-0.1,0.2-0.2,0.3
				c0-0.1,0-0.3,0-0.4c0-0.3-0.1-0.5-0.2-0.7c-0.1-0.2-0.2-0.4-0.3-0.5c-0.2-0.3-0.5-0.5-0.8-0.6c-0.1,0-0.2,0-0.4-0.1
				c-0.1,0-0.2,0-0.3,0c-0.4,0-0.8,0.2-1.1,0.5c-0.2,0.2-0.3,0.3-0.5,0.5c0,0,0,0.1,0,0.1c0-0.1,0-0.2,0-0.2c0-0.3-0.1-0.6-0.1-0.8
				c0-0.2-0.1-0.3-0.2-0.4C8.3,16.1,8.3,16,8.3,16c-0.2-0.2-0.4-0.3-0.6-0.4c-0.1-0.1-0.2-0.1-0.4-0.1c-0.2,0-0.3-0.1-0.5,0
				c-0.2,0-0.4,0.1-0.6,0.1c-0.2,0.1-0.4,0.2-0.6,0.3c0.2-0.5,0.4-1,0.6-1.5c2.5,0,5,0,7.5,0c0,0,0,0.1,0.1,0.1
				c0.1,0.3,0.3,0.7,0.4,1c0.1,0.2,0.2,0.4,0.3,0.7c0.1,0.2,0.2,0.4,0.3,0.6c0,0.1,0.1,0.2,0.1,0.2c0.1,0.2,0.2,0.5,0.3,0.7
				C15.2,17.8,15.2,17.9,15.2,18z"/>
			<path class="st2" d="M37.2,19c0,0.5,0,1,0,1.4c0,0,0,0,0,0c0,0,0,0,0,0c-0.5,0-1.1,0-1.6,0c0,0,0,0,0,0c0,0.2,0,0.4,0,0.6
				c0.5,0,1,0,1.5,0c0,0.5,0,0.9,0,1.4c-0.2-0.1-0.5,0-0.7,0c-0.2,0-0.5,0-0.7,0c-0.1,0-0.2,0-0.2,0.2c0,0.2,0,0.3,0,0.5
				c0.6,0,1.2,0,1.8,0c0,0.1,0.1,0.1,0,0.2c0,0.1,0,0.2,0,0.2c0.1,0.1,0,0.1,0,0.2c0,0.1,0,0.1,0,0.2c0,0.1,0,0.2,0,0.2
				c0,0.1,0,0.1,0,0.2c0,0.1,0,0.1,0,0.2c-1.3,0-2.5,0-3.8,0c0-1.8,0-3.7,0-5.5C34.7,19,36,19,37.2,19z"/>
			<path class="st2" d="M1.6,25.6c0-0.1,0-0.1,0-0.1c0.1-0.1,0.1-0.3,0.2-0.4C1.9,24.9,2,24.8,2,24.6c0.1-0.1,0.1-0.3,0.2-0.4
				c0-0.1,0.1-0.2,0.1-0.4c0.2-0.2,0.2-0.5,0.3-0.7c0.1-0.3,0.2-0.5,0.3-0.8c0.1-0.2,0.2-0.4,0.3-0.7c0.1-0.3,0.3-0.6,0.4-1
				c0.1-0.2,0.1-0.4,0.2-0.5c0.2-0.5,0.4-1,0.6-1.5c0-0.2,0.1-0.3,0.2-0.4c0-0.1,0.1-0.3,0.2-0.4C4.9,17.7,5,17.5,5,17.3
				c0,0.1,0,0.2,0,0.2c0,2.3,0,4.6,0,6.8c0,0,0,0.1,0,0.1c0,0.2,0.1,0.2,0.2,0.2c0,0,0.1,0,0.1,0c1.3,0,2.6,0,4,0c0.1,0,0.2,0,0.2,0
				c0,0.3,0,0.6,0,0.8C7,25.6,4.3,25.6,1.6,25.6z"/>
			<path class="st2" d="M38,24.5c0-1.8,0-3.7,0-5.5c0.7,0,1.3,0,2,0c0,0.2,0,4.8,0,5.5C39.3,24.5,38.7,24.5,38,24.5z"/>
			<path class="st2" d="M5.6,14.4c0.1,0,0.2,0,0.4,0c0,0,0,0.1-0.1,0.1c-0.1,0.3-0.2,0.5-0.4,0.8c-0.1,0.3-0.3,0.6-0.4,0.9
				c-0.1,0.2-0.1,0.3-0.2,0.5c0,0.1-0.1,0.2-0.1,0.2c-0.1,0.2-0.2,0.5-0.3,0.7c-0.1,0.1-0.1,0.3-0.2,0.5c0,0.1-0.1,0.2-0.1,0.3
				c-0.1,0.3-0.2,0.5-0.3,0.8c-0.1,0.3-0.2,0.6-0.4,0.9c-0.1,0.2-0.2,0.4-0.2,0.6c0,0.1-0.1,0.2-0.1,0.3C3,21,2.8,21.2,2.7,21.5
				c-0.1,0.3-0.3,0.7-0.4,1c0,0.1-0.1,0.1-0.1,0.2c-0.1,0.1-0.1,0.2-0.2,0.4c0,0.1-0.2,0.2-0.1,0.4c0,0,0,0.1-0.1,0.1
				c-0.1,0.3-0.3,0.6-0.4,0.9C1.3,24.7,1.2,25,1,25.3c0,0.1-0.1,0.2-0.1,0.3c-0.2,0-0.3,0-0.5,0c-0.1,0-0.3,0-0.4,0
				c0-0.1,0-0.1,0-0.1c0.6-1.3,1.3-2.5,1.9-3.8c0.1-0.2,0.2-0.3,0.2-0.5c0.1-0.1,0.2-0.3,0.3-0.5c0.1-0.3,0.3-0.6,0.4-0.9
				c0.1-0.2,0.2-0.4,0.3-0.6c0.1-0.1,0.1-0.3,0.2-0.4c0-0.1,0.1-0.2,0.1-0.3c0.2-0.3,0.2-0.6,0.4-0.8c0,0,0-0.1,0-0.1
				c0-0.2,0.2-0.2,0.2-0.4c0.2-0.2,0.2-0.4,0.3-0.6c0.1-0.2,0.2-0.4,0.3-0.6C5,15.5,5.3,15,5.6,14.4C5.5,14.4,5.6,14.4,5.6,14.4z"/>
			<path class="st2" d="M10.4,25.6c0-0.3,0-0.6-0.1-0.8c0.1,0,0.1,0,0.2,0c2.4,0,4.8,0,7.3,0c0,0,0.1,0,0.1,0c0.1,0,0.1,0,0.1,0.1
				c0.1,0.3,0.2,0.5,0.3,0.8C15.7,25.6,13.1,25.6,10.4,25.6z"/>
			<path class="st2" d="M31.7,18.5c-0.3,0.1-0.6-0.1-0.9-0.3c-0.2-0.2-0.3-0.4-0.4-0.7c-0.1-0.2,0-0.4,0-0.6c0-0.1,0.1-0.2,0.2-0.3
				c0.1-0.2,0.3-0.3,0.5-0.4c0,0,0.1,0,0.2-0.1c0.1,0,0.2-0.1,0.3-0.1c0.1,0,0.3,0,0.4,0c0.3,0.1,0.5,0.1,0.7,0.3
				c0.2,0.2,0.3,0.4,0.4,0.7c0,0.1,0,0.2,0,0.3c0,0.1-0.1,0.3-0.1,0.4c-0.1,0.2-0.2,0.3-0.4,0.4c-0.2,0.1-0.4,0.2-0.6,0.3
				C32,18.5,31.8,18.5,31.7,18.5z M32.2,17.3c0-0.3-0.2-0.5-0.4-0.5c-0.2,0-0.4,0.2-0.4,0.5c0,0.1,0,0.2,0.1,0.3
				c0.1,0.1,0.2,0.1,0.3,0.1c0.1,0,0.2-0.1,0.3-0.1C32.1,17.5,32.2,17.4,32.2,17.3z"/>
			<path class="st2" d="M22.6,17.6c0.2,0.3,0.5,0.6,0.7,1c-0.1-0.1-0.1,0-0.2,0c-0.1,0-0.1,0-0.2,0c-0.1,0-0.1,0-0.2,0s-0.1,0-0.2,0
				c-0.2,0-0.2-0.1-0.3-0.2C22,18.2,22,18,21.8,17.8c0,0.3,0,0.5,0,0.8c-0.3,0-0.6,0-0.8,0c0-0.8,0-1.6,0-2.5c0.4,0,0.7,0,1.1,0
				c0.2,0,0.4,0,0.6,0.1c0.1,0,0.1,0.1,0.2,0.1c0.3,0.4,0.3,0.8,0.1,1.1C22.8,17.5,22.7,17.5,22.6,17.6z M21.8,16.8
				c0,0.1,0,0.2,0,0.4c0.1,0,0.2,0,0.3,0c0.1-0.1,0.1-0.1,0-0.4C22,16.8,21.9,16.8,21.8,16.8z"/>
			<path class="st2" d="M19.7,17.7c-0.1,0-0.2,0-0.3,0c-0.1,0-0.1,0-0.1-0.1c0-0.1,0-0.3,0-0.4c0.5,0,0.9,0,1.4,0c0,0.1,0,0.3,0,0.4
				c0,0,0,0,0,0.1c-0.1,0.1-0.1,0.3-0.2,0.4c-0.1,0.2-0.3,0.3-0.5,0.4c-0.2,0.1-0.3,0.2-0.6,0.1c0,0-0.1,0-0.1,0
				c-0.3,0-0.5,0-0.7-0.1c-0.2-0.1-0.3-0.2-0.5-0.4c-0.2-0.3-0.2-0.6-0.2-0.9c0.1-0.3,0.2-0.6,0.5-0.7c0.2-0.1,0.4-0.2,0.6-0.3
				c0.1,0,0.2,0,0.3,0c0.3,0,0.6,0.1,0.9,0.3c0.1,0.1,0.2,0.2,0.3,0.4c-0.3,0.1-0.5,0.2-0.8,0.3c-0.1-0.1-0.1-0.1-0.2-0.2
				c0-0.1-0.1-0.1-0.2-0.1c-0.1,0-0.2,0-0.2,0.1C19.1,16.9,19,17,19,17.1c0,0.1,0,0.2,0,0.3c0,0.2,0.2,0.3,0.3,0.4c0,0,0.1,0,0.1,0
				C19.5,17.9,19.6,17.8,19.7,17.7C19.7,17.7,19.7,17.7,19.7,17.7z"/>
			<path class="st2" d="M24.2,17.7c0.1,0.1,0.1,0.1,0.2,0.2c0.1-0.1,0.3,0,0.3-0.2c0-0.5,0-1.1,0-1.6c0.3,0,0.6,0,0.9,0
				c0,0.3,0,0.6,0,0.9c0,0.2,0,0.4,0,0.7c0,0.2-0.1,0.4-0.2,0.6c-0.1,0.2-0.3,0.3-0.5,0.3c-0.2,0.1-0.4,0.1-0.6,0
				c-0.3,0-0.5-0.1-0.7-0.3c-0.1-0.1-0.2-0.3-0.2-0.5c0-0.5,0-1.1,0-1.6c0,0,0,0,0,0c0.3,0,0.6,0,0.9,0
				C24.2,16.6,24.2,17.2,24.2,17.7z"/>
			<path class="st2" d="M25.9,16.1c0.5,0,0.9,0,1.4,0c0.2,0,0.4,0.1,0.5,0.3c0.1,0.1,0.1,0.2,0.2,0.3c0.1,0.3,0,0.6-0.1,0.8
				c-0.1,0.2-0.3,0.2-0.5,0.3c-0.2,0-0.3,0-0.5,0c0,0.1,0,0.2,0,0.4c0,0.1,0,0.2,0,0.4c-0.3,0-0.5,0-0.7,0c-0.1,0-0.2,0-0.2-0.2
				c0-0.7,0-1.3,0-2C25.9,16.3,25.9,16.2,25.9,16.1z M26.8,16.8c0,0.1,0,0.2,0,0.4c0.4,0,0.4-0.1,0.3-0.4
				C27,16.8,26.9,16.8,26.8,16.8z"/>
			<path class="st2" d="M28.2,16.1c0.5,0,0.9,0,1.4,0c0.1,0,0.3,0.1,0.4,0.2c0.1,0.1,0.3,0.3,0.3,0.5c0.1,0.2,0,0.3,0,0.5
				c-0.1,0.3-0.3,0.5-0.7,0.5c-0.1,0-0.3,0-0.4,0c0,0-0.1,0-0.1,0c0,0.3,0,0.5,0,0.8c-0.3,0-0.6,0-0.9,0
				C28.2,17.7,28.2,16.9,28.2,16.1z M29.1,17.1C29.1,17.1,29.1,17.1,29.1,17.1c0.2,0,0.3,0,0.4-0.1c0-0.1,0-0.2-0.1-0.2
				c-0.1,0-0.2,0-0.3,0C29.1,16.9,29.1,17,29.1,17.1z"/>
			<path class="st2" d="M14,14.4c0.1,0,0.2,0,0.4,0c0.1,0.2,0.2,0.5,0.3,0.7c0,0.1,0.1,0.2,0.1,0.3c0.1,0.1,0.1,0.2,0.2,0.3
				c0,0.1,0.1,0.2,0.1,0.2c0,0.1,0.1,0.1,0.1,0.2c0,0.1,0.1,0.1,0.1,0.2c0,0.1,0.1,0.1,0.1,0.2c0.1,0.2,0.2,0.4,0.3,0.5
				c0.1,0.2,0.2,0.4,0.3,0.5c0.1,0.2,0.2,0.5,0.3,0.7c0.1,0.2,0.2,0.5,0.4,0.7c0.1,0.2,0.2,0.5,0.3,0.7c0.1,0.2,0.2,0.5,0.3,0.7
				c0,0.1,0,0.1,0,0.2c-0.1,0.1-0.1,0.3-0.1,0.5c0,0.1-0.1,0.1-0.1,0.2c-0.1-0.2-0.2-0.4-0.3-0.6c-0.1-0.3-0.2-0.5-0.4-0.8
				c-0.1-0.2-0.2-0.4-0.3-0.6c-0.1-0.2-0.2-0.4-0.3-0.6c0-0.1-0.1-0.2-0.1-0.2c-0.1-0.2-0.2-0.4-0.3-0.7c-0.1-0.3-0.2-0.6-0.4-0.9
				c-0.2-0.4-0.4-0.8-0.6-1.3C14.4,15.2,14.2,14.8,14,14.4z"/>
			<path class="st2" d="M15.9,24.5c0-1.6,0-3.1,0-4.7c0,0,0,0,0,0c0.1,0.2,0.1,0.4,0.2,0.5c0,0,0,0,0,0c0.2,0.2,0.2,0.5,0.3,0.7
				c0.1,0.3,0.2,0.5,0.3,0.8c0,0.1,0,0.1,0,0.2c-0.2,0.5-0.4,1.1-0.5,1.6C16.2,23.9,16.1,24.2,15.9,24.5
				C15.9,24.5,15.9,24.5,15.9,24.5z"/>
			<path class="st2" d="M20,25.6c-0.3,0-0.6,0-0.8,0c-0.1,0-0.1,0-0.1-0.1c-0.1-0.2-0.2-0.4-0.3-0.7c0-0.1-0.1-0.1-0.1-0.2
				c-0.1-0.1-0.1-0.2,0-0.4c0-0.1,0-0.2,0.1-0.3c0.2,0,0.3,0,0.5,0c0.1,0.1,0.2,0.2,0.2,0.4c0,0.1,0.1,0.3,0.2,0.4
				c0.1,0.1,0.1,0.2,0.2,0.4C19.8,25.3,19.9,25.4,20,25.6z"/>
		</g>
	</g>
</g>
<g id="Livello_2" class="st0">
	<g class="st1">
		<g>
			<path class="st2" d="M7.6,16.6c0.5-0.1,1,0.2,1.5,0.3c0.5,0.2,0.9,0.7,1.2,1.1c0.5,0.7,0.5,1.4,0.3,2.2c0,0.2-0.1,0.3-0.3,0.5
				C10,21,9.8,21.2,9.5,21.5C9.3,21.8,9,21.8,8.7,22c-0.2,0.1-0.2,0-0.2-0.1c0-0.1,0-0.3,0-0.4c0-0.1,0.1-0.3,0.2-0.3
				C9,21,9.2,20.6,9.5,20.4c0.1-0.1,0.3-0.4,0.3-0.5c0-0.4,0-0.7-0.1-1.1c-0.1-0.4-0.4-0.5-0.6-0.8c-0.2-0.3-0.5-0.3-0.8-0.4
				c-0.5-0.2-1-0.1-1.5,0c-0.6,0.2-1.4,0.9-1.3,1.6c0,0.5,0,1,0.4,1.4c0.2,0.2,0.4,0.3,0.6,0.5c0.1,0.1,0.3,0.1,0.3,0.2
				c0,0.2,0,0.4,0,0.7c0,0-0.1,0.1-0.2,0.1c-0.2-0.1-0.4-0.2-0.6-0.3c-0.6-0.3-1-0.7-1.3-1.3c-0.4-0.7-0.3-1.8,0.2-2.5
				C5.6,17,6.5,16.7,7.6,16.6z"/>
			<path class="st2" d="M11.2,19.8c0-0.2,0-0.4,0-0.7c0-0.1,0-0.2,0-0.3c0.1-0.5,0.4-0.6,0.7-0.3c0.1,0.1,0.1,0.1,0.2,0
				c0.3-0.2,0.8-0.2,1.1,0c0.2,0.1,0.3,0.1,0.4,0c0.3-0.3,0.7-0.1,1-0.2c0.3,0.3,0.6,0.5,0.6,0.9c0,0.4,0,0.9,0,1.3
				c0,0.1-0.1,0.2-0.1,0.3c-0.1,0.1-0.2,0.3-0.4,0.2c-0.2-0.1-0.4-0.2-0.4-0.5c0-0.3,0-0.6,0-0.9c0-0.1,0-0.2,0-0.3
				c0-0.2-0.1-0.3-0.3-0.3c-0.2,0-0.3,0.1-0.3,0.3c0,0.4,0,0.7,0,1.1c0,0.2-0.1,0.3-0.2,0.4c-0.2,0.2-0.4,0.2-0.5,0.1
				c-0.1,0-0.2-0.3-0.2-0.4c0-0.3,0-0.5,0-0.8c0-0.2,0-0.3,0-0.5c0-0.2-0.1-0.3-0.3-0.3c-0.2,0-0.3,0.1-0.3,0.3c0,0.4,0,0.7,0,1.1
				c0,0.3-0.2,0.4-0.3,0.5c-0.2,0.2-0.6-0.1-0.6-0.4C11.2,20.5,11.2,20.1,11.2,19.8z"/>
			<path class="st2" d="M-0.1,19.4c0-0.4,0-0.9,0-1.3c0-0.3,0.1-0.4,0.4-0.4c0.4,0,0.8,0,1.2,0c0.4,0,0.9,0.4,0.9,0.8
				c0,0,0,0.1,0,0.1c0,0.3-0.2,0.4-0.4,0.6c0.2,0.2,0.5,0.2,0.6,0.5c0.2,0.5,0,1-0.4,1.3c-0.2,0.1-0.5,0.2-0.8,0.2
				c-0.3,0-0.6,0-0.9,0c-0.3,0-0.6-0.2-0.6-0.5C-0.1,20.2-0.1,19.8-0.1,19.4z M1.2,20.4C1.2,20.4,1.2,20.4,1.2,20.4
				c0.2,0,0.3,0,0.4-0.1c0.1-0.1,0.1-0.2,0.1-0.3c0-0.1-0.2-0.2-0.5-0.2c-0.1,0-0.2,0-0.3,0c-0.1,0-0.1,0.1-0.1,0.2
				c0,0.1,0,0.2,0,0.3c0,0.1,0.1,0.2,0.2,0.2C1,20.4,1.1,20.4,1.2,20.4z M0.8,18.8C0.7,19,0.9,19,1.1,19c0,0,0,0,0.1,0
				c0.2,0,0.3-0.1,0.3-0.4c0-0.3-0.2-0.1-0.3-0.2C0.8,18.4,0.8,18.5,0.8,18.8z"/>
			<path class="st2" d="M39.5,20c0,0.3,0,0.5,0,0.8c0,0.3-0.1,0.4-0.5,0.5c-0.2,0-0.4-0.3-0.6,0c-0.1,0.1-0.4,0-0.6,0
				c-0.4,0-0.7-0.2-0.9-0.6c-0.2-0.4-0.3-0.9-0.1-1.4c0.1-0.3,0.4-0.5,0.7-0.8c0.1-0.1,0.3-0.1,0.5-0.1c0.2,0,0.4-0.1,0.6,0.1
				c0,0,0.1,0,0.2-0.1c0.5-0.1,0.8,0.1,0.8,0.5C39.5,19.3,39.5,19.6,39.5,20z M38.1,20.5c0.1-0.1,0.2-0.1,0.3-0.2
				c0.1-0.1,0.2-0.3,0.2-0.5c0-0.1-0.1-0.3-0.2-0.4c-0.1-0.1-0.2-0.1-0.3-0.1c-0.1,0-0.3,0.1-0.3,0.1c-0.1,0.1-0.2,0.3-0.2,0.4
				c0,0.2,0.1,0.3,0.2,0.5C37.8,20.4,38,20.4,38.1,20.5z"/>
			<path class="st2" d="M33.1,19.9c0,0.3,0,0.6,0,0.9c0,0.4-0.2,0.5-0.5,0.4c-0.2-0.1-0.4-0.1-0.6,0c-0.7,0.2-1.2-0.1-1.5-0.7
				c-0.3-0.7,0-1.6,0.7-1.9c0.3-0.1,0.6-0.1,0.9,0c0.2,0.1,0.3,0.1,0.5,0c0.4-0.2,0.6,0,0.6,0.4C33.1,19.2,33.1,19.5,33.1,19.9z
				 M31.2,19.9c0,0.3,0.2,0.6,0.5,0.6c0.2,0,0.4-0.3,0.4-0.6c0-0.3-0.2-0.6-0.4-0.6C31.5,19.2,31.2,19.5,31.2,19.9z"/>
			<path class="st2" d="M18.5,19.9c0,0.3,0,0.6,0,0.9c0,0.3-0.2,0.5-0.4,0.4c-0.4-0.2-0.7,0-1.1,0c-0.5,0-0.8-0.2-1.1-0.6
				c-0.5-0.8-0.1-1.6,0.6-2.1c0.2-0.1,0.6-0.1,0.9,0c0.2,0,0.3,0.1,0.5,0c0.1,0,0.2,0,0.3-0.1c0.2,0,0.3,0.1,0.3,0.3
				C18.5,19.1,18.5,19.5,18.5,19.9z M17.5,19.9c0-0.1,0-0.2,0-0.3c0.1-0.2-0.2-0.2-0.3-0.3c-0.1-0.1-0.3-0.1-0.4,0
				c-0.3,0.3-0.3,0.9,0,1.1c0.2,0.2,0.6,0,0.6-0.3C17.5,20,17.5,19.9,17.5,19.9z"/>
			<path class="st2" d="M7.6,22c-0.1,0-0.2,0-0.3,0c-0.2,0-0.3,0-0.1-0.3c0.1-0.2-0.1-0.4,0.2-0.6c0,0,0-0.2-0.1-0.2
				c-0.1-0.1-0.2-0.2-0.3-0.2c-0.4-0.1-0.5-0.4-0.6-0.7c-0.1-0.3-0.1-0.6,0.1-0.9c0.1-0.1,0.2-0.1,0.2,0c0.1,0.1,0,0.4,0.2,0
				C6.9,19,6.9,19,7,18.9c0.1-0.1,0.2-0.1,0.3,0.1c0,0,0,0.1,0.1,0.1c0,0,0.1-0.1,0.1-0.1c0-0.2,0.1-0.5-0.1-0.7
				C7.1,18.2,7.1,18,7,17.9c0,0,0-0.1,0-0.2c0.1-0.1,0.1-0.2,0.2-0.2c0.1,0,0.1,0.1,0.1,0.2c-0.1,0.4,0.1,0.6,0.4,0.8
				c0,0,0.1,0.1,0.1,0.1c0-0.1,0-0.1,0-0.2c0,0-0.1-0.1-0.1-0.1c0-0.1,0-0.1,0-0.2c0.1,0,0.1,0,0.2,0.1c0.2,0.2,0.4,0.4,0.4,0.7
				c0,0.1,0.1,0.3,0.1,0.4c0.1,0.3,0.1,0,0.1,0c0-0.1,0.1-0.1,0.2-0.1c0,0.1,0.1,0.1,0.1,0.2c-0.1,0.2-0.1,0.3-0.2,0.5
				c0,0.1-0.1,0.1-0.2,0.2c0,0,0,0.1,0,0.1c0,0,0.1,0,0.1,0C8.8,20,8.8,20,8.9,20c0,0,0.1,0,0.1,0.1c0,0.1,0,0.2-0.1,0.3
				c-0.2,0.3-0.6,0.6-1,0.6c-0.2,0-0.3,0-0.3,0.3c0,0.1,0,0.2,0,0.3c0,0.2,0,0.3,0.2,0.2c0,0,0.1,0,0.1,0c0.1,0,0.1,0.1,0.2,0.1
				C8.1,21.9,8.1,22,8,22C7.9,22,7.8,22,7.6,22z"/>
			<path class="st2" d="M25.1,18.5c0.6-0.1,1,0.2,1.3,0.7c0.1,0.3,0.1,0.5,0.1,0.7c0,0-0.1,0.1-0.1,0.1c-0.3,0-0.7,0-1,0.1
				c-0.2,0.1-0.4,0.1-0.5-0.1c0,0-0.1,0-0.2,0.1c0,0,0,0.1,0,0.2c0.1,0.1,0.2,0.2,0.3,0.2c0.3,0,0.6,0.1,0.8-0.1
				c0.1-0.1,0.2,0,0.3,0c0.2,0,0.4,0.1,0.4,0.2c0,0.1-0.1,0.4-0.2,0.4c-0.5,0.3-1.1,0.5-1.7,0.1c-0.6-0.3-0.9-0.9-0.8-1.6
				c0-0.2,0.1-0.3,0.2-0.4c0.1-0.1,0.2-0.2,0.2-0.2C24.4,18.6,24.7,18.3,25.1,18.5z M25,19.5c0.1,0,0.3,0,0.4,0c0,0,0.1-0.1,0.1-0.1
				c0,0,0-0.1-0.1-0.2c-0.3-0.2-0.6-0.2-0.8,0.1c0,0,0,0.1,0,0.1C24.8,19.5,24.9,19.5,25,19.5z"/>
			<path class="st2" d="M19.9,21.2c-0.4,0-0.7,0.1-0.9-0.3c-0.1-0.1-0.2-0.2-0.1-0.4c0.1-0.2,0.2-0.3,0.4-0.3c0.2,0,0.4,0.1,0.7,0.1
				c0.1,0,0.1,0,0.2-0.1c0,0-0.1-0.1-0.1-0.1c-0.1-0.1-0.3-0.1-0.4-0.2c-0.4-0.2-0.7-0.5-0.6-0.9c0.1-0.4,0.4-0.7,0.8-0.7
				c0.3,0,0.6-0.1,0.9,0.1c0.2,0.2,0.3,0.2,0.3,0.5c0,0.2-0.2,0.3-0.4,0.3c0,0-0.1-0.1-0.1-0.1c-0.2,0-0.3,0-0.5,0
				c0.1,0.2,0.3,0.2,0.4,0.2c0.2,0.1,0.4,0.3,0.6,0.4c0.3,0.3,0.2,0.6,0,0.9C20.6,21.2,20.3,21.3,19.9,21.2z"/>
			<path class="st2" d="M22.4,21.2c-0.2,0-0.4,0-0.5,0c-0.2-0.1-0.4-0.2-0.5-0.3c-0.1-0.1,0-0.4,0-0.6c0-0.1,0.3,0,0.4,0
				c0.1,0,0.3,0.1,0.4,0.1c0.1,0,0.2,0,0.3-0.1c-0.1-0.1-0.2-0.1-0.2-0.2c-0.2-0.2-0.5-0.1-0.7-0.3c-0.2-0.2-0.3-0.5-0.3-0.7
				c0.1-0.2,0.2-0.5,0.5-0.6c0.5-0.2,1.2-0.1,1.5,0.3c0.1,0.1,0.1,0.2,0,0.3c-0.2,0.2-0.3,0.4-0.6,0.1c-0.1-0.1-0.2,0-0.3,0
				c-0.1,0-0.1,0-0.2,0c0,0,0.1,0.1,0.1,0.1c0.3,0.2,0.6,0.3,0.8,0.5c0.4,0.3,0.3,0.6,0,1C23,21.1,22.7,21.3,22.4,21.2z"/>
			<path class="st2" d="M28.7,20.1c0-0.2,0-0.4,0-0.6c0-0.2,0-0.3-0.2-0.3c-0.3,0-0.1-0.3-0.3-0.3c0.2,0,0-0.4,0.3-0.3
				c0.1,0,0.2,0,0.2-0.2c0-0.1,0-0.3,0-0.4c0-0.1,0.1-0.3,0.2-0.4c0.2,0,0.4,0,0.6,0c0.1,0,0.1,0.2,0.1,0.3c0,0.3,0.1,0.5,0.4,0.6
				c0.1,0,0.2,0.2,0.2,0.3c0,0.1,0,0.2-0.1,0.3c0,0.1-0.1,0.1-0.2,0.1c-0.3,0-0.3,0.2-0.3,0.4c0,0.4,0,0.8,0,1.2
				c0,0.3-0.4,0.5-0.6,0.3c-0.2-0.1-0.3-0.3-0.3-0.5C28.8,20.5,28.7,20.3,28.7,20.1z"/>
			<path class="st2" d="M33.7,19.3c0-0.5,0-1,0-1.4c0-0.3,0.3-0.6,0.5-0.6c0.1,0,0.4,0.4,0.5,0.5c0,0,0,0.1,0,0.1c0,0.9,0,1.8,0,2.8
				c0,0.3-0.2,0.4-0.3,0.5c-0.3,0.2-0.6,0-0.6-0.3C33.7,20.3,33.7,19.8,33.7,19.3z"/>
			<path class="st2" d="M27,19.4c0-0.5,0-0.9,0-1.4c0-0.2,0.2-0.5,0.4-0.5c0.2-0.1,0.5,0.2,0.5,0.5c0,0.5,0,0.9,0,1.4
				c0,0.4,0,0.8,0,1.2c0,0.1,0,0.2-0.1,0.4c-0.1,0.3-0.1,0.3-0.3,0.3c-0.5,0-0.5,0-0.5-0.5C27,20.3,27,19.9,27,19.4z"/>
			<path class="st2" d="M35.3,19.9c0-0.3,0-0.7,0-1c0-0.3,0.2-0.5,0.4-0.5c0.3,0,0.5,0.2,0.6,0.5c0,0.6,0,1.2,0,1.8
				c0,0.3-0.3,0.5-0.6,0.5c-0.2,0-0.3-0.1-0.3-0.3C35.3,20.6,35.3,20.2,35.3,19.9z"/>
			<path class="st2" d="M3.2,19.9c0-0.3,0-0.6,0-0.9c0-0.2,0-0.3,0.2-0.4c0.1-0.1,0.2-0.2,0.4-0.2c0.2,0,0.4,0.3,0.4,0.5
				c0,0.6,0,1.2,0,1.8c0,0.3-0.4,0.6-0.7,0.5c-0.1-0.1-0.2-0.2-0.2-0.4C3.2,20.5,3.2,20.2,3.2,19.9z"/>
			<path class="st2" d="M35.8,18.3c-0.3,0-0.6-0.2-0.6-0.4c0-0.2,0.3-0.5,0.6-0.5c0.4,0,0.5,0.1,0.5,0.5
				C36.2,18.2,36.1,18.3,35.8,18.3z"/>
			<path class="st2" d="M4.1,17.9c0,0.4-0.1,0.4-0.5,0.4c-0.3,0-0.6-0.2-0.6-0.5c0-0.1,0.1-0.2,0.2-0.4c0.1-0.2,0.3-0.1,0.4-0.1
				C4,17.4,4.1,17.5,4.1,17.9z"/>
		</g>
	</g>
</g>
<g id="Livello_3">
	<g>
		<g>
			<path class="st3" d="M3.4,18.7c0,0,0.1,0,0.1,0c0,0,0.1,0.1,0.1,0.1c0.2,0,0.4,0,0.6,0c0.3,0,0.6,0.1,0.8,0.2
				c0.1,0,0.1,0.1,0.1,0.1c0,0.1-0.1,0-0.2,0.1c0,0,0,0,0,0.1c-0.1,0-0.1,0-0.2,0c0,0,0,0,0,0c-0.2-0.1-0.3,0-0.4,0.1
				c0,0,0,0.1,0,0.1c0,0-0.1,0-0.1,0c0-0.1-0.1-0.1-0.1,0C4,19.4,4,19.4,3.9,19.4c-0.1,0-0.2,0.1-0.2,0.2c-0.1,0-0.1,0-0.1,0.1
				c-0.1,0-0.1,0-0.1,0.1c0,0,0,0-0.1,0.1c0,0,0,0-0.1,0.1c-0.1,0-0.1,0.1-0.1,0.1c-0.1,0-0.2-0.1-0.2,0C3,20.3,3,20.3,3,20.4
				c0,0.1,0,0.2-0.1,0.2c0,0.1-0.1,0.3-0.1,0.4c0,0.4-0.1,0.8,0.1,1.1c0,0,0,0.1,0,0.1c0.1,0.1,0.1,0.3,0.2,0.2c0,0,0,0.1,0,0.1
				c0.1,0.3,0.4,0.5,0.6,0.7c0.1,0,0.1,0.1,0.2,0.1c0.2,0.1,0.4,0.1,0.5,0.2c0.1,0,0.2,0.1,0.2,0c0,0,0.1,0,0.1,0
				c0.1,0.1,0.2,0.1,0.2,0c0.1,0,0.2,0,0.2,0c0,0,0,0,0,0c0.2,0,0.3,0.1,0.5-0.1c0,0,0.1,0,0.1,0c0.1,0,0.2-0.1,0.3-0.1
				c0.2,0,0.2-0.1,0.3-0.2c0.1,0,0.1-0.2,0.2-0.1c0.1-0.1,0.3-0.2,0.4-0.3c0.2-0.3,0.4-0.5,0.4-0.9c0,0,0-0.1,0-0.1
				c0.1-0.1,0.1-0.4,0.2-0.5c0-0.1-0.1-0.2-0.1-0.4c0-0.1,0-0.3,0-0.4c0-0.1,0-0.2-0.2-0.3c0-0.1,0-0.1,0-0.2c0.1-0.1,0.1-0.2,0-0.2
				c-0.1-0.1-0.1-0.3-0.2-0.4c0.1-0.1-0.1-0.2-0.1-0.3C7.2,19,7.1,19,7,19c0,0,0,0,0-0.1c0-0.2-0.2-0.3-0.3-0.5
				c-0.1-0.1-0.1-0.1-0.2-0.1c0,0,0-0.1,0-0.1c-0.2-0.1-0.3-0.3-0.5-0.4c-0.1-0.1-0.3-0.1-0.4-0.2c-0.1,0-0.2-0.1-0.3-0.1
				c-0.1,0-0.3,0-0.3-0.1c-0.2-0.1-0.4-0.1-0.6-0.1c-0.1,0-0.2,0-0.3,0c-0.1-0.1-0.2-0.1-0.4-0.1c-0.3,0.1-0.5-0.1-0.8-0.1
				C2.6,17,2.4,17,2.2,16.8c-0.3-0.1-0.6-0.3-0.9-0.5c-0.1-0.1-0.1-0.1-0.2-0.1c0,0,0-0.1,0-0.1c-0.2-0.2-0.4-0.4-0.5-0.7
				c-0.1-0.1-0.1-0.1-0.1-0.2c0,0,0-0.1,0-0.1c-0.2,0-0.1-0.1-0.1-0.2c0,0,0-0.1-0.1-0.1c0,0,0-0.1-0.1-0.1c-0.1-0.2,0-0.3-0.1-0.5
				c-0.1-0.2,0-0.5-0.1-0.7c0,0,0-0.1,0-0.1c0,0,0,0,0.1,0c0,0,0,0,0,0c0,0,0.1,0.1,0.1,0.1c0.1,0.3,0.2,0.4,0.4,0.5
				c0,0,0,0,0.1,0.1c0,0.1,0.1,0.1,0.1,0.1c0,0.1,0,0.1,0.1,0.2c0,0.1,0.2,0,0.2,0.2c0.1,0,0.2,0.1,0.2,0.2c0.2,0.1,0.4,0.2,0.6,0.2
				c0,0,0,0,0.1,0c0,0,0,0.1,0,0.1c0.2,0.1,0.3,0.1,0.4,0.2c0,0,0.1,0,0.1,0c0.3,0,0.5,0.1,0.7,0.2c0.1,0,0.2,0,0.3,0
				c0.1,0,0.1,0.2,0.3,0.1c0.1,0,0.2,0,0.4,0.1c0,0,0.1,0,0.1,0c0.1,0,0.2,0,0.3,0.1c0.1,0,0.3,0.1,0.4,0.1c0,0.1,0.1,0.1,0.2,0.1
				c0.1,0,0.2,0,0.2,0.1c0,0,0.1,0,0.1,0c0.2,0.1,0.3,0.1,0.5,0.2c0.1,0,0.2,0.1,0.3,0.1c0.1,0,0.2,0.1,0.3,0.1
				C7,16.8,7.2,17,7.5,17.3c0.2,0.1,0.3,0.3,0.4,0.4C8,17.8,8.1,18,8.2,18.2c0,0.1,0.1,0,0.1,0c0,0.1,0,0.3,0.1,0.4
				c0.1,0.1,0.1,0.2,0.1,0.3c0,0,0,0.1,0,0.1c0.1,0,0.1,0.1,0.1,0.1c0,0.1,0,0.1,0,0.2c0,0.1,0.1,0.2,0.2,0.2c0.1,0,0.1,0,0.2-0.1
				c0.1-0.1,0.1-0.2,0.1-0.4c0-0.1,0-0.1,0-0.2C9.2,18.5,9,18.2,9,17.9c0,0,0,0-0.1-0.1c-0.1-0.2-0.2-0.4-0.3-0.6
				c0-0.1-0.1-0.1-0.1-0.2c0-0.2-0.1-0.2-0.2-0.2c0-0.1,0-0.2-0.1-0.3c-0.1-0.1-0.2-0.2-0.4-0.4c-0.1-0.1-0.2-0.1-0.3-0.1
				c0,0,0-0.1,0-0.1c-0.1-0.2-0.3-0.3-0.5-0.4c-0.1,0.1-0.1-0.1-0.2-0.1c-0.1,0-0.2-0.1-0.3-0.2c-0.1-0.1-0.2-0.1-0.3-0.1
				C6.2,15.1,6,15,5.9,15c-0.1-0.1-0.2-0.1-0.4-0.2c-0.2-0.1-0.3-0.2-0.5-0.2c-0.1,0-0.2,0-0.4-0.1c-0.1-0.1-0.2-0.1-0.3-0.2
				c-0.1,0-0.2-0.1-0.3-0.1c-0.1,0-0.2-0.1-0.3-0.1c-0.1,0-0.3-0.1-0.4-0.1c-0.1-0.1-0.3,0-0.4-0.2c-0.2,0-0.2-0.1-0.4-0.2
				c-0.1-0.1-0.3-0.1-0.4-0.2c0,0-0.1,0-0.2,0c0-0.2-0.1-0.2-0.2-0.3C1.8,13,1.7,13,1.6,12.9c-0.1-0.1-0.2-0.1-0.2-0.2
				c-0.1-0.2-0.3-0.4-0.3-0.6c-0.1-0.2,0-0.4,0-0.5c0-0.1,0-0.1,0-0.2c0-0.1,0-0.2,0-0.3c0-0.1,0.2-0.1,0.1-0.3
				c0.1-0.1,0.2-0.3,0.3-0.3c0.1-0.1,0.2-0.2,0.3-0.2c0.2,0,0.3-0.2,0.3-0.3c0,0,0-0.1,0-0.1c0.2-0.2,0.4-0.4,0.7-0.4
				c0.2,0,0.4-0.2,0.6-0.2c0.1,0,0.2-0.1,0.4-0.1c0,0,0-0.1,0-0.1C4,9,4,9,4.1,9c0.1,0.1,0.2,0.1,0.3,0C4.5,9,4.7,9,4.8,9
				c0.7,0,1.4,0,2.1,0C6.9,9,7,9,7,8.9c0.1,0,0.2,0,0.2,0c0,0,0,0.1,0,0.1c0.1,0,0.1,0.1,0.2,0.1c0.1,0,0.2,0.1,0.3-0.1
				c0,0,0.1,0,0.1,0c0,0,0,0.1,0,0.1c0.2,0.1,0.5,0.2,0.7,0.2c0,0,0.1,0,0.1,0C8.9,9.3,9,9.4,9,9.4c0.1,0,0.2,0,0.3,0.1
				c0.1,0,0.2,0.1,0.3,0.1c0.3,0.1,0.7,0.2,1,0.4c0,0,0.1,0,0.1,0c0,0-0.1,0.1-0.1,0.1c-0.1,0.1-0.3,0.2-0.5,0.1c-0.1,0-0.1,0-0.2,0
				c-0.1,0-0.1,0-0.2-0.1c-0.1-0.1-0.2-0.1-0.4,0c0,0-0.1,0-0.1,0c0,0,0-0.1,0-0.1C9.2,9.9,9.1,9.9,9,9.9c-0.1,0-0.3,0-0.4-0.1
				c-0.1,0-0.3,0-0.5-0.1C7.9,9.7,7.6,9.7,7.4,9.7c-0.4,0-0.8,0-1.3,0c-0.4,0-0.9-0.1-1.3,0.1c-0.1,0-0.2,0-0.3,0.1c0,0,0,0.1,0,0.1
				c0,0-0.1,0-0.1,0c0-0.1-0.1-0.1-0.2,0C4.1,10,4,10,3.9,10c-0.1,0-0.2,0.2-0.3,0.1c-0.1,0.1-0.3,0.2-0.4,0.3c0,0,0,0,0,0.1
				c-0.1,0-0.1,0-0.1,0.1c-0.1,0-0.1,0-0.2,0.1c0,0.1-0.1,0.1-0.1,0.2c-0.1,0.1-0.1,0.2-0.1,0.3c0,0.1,0,0.2,0,0.3c0,0,0,0.1,0,0.1
				C2.9,11.6,3,11.8,3,11.9C3.1,12,3.2,12,3.2,12c0,0,0,0,0,0.1c0,0.1,0.2,0.2,0.3,0.3c0,0,0.1,0,0.1,0c0,0,0.1,0,0.1,0
				c0.1,0.1,0.3,0.1,0.4,0.2c0.1,0,0.2,0,0.1-0.1c0-0.1-0.1-0.2-0.1-0.3c0,0,0-0.1,0-0.1c0.1-0.1,0-0.2,0.1-0.3c0,0,0,0,0-0.1
				c0.1-0.2,0.3-0.3,0.5-0.5c0,0,0-0.1,0-0.1C4.9,11.2,5,11,5,11c0.1,0,0.2,0,0.3-0.1c0.1,0,0.2,0,0.4-0.1c0.2,0,0.3,0,0.5-0.1
				c0.2-0.1,0.5-0.1,0.7-0.1c0.6,0,1.1,0,1.7,0.1c0.2,0.1,0.5,0,0.7,0.1c0,0,0.1,0,0.1,0c0,0,0,0.1,0,0.1c-0.1,0-0.2,0.2-0.3,0.2
				c-0.4,0-0.7,0-1.1,0c-0.3,0-0.5,0-0.7,0.1c0,0-0.1,0-0.1,0c-0.3-0.1-0.5,0.1-0.7,0.2c-0.1,0-0.1,0.1-0.1,0.2c0,0,0,0-0.1,0
				c-0.2,0-0.4,0.2-0.4,0.4c0,0,0,0,0,0.1c-0.1,0-0.2,0-0.2,0.2c0,0.3,0.2,0.7,0.5,0.9c0.3,0.2,0.6,0.4,0.9,0.5
				c0.1,0.1,0.3,0.1,0.4,0.3c0.3,0.1,0.5,0.3,0.8,0.4c0.1,0.1,0.2,0.1,0.3,0.2c0,0.1,0,0.1,0.1,0.2c0.1,0,0.1,0.1,0.2,0.1
				c0.4,0.4,0.7,0.7,1,1.2c0.1,0.1,0.2,0.3,0.3,0.5c0,0.1,0.2,0.2,0.2,0.4c0.1,0.2,0.1,0.4,0.1,0.6c0.1,0.2,0.1,0.5,0.1,0.7
				c0,0.1,0,0.2,0,0.2c0,0.1,0.1,0,0.1,0c0,0.2,0,0.4,0,0.7c-0.1,0,0,0.2-0.1,0.2c-0.1,0.3-0.2,0.5-0.2,0.8c0,0.2-0.1,0.4-0.2,0.5
				c-0.1,0.1-0.1,0.2-0.1,0.3c0,0,0,0.1,0,0.1c-0.2,0.1-0.1,0.3-0.2,0.4c0,0.3-0.3,0.5-0.3,0.7c0,0-0.1,0.1-0.1,0.1c0,0-0.1,0-0.1,0
				c0,0.2-0.2,0.3-0.3,0.5c-0.2,0.3-0.4,0.5-0.6,0.7c-0.1,0.1-0.3,0.3-0.4,0.4c-0.1,0.1-0.2,0.2-0.3,0.3c0,0,0,0,0,0.1
				c-0.2,0-0.4,0.1-0.6,0.2c-0.2,0.1-0.3,0.2-0.5,0.3c-0.1,0-0.2,0-0.3,0c-0.1,0-0.2,0.1-0.3,0.1c-0.3,0-0.6,0.1-0.9,0.1
				c-0.1,0-0.2,0-0.3,0C5,25.1,4.9,25,4.8,25c-0.2,0-0.3,0-0.5,0c-0.2,0-0.3-0.1-0.5-0.1c-0.2,0-0.4-0.1-0.6-0.3
				c-0.2-0.1-0.4-0.2-0.5-0.3c0,0-0.1,0-0.1,0c0-0.1,0-0.1-0.1-0.1c0,0,0,0-0.1,0c0-0.2-0.2-0.4-0.4-0.4c0-0.1-0.1-0.2-0.1-0.3
				c-0.1-0.2-0.3-0.3-0.3-0.5c-0.1,0-0.1-0.2-0.2-0.3c-0.1-0.1,0-0.2-0.1-0.3c0,0,0-0.1,0-0.1c-0.1-0.1-0.1-0.2-0.1-0.2
				c0-0.1,0-0.2,0-0.3c0-0.3-0.1-0.6,0.1-0.8c0,0,0-0.1,0-0.1c0-0.2,0.1-0.4,0.2-0.5c0.1-0.2,0.2-0.4,0.4-0.6c0,0,0-0.1,0.1-0.1
				c0.2-0.1,0.3-0.4,0.6-0.5c0.2-0.1,0.4-0.2,0.5-0.3C3.3,18.9,3.3,18.9,3.4,18.7z"/>
			<path class="st3" d="M17.3,19.8c-0.1-0.1-0.1-0.1-0.2-0.2c-0.2-0.2-0.5-0.3-0.8-0.3c-0.1,0-0.2,0-0.3,0c-0.3,0-0.6,0.1-0.9,0.2
				c-0.4,0.1-0.7,0.4-1,0.6c-0.1,0-0.1,0-0.1,0c-0.1-0.2-0.2-0.5-0.3-0.7c0-0.1,0-0.1,0-0.1c0,0,0.1-0.1,0.1-0.1
				c-0.1-0.2,0-0.3,0.1-0.3c0.2-0.1,0.5-0.3,0.7-0.4c0,0,0.1,0,0.1,0c0,0,0.1,0,0.1,0c0-0.1,0.1-0.1,0.1-0.1c0.2,0,0.4-0.2,0.7-0.1
				c0.4-0.1,0.7,0,1.1-0.1c0.3,0,0.6,0,0.9,0.2c0.1,0,0.2,0.1,0.3,0.1c0.1,0,0.2,0,0.2,0.2c0,0.1,0.2,0,0.2,0.1
				c0.2,0.2,0.4,0.4,0.5,0.7c0.1,0.2,0.1,0.4,0.2,0.6c0.1,0.4,0,0.8,0.1,1.1c0,0.9,0,1.8,0,2.7c0,0.3,0.1,0.6,0.1,0.9
				c0,0.1,0.1,0.2,0,0.3c-0.1,0.1-0.2,0-0.3,0c-0.3,0-0.5-0.1-0.8-0.1c-0.2-0.1-0.3-0.2-0.4-0.4c0-0.1,0-0.1-0.1,0
				c-0.2,0.2-0.4,0.4-0.7,0.5c-0.2,0.1-0.4,0.1-0.6,0.2c0,0-0.1,0-0.1,0C16,25,16,25,15.9,25.2c0,0,0,0,0,0c-0.2,0-0.4,0-0.6,0
				c-0.3-0.1-0.5-0.1-0.8-0.2c-0.1,0-0.2-0.1-0.3-0.2c-0.4-0.3-0.7-0.7-0.8-1.1c0-0.1,0-0.1,0-0.2c0-0.1,0-0.2,0-0.3
				c0-0.1,0-0.2,0-0.3c0,0,0-0.1,0-0.1c0-0.7,0.6-1.3,1.1-1.6c0.3-0.1,0.6-0.2,0.9-0.3c0.2-0.1,0.3-0.1,0.5-0.1c0.3,0,0.5,0,0.8,0
				c0.2,0,0.4,0,0.5,0.1c0.1,0,0.2-0.1,0.2,0.1c0,0,0,0.1,0,0.1c0,0,0.1,0,0.1,0c0.1,0,0.2,0.1,0.2-0.1c0,0,0.1,0,0.1,0
				c0-0.3,0-0.5,0-0.8c0-0.1-0.1,0-0.1,0c0-0.2-0.1-0.3-0.2-0.5C17.4,19.6,17.4,19.8,17.3,19.8z M16.7,21.9c-0.3,0-0.5,0-0.6,0.1
				c-0.1,0-0.2,0.1-0.4,0.1c-0.1,0-0.2,0.1-0.4,0.2c-0.1,0.1-0.3,0.2-0.3,0.3c-0.2,0.1-0.1,0.3-0.1,0.4c0,0,0,0.1,0,0.1
				c0,0.3,0.1,0.5,0.3,0.6c0.3,0.3,0.7,0.4,1.1,0.4c0.1,0,0.2-0.1,0.2-0.1c0.2,0,0.3-0.1,0.4-0.2c0.3-0.2,0.5-0.5,0.6-0.8
				c0.1-0.3,0.2-0.6,0.2-0.9c0-0.1,0-0.2-0.2-0.2C17.2,22,16.9,21.9,16.7,21.9z M18.9,22.5c0,0.6,0,1.3,0,1.9c0,0.1,0,0.1,0,0.2
				c0,0,0,0,0,0c0,0,0,0,0,0c0,0,0-0.1,0-0.1c0-1.3,0-2.6,0-3.9c0,0,0-0.1,0-0.1c0,0,0,0,0,0c0,0,0,0,0,0c0,0.1,0,0.1,0,0.2
				C18.9,21.2,18.9,21.8,18.9,22.5z"/>
			<path class="st3" d="M31.2,21.1C31.2,21.1,31.2,21.1,31.2,21.1c0.1,0,0.1,0.1,0.1,0.1c0.1,0,0.3,0.1,0.4,0.1
				c0.1,0.1,0.2,0.1,0.2,0c0-0.3,0-0.5,0-0.8c0-0.1,0-0.3,0-0.3c-0.1-0.1-0.1-0.3-0.2-0.4c-0.1-0.1-0.1,0-0.2,0
				c-0.2-0.1-0.3-0.2-0.4-0.3c-0.3-0.1-0.3-0.1-0.5-0.1c-0.1,0-0.1,0-0.2,0c-0.5,0-1,0.2-1.5,0.5c-0.2,0.1-0.3,0.2-0.5,0.3
				c-0.1,0-0.1,0.1-0.1,0c-0.1-0.2-0.2-0.4-0.3-0.7c-0.1-0.2,0-0.3,0.1-0.5c0.1-0.1,0.2-0.2,0.3-0.3c0.2-0.1,0.5-0.3,0.8-0.3
				c0.2-0.1,0.4-0.2,0.7-0.1c0.4-0.1,0.9-0.1,1.3-0.1c0.4,0,0.8,0.2,1.1,0.4c0.3,0.2,0.5,0.5,0.7,0.8c0.1,0.2,0.2,0.5,0.2,0.8
				c0,0.1-0.1,0.1-0.1,0.2c0,1.4,0,2.8,0,4.1c0,0.1,0,0.1,0.2,0.1c0,0.1,0,0.2,0.1,0.2c0,0,0,0.1-0.1,0.1c-0.2,0-0.3,0-0.5,0
				c-0.2,0-0.3,0-0.5-0.1c-0.2-0.1-0.5-0.2-0.5-0.5c0-0.1,0-0.1-0.1,0c-0.1,0.2-0.4,0.3-0.6,0.4c-0.1,0.1-0.2,0.1-0.3,0.1
				c-0.1-0.1-0.2-0.1-0.3,0c0,0.1-0.1,0.1-0.1,0.1c-0.2,0-0.4,0-0.6,0.1c-0.1,0-0.2,0-0.2,0c-0.2-0.1-0.3,0-0.5-0.1c0,0,0,0,0,0.1
				c-0.1,0-0.2,0-0.2,0c-0.2-0.1-0.4-0.1-0.6-0.3c-0.2-0.2-0.4-0.4-0.6-0.6c0-0.1-0.1-0.1,0-0.1c0,0,0,0,0,0
				c-0.1-0.2-0.1-0.2-0.2-0.3c0-0.1-0.1-0.2-0.1-0.3c0-0.6,0.1-1.1,0.6-1.5c0.2-0.2,0.5-0.4,0.8-0.5c0,0,0.1,0,0.1,0
				c0.1,0,0.1,0,0.2-0.1c0-0.1,0.2-0.1,0.3-0.1c0.4-0.1,0.9-0.1,1.3-0.1c0.1,0,0.2,0,0.3,0c0,0,0,0,0,0.1C31,21.1,31,21.1,31.2,21.1
				C31.1,21.1,31.2,21.1,31.2,21.1z M31.8,22.5c0-0.1,0-0.2,0-0.4c0,0,0-0.1,0-0.1c-0.2-0.1-0.4-0.2-0.6-0.2c-0.5,0-0.9,0-1.4,0.2
				c-0.2,0.1-0.5,0.3-0.6,0.5c-0.1,0.2-0.1,0.4-0.1,0.6c0,0.3,0.1,0.5,0.3,0.7c0.4,0.3,0.9,0.5,1.4,0.3c0.1,0,0.3-0.1,0.4-0.2
				c0.1-0.1,0.2-0.2,0.3-0.3c0.1-0.2,0.3-0.3,0.2-0.5c0,0,0,0,0,0c0.1,0,0.1-0.1,0.1-0.1C31.8,22.8,31.8,22.7,31.8,22.5z"/>
			<path class="st3" d="M25.3,24.9c-0.3-0.1-0.4-0.2-0.4-0.5c-0.1-0.6,0-1.3-0.1-1.9c0-0.6,0-1.3,0-1.9c0-0.4-0.2-0.8-0.5-1
				c-0.2-0.1-0.4-0.2-0.6-0.2c-0.2,0-0.5,0-0.7,0.1c-0.1,0.1-0.3,0.1-0.4,0.2c-0.3,0.2-0.4,0.6-0.5,0.9c-0.1,0.2-0.1,0.4-0.1,0.6
				c0,1.2,0,2.4,0,3.6c0,0.1,0.1,0.2-0.1,0.2c0,0,0,0,0-0.1c0-1.3,0-2.5,0-3.8c0-0.1,0-0.2,0-0.2c0,0,0,0,0,0c0,0,0,0,0,0
				c0,0.1,0,0.2,0,0.2c0,1.2,0,2.5,0,3.7c-0.4,0-0.8,0-1.2,0c0-1.9,0-3.8,0-5.8c0-0.1,0-0.2,0-0.3c0,0,0,0-0.1,0c0,0,0,0-0.1,0
				c0-0.1,0-0.2,0-0.2c0.2,0,0.5,0,0.7,0c0.1,0,0.2,0,0.3-0.1c0,0,0,0,0-0.1c0.1,0,0.2,0,0.2,0.1c0,0.1,0.1,0.2,0.1,0.3
				c0,0,0,0.1,0,0.1c0,0,0.1-0.1,0.1-0.1c0.2-0.2,0.4-0.3,0.6-0.4c0.2-0.1,0.4-0.1,0.6-0.2c0.3-0.1,0.6-0.1,0.8,0
				c0.3,0,0.6,0.1,0.9,0.2c0.5,0.3,0.9,0.6,1.1,1.2c0.1,0.2,0.1,0.4,0.1,0.6c0,0,0,0,0,0.1c0,0,0,0,0,0.1c-0.1,0-0.1,0.1-0.1,0.2
				c0,1.5,0,2.9,0,4.4c-0.3,0-0.6,0-0.9,0C25.4,24.9,25.3,24.9,25.3,24.9z M25,20.7c0,0,0-0.1,0-0.1C25,20.6,25,20.6,25,20.7
				C25,21.3,25,22,25,22.7c0,0.6,0,1.1,0,1.7c0,0,0,0.1,0.1,0.1c0.1,0,0.1-0.1,0.1-0.1c0-0.6,0-1.3,0-1.9c0-0.6,0-1.1,0-1.7
				C25.1,20.8,25.1,20.7,25,20.7z"/>
			<path class="st3" d="M39.7,23.7c0,0.2-0.1,0.4-0.2,0.6c-0.2,0.3-0.6,0.6-0.9,0.7c-0.2,0.1-0.5,0.2-0.8,0.2c-0.1,0-0.3,0-0.4,0.1
				c-0.1,0-0.3,0.1-0.4,0.1c-0.5-0.1-1-0.1-1.4-0.2c-0.3-0.1-0.6-0.2-0.8-0.4c-0.2-0.1-0.3-0.4-0.1-0.6c0.1-0.2,0.2-0.4,0.3-0.6
				c0.1-0.1,0.1-0.2,0.2-0.1c0.2,0.1,0.3,0.3,0.5,0.3c0,0,0,0,0,0.1c0.1,0-0.2,0.1,0,0.1c0.1,0,0.2,0.1,0.3,0.1
				c0.1,0.1,0.2,0,0.3,0.1c0.1,0.1,0.2,0.1,0.3,0.1c0.3,0,0.5,0,0.8,0c0.2,0,0.4-0.1,0.5-0.2c0,0,0,0,0.1-0.1
				c0.1-0.1,0.2-0.1,0.3-0.2c0.2-0.2,0.2-0.5,0.1-0.7c-0.1-0.2-0.2-0.3-0.4-0.4c-0.1,0-0.2-0.1-0.3-0.1c0-0.1-0.1-0.1-0.2-0.1
				c0,0,0,0,0-0.1c0,0-0.1-0.1-0.1-0.1c-0.2,0-0.4,0-0.6-0.1c-0.2-0.1-0.4-0.1-0.6-0.2c-0.2-0.1-0.5-0.2-0.7-0.3
				c-0.2-0.1-0.3-0.3-0.5-0.5c-0.1-0.1,0-0.2-0.1-0.2c-0.2-0.3-0.1-0.7-0.1-1c0.1-0.2,0.2-0.5,0.3-0.7c0.2-0.3,0.5-0.5,0.9-0.7
				c0.1,0,0.1,0.1,0.1,0c0-0.1,0.1-0.1,0.1-0.1c0,0,0.1,0,0.2,0c0.2-0.1,0.3-0.1,0.5-0.1c0.1,0,0.2,0,0.4-0.1c0.1,0,0.3,0,0.4,0
				c0.2,0,0.3,0.1,0.5,0.1c0.2,0,0.3,0,0.5,0.1c0.1,0,0.3,0.1,0.4,0.2c0.1,0.1,0.3,0.1,0.4,0.2c0.1,0,0.2,0.1,0.2,0.1
				c0.1,0.1,0.2,0.2,0.1,0.3c0,0,0,0.2,0,0.2c0.1,0.1,0,0.2,0,0.2c-0.1,0.2-0.2,0.3-0.2,0.4C39.1,20,39.1,20.1,39,20
				c-0.2-0.2-0.5-0.3-0.8-0.5c-0.2-0.1-0.4-0.2-0.7-0.2c-0.1,0-0.2,0-0.3-0.1c0,0-0.1,0-0.1,0c-0.3,0.1-0.6,0.1-0.8,0.2
				c-0.3,0.2-0.5,0.7-0.1,1c0.1,0.1,0.2,0.2,0.4,0.2c0.3,0.1,0.5,0.2,0.8,0.2c0,0,0,0,0.1,0.1c0,0,0,0,0,0c0.1-0.2,0.2,0,0.3,0
				c0.1,0,0.1,0,0.1,0.1c0,0,0,0,0,0c0.1-0.1,0.2,0.1,0.4,0c0.2,0.1,0.4,0.2,0.6,0.3c0.2,0.1,0.4,0.3,0.6,0.5
				c0.1,0.1,0.2,0.3,0.2,0.4c0,0-0.1,0-0.1,0C39.7,22.9,39.7,23.2,39.7,23.7C39.7,23.6,39.7,23.6,39.7,23.7z"/>
			<path class="st3" d="M6.4,21.4c0,0.5-0.2,0.8-0.6,1.1c-0.1,0-0.2,0.1-0.3,0.1c-0.2,0-0.4,0-0.6,0c-0.1,0-0.2-0.1-0.3-0.2
				c-0.3-0.1-0.4-0.3-0.5-0.6c0,0-0.1,0-0.1-0.1C4,21.5,3.9,21.3,4,21c0.1-0.2,0.2-0.4,0.4-0.6c0.2-0.2,0.5-0.3,0.7-0.3
				c0.2,0,0.3,0,0.5,0.1c0.2,0.1,0.5,0.3,0.6,0.5c0,0,0,0,0,0C6.4,21.1,6.4,21.1,6.4,21.4z"/>
			<path class="st3" d="M6.3,11.7c0-0.1,0-0.1,0.1-0.2c0.2-0.1,0.4-0.3,0.7-0.2c0,0,0.1,0,0.1,0c0.2-0.2,0.5-0.1,0.7-0.1
				c0.4,0,0.7,0,1.1,0c0.2,0,0.2-0.1,0.3-0.2c0,0,0-0.1,0-0.1c0,0-0.1,0-0.1,0c-0.2,0-0.5,0-0.7-0.1c-0.6-0.1-1.1-0.1-1.7-0.1
				c-0.2,0-0.5,0-0.7,0.1c-0.1,0.1-0.3,0.1-0.5,0.1c-0.1,0-0.2,0-0.4,0.1C5.2,11,5.2,11,5,11c-0.1,0-0.1,0.2-0.3,0.1c0,0,0,0,0,0.1
				c-0.2,0.2-0.4,0.3-0.5,0.5c0,0,0,0,0,0.1c0,0.1,0,0.2-0.1,0.3c0,0,0,0.1,0,0.1c0,0.1,0.1,0.2,0.1,0.3c0,0.1,0,0.1-0.1,0.1
				c-0.2,0-0.3,0-0.4-0.2c0,0-0.1,0-0.1,0c0,0-0.1,0-0.1,0c0-0.1-0.2-0.1-0.3-0.3c0,0,0,0,0-0.1c0,0,0.1,0,0.1,0
				c0.1,0.2,0.4,0.2,0.6,0.4c0,0,0.1,0,0.1,0c0,0,0-0.1,0-0.1C4,11.9,4,11.9,4.1,11.6c0-0.1,0.2-0.1,0.2-0.2c0-0.1,0.1-0.2,0.2-0.2
				c0.1,0,0.1-0.2,0.3-0.1c0.2-0.2,0.4-0.1,0.6-0.3c0,0,0.1,0,0.2,0c0.2,0,0.3,0,0.4-0.1c0,0,0.1,0,0.2,0c0.9,0,1.7,0,2.6,0
				c0.1,0,0.2,0,0.2,0.1c0.1,0.1,0.2,0.1,0.2,0.1c0.1,0,0.3,0,0.4,0c0.1,0,0.1,0,0.1,0.1c0,0,0,0.1,0,0.1c-0.1,0.1-0.2,0.2-0.4,0.3
				c-0.1,0.1-0.2,0.1-0.2,0.1c-0.5,0-0.9,0-1.4,0c-0.1,0-0.2,0-0.3,0.1c-0.1,0.1-0.2,0.1-0.3,0.1c-0.1,0-0.2,0-0.3,0.1
				c0,0-0.1,0-0.2,0c0,0-0.1,0-0.1,0C6.5,11.8,6.4,11.7,6.3,11.7z"/>
			<path class="st3" d="M3.9,9c0,0,0,0.1,0,0.1C3.8,9.2,3.6,9.3,3.5,9.3c-0.2,0-0.4,0.1-0.6,0.2C2.6,9.5,2.4,9.7,2.2,9.9
				c0,0,0,0,0,0.1c-0.1,0.2-0.2,0.3-0.3,0.3c-0.1,0-0.2,0.2-0.3,0.2c-0.2,0.1-0.2,0.2-0.3,0.3c0,0.1-0.1,0.2-0.1,0.3
				c0,0.1,0,0.2,0,0.3c0,0.1,0,0.1,0,0.2c0,0.2,0,0.4,0,0.5c0.1,0.2,0.2,0.4,0.3,0.6c0.1,0.1,0.2,0.2,0.2,0.2
				C1.7,13,1.8,13,1.8,13.1c0.1,0.1,0.3,0.1,0.2,0.3c-0.2,0-0.3-0.1-0.4-0.2c-0.2-0.2-0.4-0.4-0.6-0.6c0-0.2-0.2-0.3-0.2-0.5
				c0,0,0-0.1,0-0.1c-0.2-0.3-0.1-0.6,0-0.9c0,0,0-0.1,0-0.1c0-0.1,0.1-0.2,0.1-0.3c0-0.1,0.1-0.2,0.2-0.3c0.3-0.3,0.5-0.5,0.8-0.7
				c0.1-0.1,0.2,0,0.3-0.1c0.1-0.1,0.1-0.1,0.2-0.1c0,0,0.1,0,0.1-0.1C2.8,9.3,2.9,9.3,3,9.3c0.1,0,0.1,0,0.2-0.1c0,0,0.1,0,0.1,0
				c0.1,0,0.3,0,0.4-0.1C3.7,9,3.8,9,3.9,9z"/>
			<path class="st3" d="M8.3,18.2c0,0-0.1,0-0.1,0C8.1,18,8,17.8,7.9,17.7c-0.1-0.1-0.2-0.3-0.4-0.4C7.2,17,7,16.8,6.7,16.7
				c-0.1-0.1-0.2-0.1-0.3-0.1c-0.1,0-0.2-0.1-0.3-0.1c-0.2-0.1-0.3-0.1-0.5-0.2c0,0-0.1,0-0.1,0c-0.1-0.1-0.1-0.1-0.2-0.1
				c-0.1,0-0.2,0-0.2-0.1c-0.1,0-0.3-0.1-0.4-0.1c-0.1,0-0.2-0.1-0.3-0.1c0,0-0.1,0-0.1,0c-0.1-0.1-0.2-0.1-0.4-0.1
				c-0.1,0-0.2-0.1-0.3-0.1c-0.1,0-0.2,0-0.3,0c-0.2-0.1-0.4-0.2-0.7-0.2c0,0-0.1,0-0.1,0c-0.1-0.1-0.3-0.2-0.4-0.2c0,0,0-0.1,0-0.1
				c0,0,0.1,0,0.1,0c0.1,0.1,0.3,0.1,0.4,0.2c0.1,0.1,0.2,0,0.3,0.1c0.1,0.1,0.2,0.1,0.3,0.1c0,0,0.1,0,0.1,0.1
				c0.1,0.1,0.3,0.1,0.5,0.1c0,0,0.1,0,0.1,0c0.1,0.2,0.3,0.1,0.4,0.1c0.1,0,0.2,0.1,0.3,0.1c0.1,0,0.2,0,0.3,0
				c0.1,0.1,0.2,0.1,0.4,0.2c0.1,0,0.2,0.2,0.4,0.1c0.1,0.1,0.3,0.1,0.4,0.2c0,0,0,0,0,0c0.2,0,0.4,0.2,0.5,0.2c0.1,0,0.1,0,0.2,0.1
				c0,0,0,0.1,0.1,0.1c0.1,0,0.1,0.1,0.2,0.1c0.2,0.1,0.3,0.2,0.5,0.3c0.1,0.1,0.3,0.2,0.4,0.4c0,0,0.1,0,0.1,0
				C8,17.8,8.3,17.9,8.3,18.2z"/>
			<path class="st3" d="M3.4,18.7c0,0.2,0,0.2-0.1,0.2c-0.2,0-0.3,0.2-0.5,0.3c-0.2,0.1-0.4,0.3-0.6,0.5c0,0-0.1,0.1-0.1,0.1
				c-0.2,0.2-0.3,0.4-0.4,0.6c-0.1,0.2-0.2,0.3-0.2,0.5c0,0,0,0.1,0,0.1c-0.2,0.3-0.1,0.6-0.1,0.8c0,0.1,0,0.2,0,0.3
				c0,0.1,0,0.2,0.1,0.2c0,0,0,0,0,0.1c0,0.1-0.1,0.2,0.1,0.3c0.1,0.1,0,0.2,0.2,0.3c0,0.2,0.2,0.3,0.3,0.5c0,0.1,0.1,0.2,0.1,0.3
				c-0.1,0-0.2-0.1-0.2-0.2c-0.1-0.1-0.1-0.3-0.2-0.4c0-0.1-0.1-0.1-0.1-0.2c0-0.1-0.1-0.2-0.2-0.3c-0.1-0.3-0.2-0.6-0.1-0.8
				c0-0.1,0-0.2,0-0.2c0-0.3,0-0.6,0.2-0.9c0-0.1,0-0.2,0-0.2c0.1,0,0.1-0.1,0.1-0.2c0-0.1,0.2-0.1,0.1-0.3c0,0,0,0,0,0
				c0.2-0.2,0.5-0.5,0.7-0.7c0.1-0.1,0.2-0.1,0.3-0.2c0.1-0.1,0.2-0.2,0.3-0.1c0,0,0.1,0,0.1-0.1C3.2,18.7,3.3,18.7,3.4,18.7z"/>
			<path class="st3" d="M7.8,24.3C7.9,24.2,8,24.1,8.2,24c0.2-0.1,0.3-0.2,0.4-0.4c0.2-0.2,0.4-0.4,0.6-0.7c0.1-0.2,0.3-0.3,0.3-0.5
				c0,0,0,0,0.1,0c0,0,0.1-0.1,0.1-0.1c0-0.3,0.3-0.4,0.3-0.7c0.2-0.1,0.1-0.3,0.2-0.4c0,0,0-0.1,0-0.1c0-0.1,0-0.2,0.1-0.3
				c0.1-0.2,0.1-0.4,0.2-0.5c0-0.3,0.1-0.5,0.2-0.8c0-0.1-0.1-0.2,0.1-0.2c0,0.2,0,0.3,0,0.5c0,0.1,0,0.2-0.1,0.3
				c0,0-0.1,0.1-0.1,0.1c0,0.2-0.1,0.4-0.1,0.6c-0.1,0.1,0,0.2-0.1,0.3c-0.1,0.1,0,0.2-0.1,0.3c-0.1,0.1-0.1,0.3-0.2,0.4
				c-0.1,0.2-0.3,0.4-0.4,0.7c0,0.1-0.1,0.1-0.1,0.2c-0.1,0.1-0.1,0.3-0.3,0.5c-0.1,0.1-0.2,0.3-0.3,0.4c-0.1,0.1-0.3,0.2-0.4,0.4
				c-0.1,0.2-0.3,0.3-0.5,0.4C8,24.3,7.9,24.3,7.8,24.3z"/>
			<path class="st3" d="M2.1,13.4c0.1,0,0.1,0,0.2,0c0.1,0.1,0.3,0.2,0.4,0.2c0.1,0.1,0.2,0.2,0.4,0.2C3.1,14,3.3,13.9,3.4,14
				c0.1,0.1,0.2,0.1,0.4,0.1c0.1,0,0.1,0.1,0.3,0.1c0.1,0,0.2,0.1,0.3,0.1c0.1,0,0.2,0.1,0.3,0.2c0.1,0.1,0.2,0.1,0.4,0.1
				c0.2,0,0.3,0.2,0.5,0.2c0.1,0.1,0.3,0.1,0.4,0.2c0.2,0,0.3,0.1,0.4,0.1c0.1,0,0.2,0.1,0.3,0.1c0.1,0.1,0.2,0.2,0.3,0.2
				c0.1,0,0.1,0.2,0.2,0.1c0.2,0.1,0.3,0.2,0.5,0.4c0,0,0,0.1,0,0.1c0,0-0.1,0-0.1,0c0-0.1-0.1-0.1-0.1-0.1
				c-0.1-0.1-0.3-0.1-0.4-0.3c-0.1-0.1-0.3-0.2-0.4-0.3c-0.1,0-0.2-0.2-0.3-0.1c-0.1,0-0.2-0.1-0.3-0.1c-0.2,0-0.3-0.2-0.5-0.2
				c-0.1,0-0.1-0.2-0.2-0.1c-0.1,0-0.2-0.1-0.2-0.1c-0.2,0-0.3-0.1-0.4-0.2c-0.1,0-0.2,0-0.3-0.1c-0.1-0.1-0.2,0-0.3-0.1
				c0,0-0.1,0-0.1,0c-0.1,0-0.1,0-0.2-0.1c0,0-0.1-0.1-0.1-0.1c-0.1,0-0.2-0.1-0.3-0.1c-0.1,0-0.2-0.1-0.3-0.2
				c-0.2-0.1-0.4-0.2-0.6-0.3C2.2,13.6,2.2,13.5,2.1,13.4z"/>
			<path class="st3" d="M1.1,16.3c0.1,0,0.1,0,0.2,0.1c0.3,0.2,0.5,0.4,0.9,0.5C2.4,17,2.6,17,2.8,17.1c0.3,0,0.5,0.2,0.8,0.1
				c0.1,0,0.3,0,0.4,0.1c0.1,0.1,0.2,0,0.3,0c0.2,0,0.4,0,0.6,0.1c0.1,0.1,0.2,0.1,0.3,0.1c0.1,0,0.2,0.2,0.3,0.1
				c0.1,0.1,0.3,0.2,0.4,0.2c0.2,0.1,0.3,0.2,0.5,0.4c0,0,0,0.1,0,0.1c0,0-0.1,0-0.1,0c-0.1-0.1-0.2-0.2-0.3-0.2
				c-0.1-0.1-0.2-0.1-0.3-0.2c-0.1-0.1-0.2-0.1-0.3-0.2c0,0-0.1,0-0.1,0c0,0-0.1,0-0.1,0c-0.1-0.1-0.2-0.1-0.4-0.1c0,0-0.1,0-0.1,0
				c-0.1-0.1-0.3-0.1-0.4-0.1c-0.2,0-0.4,0-0.6-0.1c0,0-0.1,0-0.1,0c-0.2,0-0.5,0-0.7-0.2c0,0-0.1,0-0.2,0c-0.1,0-0.1,0-0.2-0.1
				C2.5,17,2.4,17,2.4,17c-0.1,0-0.2,0-0.2-0.1c0,0,0,0,0,0c-0.2,0-0.4-0.2-0.6-0.3c-0.2-0.1-0.3-0.2-0.5-0.3
				C1.1,16.4,1.1,16.3,1.1,16.3z"/>
			<path class="st3" d="M2.6,24.3c0,0,0.1,0,0.1,0c0.2,0.1,0.4,0.2,0.5,0.3c0.2,0.1,0.4,0.2,0.6,0.3C4,24.9,4.2,25,4.3,25
				c0.2,0,0.3,0,0.5,0c0.1,0,0.2,0,0.2,0.1c0.1,0,0.2,0,0.3,0C5.6,25,5.9,25,6.2,25c0.1,0,0.2-0.1,0.3-0.1c0.1,0,0.2,0,0.3,0
				c0.2-0.1,0.4-0.2,0.5-0.3c0.2-0.1,0.4-0.2,0.6-0.2c-0.2,0.2-0.3,0.3-0.6,0.4c-0.1,0,0,0.1-0.1,0.1c-0.1,0-0.1,0-0.2,0
				C6.8,24.9,6.7,25,6.5,25c-0.2,0.2-0.5,0.1-0.7,0.1c-0.3,0.1-0.6,0.1-0.8,0.1c-0.3,0-0.5-0.1-0.8-0.1C4,25,3.7,25,3.5,24.9
				c0,0-0.1,0-0.1,0c-0.1,0-0.2,0-0.1-0.1c0,0-0.1,0-0.1,0c-0.1,0-0.2,0-0.2-0.1c-0.1,0-0.2,0-0.2-0.1C2.8,24.4,2.7,24.4,2.6,24.3
				C2.6,24.3,2.6,24.3,2.6,24.3z"/>
			<path class="st3" d="M7.5,20.3c0.1,0.1,0.2,0.2,0.2,0.3c0,0.1,0,0.3,0,0.4c0,0.1,0.1,0.2,0.1,0.4c0,0.1-0.1,0.4-0.2,0.5
				c0,0,0,0.1,0,0.1c0,0.4-0.2,0.6-0.4,0.9c-0.1,0.1-0.3,0.2-0.4,0.3c-0.1,0-0.1,0.1-0.2,0.1c-0.1,0-0.2,0.2-0.3,0.2
				c-0.1,0-0.2,0.1-0.3,0.1c0,0-0.1,0-0.1,0c-0.1,0.2-0.3,0.1-0.5,0.1c0,0,0,0,0,0c0.2,0,0.3-0.1,0.5-0.1c0.3,0,0.4-0.3,0.7-0.3
				c0-0.1,0.1-0.1,0.2-0.2c0.1-0.1,0.2-0.2,0.3-0.3c0.2-0.1,0.3-0.4,0.4-0.6c0-0.1,0-0.2,0.1-0.2c0,0,0,0,0,0c0-0.3,0.1-0.6,0.1-0.9
				C7.5,20.7,7.6,20.5,7.5,20.3z"/>
			<path class="st3" d="M4.5,9.9c0,0,0-0.1,0-0.1c0.1,0,0.2,0,0.3-0.1c0.4-0.1,0.9,0,1.3-0.1c0.4,0,0.8,0,1.3,0c0.3,0,0.5,0,0.8,0.1
				c0.2,0,0.3,0,0.5,0.1c0.1,0.1,0.3,0,0.4,0.1c0.1,0,0.2,0,0.3,0.1c0,0,0,0.1,0,0.1c-0.2,0-0.4,0-0.6-0.1c0,0-0.1,0-0.2,0
				c-0.1,0-0.3,0-0.4,0c-0.2,0-0.5,0-0.7-0.1c-0.1,0-0.1,0-0.2,0c-0.7,0-1.3,0-2,0c-0.1,0-0.2,0-0.3,0.1C4.9,9.9,4.7,9.9,4.5,9.9z"
				/>
			<path class="st3" d="M9.5,10.1c0.1-0.1,0.3-0.1,0.4,0c0.1,0.1,0.1,0.1,0.2,0.1c0.1,0,0.1,0,0.2,0c0.2,0.1,0.3,0,0.5-0.1
				c0,0,0.1-0.1,0.1-0.1c0,0-0.1,0-0.1,0c-0.3-0.2-0.7-0.3-1-0.4c-0.1,0-0.2-0.1-0.3-0.1C9.2,9.4,9.2,9.4,9,9.4
				C9,9.4,8.9,9.3,8.8,9.3c0,0-0.1,0-0.1,0C8.4,9.3,8.2,9.2,8,9.1c0,0,0,0,0-0.1C8,9,8.1,9,8.2,9c0,0,0.1,0,0.1,0
				c0.1,0.2,0.3,0.1,0.4,0.1c0,0,0.1,0,0.1,0C9,9.3,9.2,9.3,9.4,9.3c0,0,0.1,0,0.1,0.1c0,0,0.1,0.1,0.2,0.1c0.1,0,0.2,0,0.2,0.1
				c0,0,0.1,0,0.1,0c0.1,0,0.2,0,0.2,0.1c0,0,0,0,0,0c0.2,0,0.3,0.1,0.5,0.2c0.1,0.1,0.1,0.1,0.1,0.2c0,0-0.1,0.1-0.2,0.1
				c-0.1,0-0.2,0.1-0.2,0.1c-0.1,0.1-0.2,0.1-0.2,0c-0.1-0.1-0.3-0.1-0.5-0.2C9.7,10.1,9.6,10.2,9.5,10.1z"/>
			<path class="st3" d="M10.6,18.5c0,0-0.1,0-0.1,0c0-0.1,0-0.2,0-0.2c0-0.2-0.1-0.5-0.1-0.7c0-0.2,0-0.4-0.1-0.6
				c0-0.2-0.1-0.3-0.2-0.4c0-0.2-0.2-0.3-0.3-0.5c-0.3-0.4-0.7-0.8-1-1.2c0,0-0.1-0.1-0.2-0.1c-0.1,0-0.1-0.1-0.1-0.2
				c0.2,0,0.3,0.1,0.4,0.2C9,14.9,9.2,15,9.3,15.1c0.1,0.1,0.2,0.2,0.3,0.3c0.2,0.2,0.3,0.5,0.5,0.7c0,0.1-0.1,0.2,0.1,0.2
				c0.1,0,0,0.1,0,0.2c0.2,0.1,0.1,0.4,0.3,0.6c0,0,0,0.1,0,0.1c0,0.1,0,0.3,0.1,0.4c0.1,0.1,0.1,0.2,0.1,0.4
				C10.6,18.1,10.6,18.3,10.6,18.5z"/>
			<path class="st3" d="M0.7,14.1c-0.2-0.1-0.4-0.2-0.4-0.5c0,0,0-0.1-0.1-0.1c0,0,0,0,0,0c0,0-0.1,0-0.1,0c0,0,0,0.1,0,0.1
				c0,0.2,0,0.5,0.1,0.7c0,0.2,0,0.3,0.1,0.5c0,0,0,0.1,0.1,0.1c0,0,0,0.1,0.1,0.1c0,0.1-0.1,0.2,0.1,0.2c0,0,0,0.1,0,0.1
				c0,0.1,0,0.1,0.1,0.2c0.2,0.2,0.4,0.4,0.5,0.7c0,0,0,0.1,0,0.1c0,0-0.1,0-0.1,0c-0.2-0.2-0.3-0.4-0.4-0.5
				c-0.1-0.1-0.1-0.2-0.1-0.3c-0.1-0.1-0.1-0.2-0.1-0.3c-0.1-0.1-0.1-0.3-0.1-0.4c-0.2-0.4-0.1-0.8-0.1-1.3c0,0,0-0.1,0-0.1
				c0-0.1,0-0.1,0.1-0.1c0,0,0.1,0,0.2,0c0,0,0.1,0.1,0.1,0.1c-0.1,0.2,0.1,0.2,0.1,0.4C0.5,13.8,0.7,13.9,0.7,14.1
				C0.8,14,0.7,14,0.7,14.1z"/>
			<path class="st3" d="M8.3,16.9c0.1,0,0.3,0,0.2,0.2c0,0.1,0.1,0.1,0.1,0.2c0.1,0.2,0.2,0.4,0.3,0.6c0,0,0.1,0,0.1,0.1
				c0,0.3,0.2,0.6,0.1,0.9c0,0.1,0,0.1,0,0.2c0,0.1,0,0.3-0.1,0.4c-0.1,0.1-0.1,0.2-0.2,0.1c-0.1,0-0.2-0.1-0.2-0.2
				c0-0.1,0-0.1,0-0.2c0-0.1,0-0.1-0.1-0.1c0,0,0-0.1,0-0.1c0-0.1,0-0.2-0.1-0.3c-0.1-0.1-0.1-0.3-0.1-0.4c0.1,0,0.1,0,0.1,0.1
				c0,0.1-0.1,0.2,0.1,0.2c0,0,0,0,0,0.1c0,0.1,0,0.2,0.1,0.3c0,0,0,0.1,0,0.1c0,0.1,0,0.2,0.1,0.3c0,0.1,0,0.2,0.1,0.2
				c0.1,0,0.1-0.1,0.1-0.2c0.1-0.5,0.1-0.4-0.1-1c0-0.1,0-0.2-0.1-0.3c0,0,0,0,0-0.1c-0.1-0.3-0.1-0.5-0.3-0.7
				C8.4,17.1,8.3,17,8.3,16.9z"/>
			<path class="st3" d="M33.3,24.6c-0.2,0-0.2,0-0.2-0.1c0-1.4,0-2.8,0-4.1c0-0.1,0-0.1,0.1-0.2c0.1,0,0.1,0.1,0.1,0.1
				c0,0.5,0,1,0,1.5c0,0.7,0,1.3,0,2C33.2,24,33.3,24.3,33.3,24.6z"/>
			<path class="st3" d="M20.6,18.8C20.6,18.8,20.6,18.8,20.6,18.8c0.1,1.9,0.1,3.9,0.1,5.8c0,0.1,0,0.2,0,0.2c0,0,0,0,0.1,0
				c0.4,0,0.8,0,1.2,0c0,0,0,0,0.1,0.1c0,0,0,0,0,0.1c-0.5,0-0.9,0-1.4,0C20.6,22.9,20.6,20.9,20.6,18.8z"/>
			<path class="st3" d="M8.6,14.6c-0.1,0-0.2-0.1-0.3-0.2C8,14.3,7.8,14.1,7.5,14c-0.1-0.2-0.3-0.2-0.4-0.3
				c-0.3-0.1-0.6-0.3-0.9-0.5c-0.3-0.2-0.5-0.6-0.5-0.9c0-0.1,0.1-0.2,0.2-0.2c0,0.1,0,0.2,0,0.2c0,0.3,0.1,0.5,0.3,0.6
				c0.1,0.1,0.3,0.2,0.4,0.3c0.1,0.1,0.1,0.1,0.2,0.1c0.1,0,0.1,0.1,0.2,0.1c0,0,0.1,0.1,0.1,0.1c0.1,0.1,0.3,0.1,0.4,0.2
				C7.6,13.9,7.7,14,7.8,14C8.1,14.1,8.3,14.4,8.6,14.6C8.6,14.5,8.6,14.6,8.6,14.6z"/>
			<path class="st3" d="M7,8.9C7,9,6.9,9,6.9,9C6.2,9,5.5,9,4.8,9C4.7,9,4.5,9,4.4,9C4.3,9.1,4.2,9.1,4.1,9c0-0.1,0.1-0.1,0.1-0.1
				c0,0,0.1,0,0.1,0c0.2,0,0.3,0,0.5-0.1c0.1-0.1,0.3,0,0.5-0.1c0.2-0.1,0.4,0,0.6,0c0.2,0,0.4-0.1,0.6,0.1c0,0,0.1,0,0.1,0
				c0.1,0,0.2,0,0.2,0C6.9,8.9,6.9,8.9,7,8.9z"/>
			<path class="st3" d="M25.3,24.9c0-0.1,0.1-0.1,0.1-0.1c0.3,0,0.6,0,0.9,0c0,0,0,0,0,0.1c0,0,0,0,0,0c0-0.1,0-0.2,0-0.2
				c0-1.5,0-2.9,0-4.4c0.1,0,0.1,0.1,0.1,0.1c0,0.3,0,0.6,0,0.9c0,1.2,0,2.4,0,3.5c0,0.1,0,0.2-0.1,0.2c-0.3,0-0.6,0-0.8,0
				C25.4,25,25.3,25,25.3,24.9z"/>
			<path class="st3" d="M20.6,18.8c0,2.1,0,4.1,0,6.2c0,0-0.1,0-0.1,0c0-0.1,0-0.2,0-0.2c0-1.8,0-3.7,0-5.5
				C20.5,19.1,20.5,19,20.6,18.8C20.5,18.9,20.6,18.8,20.6,18.8z"/>
			<path class="st3" d="M4.9,19.2C4.9,19.2,4.9,19.2,4.9,19.2c0.1-0.1,0.2,0,0.2-0.1C5.1,19.1,5,19,5,19c-0.3-0.1-0.5-0.2-0.8-0.2
				c-0.2,0-0.4,0-0.6,0c0,0-0.1,0-0.1-0.1c0.3-0.2,0.6-0.2,0.9-0.1c0.1,0,0.2,0.1,0.2,0.1c0.1,0,0.2,0,0.2,0.1c0,0,0.1,0,0.2,0.1
				c0.1,0,0.2,0.1,0.3,0.2c0,0.1,0.1,0.2,0,0.2c-0.1,0-0.2,0-0.3,0C5,19.4,5,19.3,4.9,19.2z"/>
			<path class="st3" d="M3.1,22.6c-0.2,0-0.2-0.1-0.2-0.2c0,0,0-0.1,0-0.1c-0.2-0.4-0.1-0.8-0.1-1.1c0-0.1,0.1-0.3,0.1-0.4
				c0-0.1,0-0.2,0.1-0.2c0-0.1,0.1-0.1,0.1-0.2c0-0.1,0.1,0,0.2,0c0,0.1-0.1,0.1-0.1,0.2c0,0.1,0,0.1-0.1,0.2c0,0-0.1,0-0.1,0.1
				c0,0.2-0.1,0.4-0.1,0.6c0,0.2,0,0.4,0,0.6c0,0.1,0,0.2,0.1,0.2c0.1,0.1,0,0.2,0.1,0.3C3.1,22.4,3.1,22.5,3.1,22.6z"/>
			<path class="st3" d="M37.8,23.9c-0.1,0.2-0.3,0.3-0.5,0.2c-0.3,0-0.5,0-0.8,0c-0.1,0-0.2,0-0.3-0.1C36.1,24,36,24,35.9,24
				c-0.1-0.1-0.2-0.1-0.3-0.1c-0.2,0,0-0.1,0-0.1c0.1,0,0.2,0,0.3,0.1c0.4,0.2,0.9,0.2,1.4,0.2C37.5,24,37.6,23.9,37.8,23.9z"/>
			<path class="st3" d="M26.4,20.3c0,1.5,0,2.9,0,4.4c0,0.1,0,0.2,0,0.2c0,0,0,0,0,0c0,0,0,0,0-0.1c0-1.5,0-2.9,0-4.4
				C26.3,20.4,26.3,20.3,26.4,20.3C26.4,20.3,26.4,20.3,26.4,20.3z"/>
			<path class="st3" d="M4.7,23.7c-0.1,0.1-0.2,0.1-0.2,0c-0.2-0.1-0.4-0.2-0.5-0.2c-0.1,0-0.1-0.1-0.2-0.1
				c-0.2-0.2-0.5-0.4-0.6-0.7c0,0,0-0.1,0-0.1c0,0,0.1,0,0.1,0c0.1,0.2,0.3,0.4,0.5,0.5c0,0.1,0.1,0.1,0.2,0.1
				c0,0.2,0.1,0.1,0.2,0.1c0.1,0.1,0.2,0.1,0.3,0.1C4.5,23.5,4.6,23.6,4.7,23.7C4.7,23.6,4.7,23.6,4.7,23.7z"/>
			<path class="st3" d="M29.1,25.1C29.1,25,29.1,25,29.1,25.1c0.2,0,0.4-0.1,0.5,0c0.1,0,0.2,0,0.2,0c0.2-0.1,0.4,0,0.6-0.1
				c0.1,0,0.2,0,0.1-0.1c0.1,0,0.2-0.1,0.3,0c0,0.1-0.1,0.1-0.1,0.1c0,0,0,0,0-0.1c0,0,0,0,0,0.1c0,0.1-0.2,0-0.2,0.1
				c-0.3,0-0.7,0.1-1,0.1C29.4,25.2,29.2,25.1,29.1,25.1C29.1,25.1,29.1,25.1,29.1,25.1z"/>
			<path class="st3" d="M31.5,19.7c0.1,0,0.1-0.1,0.2,0c0.1,0.1,0.1,0.3,0.2,0.4c0.1,0.1,0,0.2,0,0.3c0,0.3,0,0.5,0,0.8
				c0,0.1,0,0.1-0.2,0c0,0,0.1-0.1,0.1-0.1c0-0.3,0-0.5,0-0.8c0-0.2-0.1-0.4-0.2-0.5C31.5,19.8,31.5,19.8,31.5,19.7z"/>
			<path class="st3" d="M17.6,21.2c0,0.1-0.1,0-0.2,0.1c0,0-0.1,0-0.1,0c0,0,0-0.1,0-0.1c0,0,0.1,0,0.1,0c0,0,0.1,0.1,0.1,0
				c0-0.3,0-0.5,0-0.8c0-0.1,0-0.3-0.1-0.5c0,0,0-0.1,0-0.1c0,0.1,0.1-0.2,0.1,0c0,0.2,0.1,0.3,0.2,0.5
				C17.6,20.6,17.6,20.9,17.6,21.2z"/>
			<path class="st3" d="M3.2,12c-0.1,0-0.2,0-0.2-0.1c-0.1-0.1-0.2-0.3-0.3-0.4c0,0,0-0.1,0-0.1c0-0.1,0-0.2,0-0.3
				c0-0.1,0-0.2,0.1-0.3c0,0,0.1-0.1,0.1-0.2c0-0.1,0.1-0.1,0.2-0.1c0,0,0,0.1,0,0.1c-0.1,0.2-0.3,0.4-0.2,0.6
				C3,11.5,3,11.8,3.2,11.9C3.2,11.9,3.2,12,3.2,12z"/>
			<path class="st3" d="M39.7,23.7C39.7,23.6,39.7,23.6,39.7,23.7c-0.1-0.4-0.1-0.8-0.1-1.2c0,0,0,0,0.1,0c0,0,0,0,0,0
				c0.1,0.3,0.2,0.7,0,1C39.8,23.5,39.9,23.6,39.7,23.7z"/>
			<path class="st3" d="M2,14.9c-0.2,0-0.4-0.1-0.6-0.2c-0.1-0.1-0.1-0.2-0.2-0.2c0-0.1-0.1-0.1-0.2-0.2c0-0.1-0.1-0.1-0.1-0.2
				c0,0,0.1,0,0.1,0c0.2,0.2,0.5,0.3,0.7,0.5c0.1,0.1,0.2,0.1,0.3,0.1C2,14.8,2,14.9,2,14.9z"/>
			<path class="st3" d="M20.6,18.8C20.6,18.8,20.5,18.9,20.6,18.8c-0.1,0.2-0.1,0.3-0.1,0.4c0,0-0.1,0-0.1-0.1c0-0.1,0-0.3,0-0.4
				c0,0,0.1,0,0.1-0.1c0-0.1,0-0.2,0-0.2c0,0,0-0.1,0-0.1c0.3,0,0.7,0,1,0c0,0,0,0,0,0.1c0,0,0,0,0,0.1c-0.1,0-0.2,0-0.3,0
				c-0.2,0-0.4,0-0.6,0c-0.1,0-0.1,0.1-0.1,0.1C20.6,18.6,20.6,18.7,20.6,18.8z"/>
			<path class="st3" d="M7,19c0.1,0,0.2,0,0.2,0.1c0,0.1,0.2,0.2,0.1,0.3c0.1,0.1,0.1,0.3,0.2,0.4c0.1,0.1,0.1,0.2,0,0.2
				c-0.1,0-0.1-0.1-0.1-0.2c0-0.1,0-0.2-0.1-0.2c-0.1-0.1-0.1-0.1-0.1-0.2c0,0-0.2-0.3-0.2-0.4C7,19.1,7,19,7,19z"/>
			<path class="st3" d="M3.2,10.5C3.2,10.5,3.2,10.4,3.2,10.5c0.1-0.2,0.2-0.3,0.4-0.4C3.7,10.2,3.8,10,3.9,10c0.1,0,0.2,0,0.3-0.1
				c0.1,0,0.1-0.1,0.2,0c0,0.1-0.1,0.1-0.1,0.1c-0.1,0-0.2,0-0.3,0.1c-0.1,0.1-0.3,0.2-0.4,0.2C3.4,10.4,3.4,10.5,3.2,10.5z"/>
			<path class="st3" d="M7.5,16.1c0.1,0,0.2,0.1,0.3,0.1c0.1,0.1,0.2,0.3,0.4,0.4c0.1,0.1,0.1,0.2,0.1,0.3c-0.2-0.1-0.2-0.3-0.4-0.3
				c-0.1,0-0.1-0.1-0.2-0.2C7.7,16.3,7.6,16.2,7.5,16.1C7.5,16.1,7.5,16.1,7.5,16.1z"/>
			<path class="st3" d="M6.4,18.4c0.1,0,0.2,0,0.2,0.1C6.8,18.6,7,18.7,7,18.9c-0.1,0-0.2-0.1-0.2-0.2c-0.1-0.1-0.2-0.2-0.3-0.3
				C6.5,18.5,6.5,18.4,6.4,18.4z"/>
			<path class="st3" d="M7.8,9c-0.1,0.1-0.2,0-0.3,0.1C7.4,9.1,7.3,9,7.3,9c0,0,0-0.1,0-0.1C7.4,8.9,7.6,8.9,7.8,9
				C7.8,9,7.8,9,7.8,9z"/>
			<path class="st3" d="M3.7,19.7c0-0.1,0.1-0.2,0.2-0.2c0.1,0,0.2,0,0.2-0.1c0,0,0.1,0,0.1,0c0,0,0,0.1-0.1,0.1
				C4,19.5,3.8,19.6,3.7,19.7z"/>
			<path class="st3" d="M5.8,12.1c0-0.2,0.2-0.4,0.4-0.4c0,0,0,0.1,0,0.1C6.1,11.9,6,12,5.8,12.1C5.9,12.1,5.9,12.1,5.8,12.1z"/>
			<path class="st3" d="M2.1,23.7c0.2,0.1,0.4,0.2,0.4,0.4c-0.1-0.1-0.2-0.2-0.3-0.3C2.1,23.8,2.1,23.8,2.1,23.7z"/>
			<path class="st3" d="M4.3,19.4C4.3,19.3,4.3,19.3,4.3,19.4c0.1-0.1,0.3-0.2,0.4-0.2c0,0,0,0,0,0C4.6,19.4,4.5,19.3,4.3,19.4z"/>
			<path class="st3" d="M31.7,21.2c-0.1,0-0.3,0-0.4-0.1c0,0,0-0.1,0-0.1c0.1,0,0.3,0.1,0.4,0.1C31.6,21.1,31.6,21.2,31.7,21.2z"/>
			<path class="st3" d="M31.2,21.1C31.2,21.1,31.1,21.1,31.2,21.1C31,21.1,31,21.1,31,21C31.1,21,31.1,20.9,31.2,21.1z"/>
			<path class="st3" d="M20.5,18.4c0,0.1,0,0.2,0,0.2c0,0,0,0-0.1,0.1C20.5,18.6,20.5,18.5,20.5,18.4C20.5,18.4,20.5,18.4,20.5,18.4
				z"/>
			<path class="st3" d="M3.4,19.9c0-0.1,0-0.1,0.1-0.1C3.6,19.9,3.5,19.9,3.4,19.9z"/>
			<path class="st3" d="M3.5,19.8c0-0.1,0-0.1,0.1-0.1C3.7,19.8,3.6,19.8,3.5,19.8z"/>
			<path class="st3" d="M5.1,23.7c-0.1,0.1-0.2,0.1-0.2,0C5,23.7,5,23.7,5.1,23.7z"/>
			<path class="st3" d="M2.5,24.2c0.1,0,0.1,0,0.1,0.1C2.5,24.3,2.5,24.3,2.5,24.2z"/>
			<path class="st3" d="M3.1,10.6c0-0.1,0-0.1,0.1-0.1C3.2,10.6,3.2,10.6,3.1,10.6z"/>
			<path class="st3" d="M0.9,14.2c0,0-0.1,0-0.1-0.1C0.8,14.1,0.9,14.1,0.9,14.2z"/>
			<path class="st3" d="M26.4,20.2C26.4,20.2,26.4,20.2,26.4,20.2C26.4,20.2,26.4,20.2,26.4,20.2C26.4,20.2,26.4,20.2,26.4,20.2z"/>
			<path class="st3" d="M3.3,20C3.3,20,3.3,20,3.3,20C3.3,20,3.3,20,3.3,20z"/>
			<path class="st3" d="M37.9,23.8C37.8,23.9,37.8,23.9,37.9,23.8C37.8,23.9,37.8,23.9,37.9,23.8z"/>
			<path class="st3" d="M30.8,25C30.8,25,30.8,25,30.8,25C30.8,25,30.8,25,30.8,25C30.8,25,30.8,25,30.8,25z"/>
			<path class="st3" d="M18.9,22.5c0-0.6,0-1.2,0-1.9c0-0.1,0-0.1,0-0.2c0,0,0,0,0,0c0,0,0,0,0,0c0,0,0,0.1,0,0.1c0,1.3,0,2.6,0,3.9
				c0,0,0,0.1,0,0.1c0,0,0,0,0,0c0,0,0,0,0,0c0-0.1,0-0.1,0-0.2C18.9,23.7,18.9,23.1,18.9,22.5z"/>
			<path class="st3" d="M17.6,21.2c0-0.3,0-0.6,0-0.9c0,0,0.1,0,0.1,0c0,0.3,0,0.5,0,0.8C17.7,21.2,17.7,21.2,17.6,21.2z"/>
			<path class="st3" d="M20.7,24.9C20.7,24.9,20.7,24.8,20.7,24.9c-0.1-0.1-0.1-0.2-0.1-0.3c0-1.9,0-3.9,0-5.8c0,0,0.1,0,0.1,0
				c0,0.1,0,0.2,0,0.3C20.7,21,20.7,23,20.7,24.9z"/>
			<path class="st3" d="M22,24.9C22,24.9,22,24.9,22,24.9c-0.1-1.3-0.1-2.6-0.1-3.8c0-0.1,0-0.2,0-0.2c0,0,0,0,0,0c0,0,0,0,0,0
				c0,0.1,0,0.2,0,0.2C22,22.4,22,23.7,22,24.9z"/>
			<path class="st3" d="M25,24.5c-0.1,0-0.1-0.1-0.1-0.1c0-0.6,0-1.1,0-1.7c0-0.7,0-1.3,0-2c0,0,0-0.1,0-0.1c0,0,0,0.1,0,0.1
				C25,22,25,23.2,25,24.5z"/>
			<path class="st3" d="M25,24.5c0-1.3,0-2.6,0-3.8c0.1,0,0.1,0.1,0.1,0.1c0,0.6,0,1.1,0,1.7c0,0.6,0,1.3,0,1.9
				C25.1,24.4,25.1,24.5,25,24.5z"/>
			<path class="st3" d="M20.6,18.6c0-0.1,0-0.1,0.1-0.1c0.2,0,0.4,0,0.6,0c0.1,0,0.2,0,0.3,0c-0.1,0.1-0.2,0.1-0.3,0.1
				C21.1,18.6,20.9,18.6,20.6,18.6z"/>
		</g>
	</g>
</g>
</svg>
