<?xml version="1.0" encoding="utf-8"?>
<!-- Generator: Adobe Illustrator 22.0.0, SVG Export Plug-In . SVG Version: 6.00 Build 0)  -->
<svg version="1.1" id="Livello_1" xmlns="http://www.w3.org/2000/svg" xmlns:xlink="http://www.w3.org/1999/xlink" x="0px" y="0px"
	 viewBox="0 0 378.2 378.2" style="enable-background:new 0 0 378.2 378.2;" xml:space="preserve">
<style type="text/css">
	.st0{fill:#8CCDF2;}
	.st1{fill:#FFFFFF;}
</style>
<circle class="st0" cx="189.1" cy="189.1" r="190.1"/>
<path class="st1" d="M139.8,112.5l140,140h-140V112.5 M131.4,92.2V261h168.8L131.4,92.2L131.4,92.2z"/>
<path class="st1" d="M174,190.6l27.8,27.8H174V190.6 M165.5,170.3v56.5h56.5L165.5,170.3L165.5,170.3z"/>
<g>
	<rect x="131.4" y="139.9" class="st1" width="18.1" height="8.4"/>
</g>
<g>
	<rect x="131.4" y="155.7" class="st1" width="18.1" height="8.4"/>
</g>
<g>
	<rect x="131.4" y="171.5" class="st1" width="18.1" height="8.4"/>
</g>
<g>
	<rect x="131.4" y="187.3" class="st1" width="18.1" height="8.4"/>
</g>
<g>
	<rect x="131.4" y="203.2" class="st1" width="18.1" height="8.4"/>
</g>
<g>
	<rect x="131.4" y="219" class="st1" width="18.1" height="8.4"/>
</g>
<g>
	<rect x="131.4" y="234.8" class="st1" width="18.1" height="8.4"/>
</g>
<g>
	<rect x="149.1" y="242.9" class="st1" width="8.4" height="18.1"/>
</g>
<g>
	<rect x="164.9" y="242.9" class="st1" width="8.4" height="18.1"/>
</g>
<g>
	<rect x="180.7" y="242.9" class="st1" width="8.4" height="18.1"/>
</g>
<g>
	<rect x="196.5" y="242.9" class="st1" width="8.4" height="18.1"/>
</g>
<g>
	<rect x="212.4" y="242.9" class="st1" width="8.4" height="18.1"/>
</g>
<g>
	<rect x="228.2" y="242.9" class="st1" width="8.4" height="18.1"/>
</g>
<g>
	<rect x="244" y="242.9" class="st1" width="8.4" height="18.1"/>
</g>
</svg>
