<?xml version="1.0" encoding="utf-8"?>
<!-- Generator: Adobe Illustrator 22.0.0, SVG Export Plug-In . SVG Version: 6.00 Build 0)  -->
<svg version="1.1" id="Livello_1" xmlns="http://www.w3.org/2000/svg" xmlns:xlink="http://www.w3.org/1999/xlink" x="0px" y="0px"
	 viewBox="0 0 378.2 378.2" style="enable-background:new 0 0 378.2 378.2;" xml:space="preserve">
<style type="text/css">
	.st0{fill:#8CCDF2;}
	.st1{fill:#FFFFFF;}
	.st2{fill:none;stroke:#FFFFFF;stroke-width:5;stroke-miterlimit:10;}
</style>
<circle class="st0" cx="189.1" cy="189.1" r="190.1"/>
<path class="st1" d="M99.6,113.2l165.9,165.9H99.6V113.2 M89.6,89.1v200h200L89.6,89.1L89.6,89.1z"/>
<path class="st1" d="M140.1,205.7l32.9,32.9h-32.9V205.7 M130.1,181.6v67h67L130.1,181.6L130.1,181.6z"/>
<g>
	<rect x="89.6" y="145.6" class="st1" width="21.5" height="10"/>
</g>
<g>
	<rect x="89.6" y="164.3" class="st1" width="21.5" height="10"/>
</g>
<g>
	<rect x="89.6" y="183.1" class="st1" width="21.5" height="10"/>
</g>
<g>
	<rect x="89.6" y="201.8" class="st1" width="21.5" height="10"/>
</g>
<g>
	<rect x="89.6" y="220.6" class="st1" width="21.5" height="10"/>
</g>
<g>
	<rect x="89.6" y="239.3" class="st1" width="21.5" height="10"/>
</g>
<g>
	<rect x="89.6" y="258.1" class="st1" width="21.5" height="10"/>
</g>
<g>
	<rect x="110.6" y="267.6" class="st1" width="10" height="21.5"/>
</g>
<g>
	<rect x="129.3" y="267.6" class="st1" width="10" height="21.5"/>
</g>
<g>
	<rect x="148.1" y="267.6" class="st1" width="10" height="21.5"/>
</g>
<g>
	<rect x="166.8" y="267.6" class="st1" width="10" height="21.5"/>
</g>
<g>
	<rect x="185.6" y="267.6" class="st1" width="10" height="21.5"/>
</g>
<g>
	<rect x="204.3" y="267.6" class="st1" width="10" height="21.5"/>
</g>
<g>
	<rect x="223.1" y="267.6" class="st1" width="10" height="21.5"/>
</g>
</svg>
