<?xml version="1.0" encoding="utf-8"?>
<!-- Generator: Adobe Illustrator 22.0.0, SVG Export Plug-In . SVG Version: 6.00 Build 0)  -->
<svg version="1.1" id="Livello_1" xmlns="http://www.w3.org/2000/svg" xmlns:xlink="http://www.w3.org/1999/xlink" x="0px" y="0px"
	 viewBox="0 0 40 40" style="enable-background:new 0 0 40 40;" xml:space="preserve">
<style type="text/css">
	.st0{fill:#87CEFA;}
</style>
<g>
	<path class="st0" d="M22,38.9h-3.6c-1.2,0-2.3-1-2.3-2.3l0,0c0-1.2,1-2.3,2.3-2.3H22c1.2,0,2.3,1,2.3,2.3l0,0
		C24.2,37.9,23.2,38.9,22,38.9z"/>
	<circle class="st0" cx="20" cy="19.1" r="11.1"/>
	<g>
		<path d="M36.2,12.8C34.3,5.5,27.6,0.3,20,0.3c-7.6,0-14.3,5.2-16.2,12.5c-1.9,0.4-3.4,2-3.4,4.1v4.7c0,1.8,1.2,3.4,2.8,3.9v1.9
			c0,5.8,4.8,10.6,10.6,10.6h1.3c0.5,1.2,1.7,2.1,3.2,2.1h3.5c1.9,0,3.4-1.5,3.4-3.4c0-1.9-1.5-3.4-3.4-3.4h-3.5
			c-1.4,0-2.6,0.9-3.2,2.1h-1.3c-4.4,0-7.9-3.6-7.9-7.9v-3.1c0-0.7-0.6-1.3-1.3-1.3c-0.8,0-1.5-0.7-1.5-1.5v-4.7
			c0-0.8,0.7-1.5,1.5-1.5l0.3,0h0c0.6,0,1.2-0.4,1.3-1.1C7.5,7.7,13.3,2.9,20,2.9c6.7,0,12.6,4.8,13.9,11.3c0.1,0.6,0.7,1.1,1.3,1.1
			h0.3c0.8,0,1.5,0.7,1.5,1.5v4.7c0,0.8-0.7,1.5-1.5,1.5c-0.7,0-1.3,0.6-1.3,1.3c0,0.7,0.6,1.3,1.3,1.3c2.3,0,4.1-1.9,4.1-4.1v-4.7
			C39.6,14.8,38.2,13.1,36.2,12.8L36.2,12.8z M18.3,35.8h3.5c0.4,0,0.8,0.3,0.8,0.8c0,0.4-0.3,0.8-0.8,0.8h-3.5
			c-0.4,0-0.8-0.3-0.8-0.8C17.5,36.1,17.8,35.8,18.3,35.8L18.3,35.8z M18.3,35.8"/>
		<path d="M20,6.7c-6.9,0-12.5,5.6-12.5,12.5c0,6.9,5.6,12.5,12.5,12.5c6.9,0,12.5-5.6,12.5-12.5C32.5,12.3,26.9,6.7,20,6.7L20,6.7z
			 M20,28.9c-5.4,0-9.8-4.4-9.8-9.8c0-5.4,4.4-9.8,9.8-9.8c5.4,0,9.8,4.4,9.8,9.8C29.8,24.5,25.4,28.9,20,28.9L20,28.9z M20,28.9"/>
	</g>
</g>
</svg>
