<?xml version="1.0" encoding="utf-8"?>
<!-- Generator: Adobe Illustrator 22.0.0, SVG Export Plug-In . SVG Version: 6.00 Build 0)  -->
<svg version="1.1" id="Livello_1" xmlns="http://www.w3.org/2000/svg" xmlns:xlink="http://www.w3.org/1999/xlink" x="0px" y="0px"
	 viewBox="0 0 40 40" style="enable-background:new 0 0 40 40;" xml:space="preserve">
<style type="text/css">
	.st0{fill:#87CEFA;}
</style>
<g>
	<g>
		<path d="M38.7,1.7H1.3C0.6,1.7,0,2.2,0,2.9v26c0,0.7,0.6,1.3,1.3,1.3h9.4c0.7,0,1.3-0.6,1.3-1.3c0-0.7-0.6-1.3-1.3-1.3H2.5V4.2
			h34.9v23.4h-15c-0.3,0-0.5,0.1-0.7,0.2L9.9,36c-0.6,0.4-0.7,1.2-0.3,1.8c0.2,0.4,0.6,0.5,1,0.5c0.2,0,0.5-0.1,0.7-0.2l11.5-8h15.9
			c0.7,0,1.3-0.6,1.3-1.3v-26C40,2.2,39.4,1.7,38.7,1.7L38.7,1.7z M38.7,1.7"/>
		<path class="st0" d="M24.7,11.7c0.7,0,1.3-0.6,1.3-1.3c0-0.7-0.6-1.3-1.3-1.3h-9.4c-0.7,0-1.3,0.6-1.3,1.3c0,0.7,0.6,1.3,1.3,1.3
			H24.7z M24.7,11.7"/>
		<path class="st0" d="M9.4,15.9c0,0.7,0.6,1.3,1.3,1.3h18.7c0.7,0,1.3-0.6,1.3-1.3c0-0.7-0.6-1.3-1.3-1.3H10.6
			C9.9,14.6,9.4,15.2,9.4,15.9L9.4,15.9z M9.4,15.9"/>
		<path class="st0" d="M10.6,22.6h18.7c0.7,0,1.3-0.6,1.3-1.3c0-0.7-0.6-1.3-1.3-1.3H10.6c-0.7,0-1.3,0.6-1.3,1.3
			C9.4,22.1,9.9,22.6,10.6,22.6L10.6,22.6z M10.6,22.6"/>
	</g>
</g>
</svg>
