<?xml version="1.0" encoding="utf-8"?>
<!-- Generator: Adobe Illustrator 22.0.0, SVG Export Plug-In . SVG Version: 6.00 Build 0)  -->
<svg version="1.1" id="Livello_1" xmlns="http://www.w3.org/2000/svg" xmlns:xlink="http://www.w3.org/1999/xlink" x="0px" y="0px"
	 viewBox="0 0 40 40" style="enable-background:new 0 0 40 40;" xml:space="preserve">
<style type="text/css">
	.st0{fill:#FFFFFF;}
	.st1{fill:#8CCDF2;}
	.st2{fill:#8ECCF1;}
</style>
<g>
	<rect x="7.9" y="8.6" class="st1" width="17.5" height="1.7"/>
</g>
<g>
	<rect x="7.9" y="13.5" class="st1" width="17.5" height="1.7"/>
</g>
<g>
	<rect x="7.9" y="18.4" class="st1" width="17.5" height="1.7"/>
</g>
<g>
	<path d="M3.5,37.1l1.9-8.4H0.2V0H33v28.7H13.4L3.5,37.1z M1.9,27h5.6l-1.3,5.5l6.5-5.5h18.6V1.7H1.9V27z"/>
</g>
<g>
	<polygon class="st2" points="38.5,39.9 34.6,36.2 19.1,36.4 19.1,30.4 20,30.4 20,35.5 34.9,35.4 37.4,37.7 37,35.1 38.9,35.1 
		38.9,25 34.7,25 34.7,24.2 39.8,24.2 39.8,35.9 38,35.9 	"/>
</g>
</svg>
