<?xml version="1.0" encoding="utf-8"?>
<!-- Generator: Adobe Illustrator 22.0.0, SVG Export Plug-In . SVG Version: 6.00 Build 0)  -->
<svg version="1.1" id="Livello_1" xmlns="http://www.w3.org/2000/svg" xmlns:xlink="http://www.w3.org/1999/xlink" x="0px" y="0px"
	 viewBox="0 0 40 40" style="enable-background:new 0 0 40 40;" xml:space="preserve">
<style type="text/css">
	.st0{fill:#87CEFA;}
	.st1{stroke:#000000;stroke-width:0.5;stroke-miterlimit:10;}
</style>
<polygon class="st0" points="12.6,6.1 9.8,8.2 7.3,13.6 4.4,20.6 1.9,26.6 1.6,30.9 7.1,34 14.9,36.1 22.3,36.6 29.5,35.4 35,33 
	38.1,30.9 39,27.9 39.3,25.2 38.1,23.1 36.6,20.8 32.4,19.4 29.2,20 26.7,22.5 24.6,20.6 21.2,19.4 18.5,19.7 14.6,22.1 14.1,20 
	14.5,16.6 15.7,11.2 17.1,12.6 19.9,12.8 22.1,12.4 23.8,10.8 24.5,8.2 23.2,5 20.9,3.1 14.7,3.9 "/>
<path class="st1" d="M15.8,12.4c-1,3-1,5.9-1,8.7c0.5,0.3,0.7-0.1,0.9-0.2c1.2-0.9,2.5-1.5,3.9-1.7c2.4-0.3,4.5,0.4,6.4,2
	c0.2,0.2,0.4,0.4,0.6,0.6c0.1-0.1,0.3-0.2,0.4-0.3c1.1-1.7,2.8-2.3,4.7-2.4c1.5-0.1,2.9,0.3,4.2,0.9c3,1.5,4.5,4.8,3.5,8.1
	c-0.6,2.1-1.8,3.7-3.7,4.8c-2.6,1.6-5.4,2.7-8.4,3.4C18.5,38.1,10,36.5,2,31.9c-0.1-0.1-0.2-0.2-0.3-0.2C1.2,31.4,1,31,1,30.4
	c0.1-1.6,0.4-3.1,0.8-4.7c0.9-3.5,2.2-6.9,3.9-10.1c1.3-2.5,2.7-5,4.2-7.4c0.6-1.1,1.4-2.1,2.2-3c0.9-1.1,2.1-1.7,3.5-1.8
	C17,3.2,18.5,3.1,20,3c1-0.1,1.7,0.3,2.4,1c1.1,1.2,1.8,2.6,2.1,4.2c0.1,0.5,0.1,1.1,0,1.6c-0.3,1.8-1.4,3-3.2,3.3
	C19.4,13.4,17.6,13.6,15.8,12.4z M20,36.1c2.9,0,5.8-0.4,8.7-1.1c2.3-0.6,4.4-1.5,6.5-2.7c1.5-0.9,2.6-2,3.3-3.6
	c0.9-2.4,0.6-4.6-1.1-6.4c-1.8-2-4.2-2.7-6.9-2.1c-1.4,0.3-2.3,1.1-2.9,2.4c-0.1,0.3-0.2,0.6-0.3,0.9c-0.1,0.2-0.4,0.2-0.6,0.1
	c-0.1-0.1-0.2-0.2-0.2-0.3c-1.2-2.1-3.2-3-5.5-3.1c-2.1-0.1-3.8,0.8-5.4,2.2c-0.5,0.5-1,0.9-1.2,1.6c-0.6,1.6-1.7,2.9-2.8,4.1
	c-0.1,0.1-0.3,0.2-0.4,0.3c-0.1,0-0.3,0-0.4-0.1c-0.1-0.1-0.1-0.3-0.1-0.3c0.1-0.2,0.3-0.4,0.5-0.6c0.5-0.7,1.1-1.3,1.6-2
	c0.9-1.2,1.3-2.5,1.3-4c0-0.9,0-1.7,0-2.6c0-2.7,0.5-5.3,1.4-7.8c0.1-0.2,0.2-0.5,0.4-0.7c0.9-0.8,1.9-1.1,3.1-1
	c0.1,0,0.3,0.2,0.3,0.3c0,0.1-0.2,0.3-0.3,0.4c-0.3,0.1-0.6,0.1-0.9,0.2c-0.3,0.1-0.6,0.2-0.9,0.3c-0.6,0.3-0.7,1-0.3,1.5
	c0.5,0.6,1.1,0.9,1.9,0.9c0.8-0.1,1.5-0.1,2.3-0.3c1.6-0.3,2.4-1.2,2.6-2.8c0.1-1.5-0.3-2.8-1.1-4c-0.7-1.1-1.7-1.6-3-1.5
	c-1,0-2.1,0.1-3.1,0.2c-1.6,0.1-2.8,0.8-3.8,2c-1.2,1.4-2.3,2.9-3.2,4.5c-1.9,3.2-3.6,6.6-5,10c-0.6,1.5-1.1,3-1.5,4.5
	c-0.4,1.2-0.6,2.4-0.9,3.5C1.7,29.8,2,31,3.4,31.7c0.2,0.1,0.5,0.3,0.7,0.4C9.1,34.8,14.4,36,20,36.1z"/>
<path class="st1" d="M25.8,28.9c-1.3,1.3-2.8,2.2-4.6,2.3c-2,0.1-4-0.1-5.9-1c-0.5-0.2-0.9-0.5-1.3-0.8c-0.1-0.1-0.1-0.3-0.1-0.4
	c0.1-0.1,0.3-0.3,0.4-0.2c0.2,0,0.4,0.2,0.6,0.3c2,1.1,4.1,1.3,6.3,1.2c1-0.1,1.9-0.5,2.7-1c0.3-0.2,0.7-0.5,1-0.7
	C25.3,28.3,25.6,28.4,25.8,28.9z"/>
<path class="st1" d="M15.9,24.6c-0.1-0.1-0.2-0.3-0.2-0.4c0-0.2,0.1-0.4,0.2-0.6c0.5-0.7,1.2-1.2,1.9-1.6c0.1-0.1,0.3,0,0.4,0
	c0.1,0,0.2,0.1,0.2,0.1c0,0.1,0,0.3,0,0.4c0,0,0,0.1-0.1,0.1c-0.8,0.6-1.6,1.1-2.2,1.9C16.2,24.6,16.1,24.6,15.9,24.6z"/>
</svg>
