<?xml version="1.0" encoding="utf-8"?>
<!-- Generator: Adobe Illustrator 22.0.0, SVG Export Plug-In . SVG Version: 6.00 Build 0)  -->
<svg version="1.1" id="Livello_1" xmlns="http://www.w3.org/2000/svg" xmlns:xlink="http://www.w3.org/1999/xlink" x="0px" y="0px"
	 viewBox="0 0 40 40" style="enable-background:new 0 0 40 40;" xml:space="preserve">
<style type="text/css">
	.st0{fill:#87CEFA;}
	.st1{stroke:#000000;stroke-miterlimit:10;}
	.st2{fill:#E1F1F8;}
	.st3{fill:#B3C0C6;}
	.st4{fill:#71D8FA;}
	.st5{fill:#A7DDF1;}
	.st6{fill:#62D1FB;}
</style>
<g>
	<g>
		<path class="st1" d="M33.8,17.5c1.6,0.3,2.3,0.9,2.4,2.2c0.1,1.5-0.4,2.3-2.1,2.9c0.1,0.5,0.2,1,0.3,1.6c0.2,1.2-0.3,1.9-1.5,2.2
			c-1.1,0.2-1.5,0.7-1.4,1.8c0,0.1,0.1,0.3,0.3,0.4c0.3,0.2,0.6,0.3,0.8,0.5c0.8,0.5,1.1,1.4,0.6,2.3c-0.5,0.9-1,1.7-1.5,2.6
			c-0.5,0.9-1.5,1.1-2.4,0.6c0,0-0.1,0-0.1-0.1c-1-0.5-1.5-0.4-2.2,0.5c-0.1,0.1-0.1,0.3,0,0.4c0.1,0.3,0.2,0.5,0.3,0.8
			c0.4,1.1,0,1.9-1.1,2.3c-0.9,0.3-1.7,0.6-2.6,0.9c-1.1,0.4-1.9,0-2.3-1.1c-0.4-1-1-1.3-2-1c-0.1,0-0.3,0.2-0.3,0.4
			c-0.1,0.3-0.2,0.6-0.3,0.9c-0.4,0.9-1.2,1.3-2.1,1c-1-0.3-2-0.7-3-1.1c-0.8-0.3-1.2-1.2-1-2c0-0.1,0.1-0.2,0.1-0.3
			c0.4-1,0.1-1.6-0.8-2.1c-0.1-0.1-0.3,0-0.4,0c-0.3,0.1-0.6,0.4-0.9,0.5c-0.8,0.4-1.7,0.2-2.2-0.6c-0.6-0.9-1.1-1.8-1.6-2.7
			c-0.4-0.8-0.2-1.7,0.6-2.2c0.1-0.1,0.2-0.1,0.2-0.2c0.9-0.6,1.1-1.1,0.7-2.1c-0.1-0.1-0.2-0.2-0.3-0.3c-0.2-0.1-0.5-0.1-0.8-0.1
			c-1.2-0.2-1.8-1-1.5-2.2c0.1-0.5,0.2-1,0.3-1.5c-1.7-0.7-2.2-1.4-2-3c0.1-1.2,0.8-1.8,2.4-2.1C6.9,10.8,10.4,6.4,17,4.5
			c0-0.5,0-1.1,0-1.6c0-1.3,0.9-2.2,2.2-2.2c0.6,0,1.1,0,1.7,0c1.3,0,2.1,0.9,2.2,2.2c0,0.6-0.1,1.3,0.1,1.7c0.3,0.4,1,0.4,1.5,0.6
			c5.3,2.2,8.3,6.1,9,11.8C33.8,17.1,33.8,17.3,33.8,17.5z M20.1,1.3c-1.8-0.2-2.5,0.4-2.4,2c0,0.7,0,1.4,0,2.1c0,1,0,2,0,3
			c0,0.1,0,0.3,0,0.4c-0.1,0.3-0.2,0.6-0.3,0.9c-0.1-0.3-0.2-0.6-0.4-0.9c0-0.8,0-1.6,0-2.4c0,0,0-0.1,0-0.1c0-0.3,0-0.6,0-1
			C13,5.9,8.6,10,7.6,14c0,0.1-0.1,0.2-0.1,0.3c0,0,0,0,0,0c-0.1,0.5-0.2,1-0.3,1.5C7.1,16.4,7,17,6.9,17.6c2.1,0,4,0,6,0
			c0-0.8,0-1.6,0-2.3c0-1.1,0-2.2,0-3.2c0-0.2,0-0.4,0-0.6c0-0.2,0.2-0.3,0.3-0.5c0.1,0.1,0.3,0.3,0.4,0.4c0,1.2,0,2.3,0,3.5
			c0,0.9,0,1.8,0,2.8c0.3,0,0.6,0,0.8,0c3.5,0,7,0,10.5,0c1.7,0,1.7,0,1.5-1.8c0-1.3,0-2.5,0-3.8c0-0.2,0-0.5,0.1-0.7
			c0-0.1,0.2-0.3,0.3-0.4c0.1,0.1,0.3,0.3,0.3,0.4c0.1,0.3,0,0.6,0,0.8c0,0.9,0,1.8,0,2.7c0,0.9,0,1.8,0,2.8c1.7,0,3.3,0,4.9,0
			c0.3,0,0.7-0.1,1-0.1c-0.1-0.9-0.2-1.8-0.3-2.7c-1.2-5.4-6-8.9-9.6-9.5c0,0.3,0,0.6,0.1,1c0,1.1-0.1,2.2-0.1,3.4
			c-0.2,0-0.3,0-0.5,0c0-1.3-0.1-2.6-0.1-3.9c0-0.8,0-1.6,0-2.4C22.5,1.7,21.7,1,20.1,1.3z M21.5,18.3c-0.5,0-1,0-1.4,0
			c-2.8,0-5.7,0-8.5,0c-1.8,0-3.5,0-5.3,0c-1.1,0-1.7,0.6-1.7,1.7c0,0,0,0.1,0,0.1c0,1.2,0.6,1.8,2,1.8c9,0,17.9,0,26.9,0
			c0.3,0,0.6,0,0.9-0.1c0.8-0.2,1.2-0.7,1.2-1.6c0-0.1,0-0.2,0-0.3c0-1-0.5-1.6-1.5-1.6c-2.5,0-5,0-7.4,0
			C24.9,18.3,23.2,18.3,21.5,18.3z M29.8,22.5c-1.1,0-2.3,0-3.5,0c0.2,0.5,0.3,0.9,0.4,1.4c0,0.9,0,1.8,0,2.7
			c-0.4,1.5-1.2,2.8-2.3,3.9c-0.7,0.4-1.4,0.8-2.1,1.2c-0.8,0.1-1.5,0.3-2.3,0.4c-0.2,0-0.4,0-0.6,0c-3-0.2-5.5-2.3-6.1-5.2
			c-0.2-0.9-0.1-1.9-0.1-2.9c0.1-0.4,0.3-0.9,0.4-1.4c-2.4,0-4.8,0-7.2,0c-0.1,0.5-0.1,0.9-0.2,1.3c-0.3,1.2-0.1,1.7,1.2,1.9
			c0.1,0,0.2,0,0.3,0c0.8,0,1,0.4,1.1,1.2c0.3,1.3,0.1,2.1-1.2,2.6c-0.6,0.2-0.8,0.9-0.4,1.5c0.5,0.8,0.9,1.6,1.4,2.4
			c0.4,0.6,0.9,0.7,1.5,0.4c0.2-0.1,0.4-0.2,0.5-0.3c0.6-0.5,1.1-0.4,1.8,0.1c1.1,0.8,1.3,1.5,0.7,2.6c-0.4,0.7,0,1.2,0.7,1.5
			c0.8,0.3,1.7,0.6,2.5,0.9c0.8,0.3,1.3,0.1,1.5-0.7c0.3-1.2,0.9-1.8,2.2-1.6c0.3,0,0.7,0,1,0c0.2,0.5,0.5,1.1,0.7,1.6
			c0.3,0.7,0.8,0.9,1.5,0.7c0.5-0.2,1-0.4,1.5-0.5c1.7-0.6,2.4-0.6,1.4-2.9c-0.2-0.4-0.1-0.7,0.3-0.9c0.5-0.4,1-0.9,1.5-1.3
			c0.5,0.3,1,0.5,1.5,0.8c0.7,0.3,1.1,0.2,1.5-0.4c0.4-0.7,0.9-1.5,1.3-2.2c0.5-0.9,0.4-1.3-0.5-1.8c-0.2-0.1-0.4-0.2-0.5-0.3
			c-0.6-0.2-0.8-0.6-0.6-1.3c0.1-0.4,0.1-0.9,0.2-1.3c0.1-0.3,0.3-0.5,0.6-0.6c0.2-0.1,0.5-0.1,0.7-0.1c1.3-0.2,1.5-0.6,1.2-1.9
			c-0.1-0.4-0.1-0.9-0.2-1.3C32.2,22.5,31,22.5,29.8,22.5z M20.1,22.5c-1.6,0-3.2,0-4.9,0c-0.6,0-0.8,0.2-1,0.7
			c-0.4,1.1-0.5,2.2-0.2,3.3c0.6,2.4,2.1,4,4.4,4.6c2.4,0.6,4.5,0,6.1-1.9c1.6-1.8,1.9-4,1.1-6.3c-0.1-0.4-0.3-0.5-0.7-0.5
			C23.4,22.5,21.7,22.5,20.1,22.5z"/>
		<path class="st2" d="M20.2,36.4c-1.3-0.2-1.9,0.4-2.2,1.6c-0.2,0.8-0.7,1-1.5,0.7c-0.8-0.3-1.7-0.6-2.5-0.9
			c-0.7-0.3-1-0.8-0.7-1.5c0.6-1.2,0.3-1.9-0.7-2.6c-0.7-0.5-1.1-0.7-1.8-0.1c-0.2,0.1-0.4,0.2-0.5,0.3c-0.6,0.3-1.1,0.2-1.5-0.4
			c-0.5-0.8-1-1.6-1.4-2.4c-0.3-0.6-0.2-1.2,0.4-1.5C9.2,29,9.4,28.2,9,26.9c-0.2-0.7-0.4-1.1-1.1-1.2c-0.1,0-0.2,0-0.3,0
			c-1.2-0.2-1.5-0.6-1.2-1.9c2.3,0,4.6,0,6.9,0c0,1-0.1,2,0.1,2.9c0.6,2.9,3.1,5,6.1,5.2c0.2,0,0.4,0,0.6,0c0,0.3,0,0.6,0,1
			C20.1,34.1,20.2,35.3,20.2,36.4z"/>
		<path class="st0" d="M13.6,14.8c0-1.2,0-2.3,0-3.5c1.5,0,2.9,0.1,4.4,0.1c0.6,0,1.3-0.1,1.9-0.1c0,0.2,0.1,0.4,0.1,0.5
			c-0.8,0-1.6,0-2.4,0c-0.2,0-0.4,0.2-0.6,0.4c0.2,0.1,0.4,0.3,0.6,0.3c1.6,0,3.3,0,4.9,0c0.2,0,0.4-0.2,0.6-0.3
			c1.1-0.1,2.2-0.2,3.4-0.3c0,1.3,0,2.5,0,3.8c-1.8,0-3.6,0-5.4,0c-0.4,0-0.8,0.1-0.8-0.5c0.7,0,1.5,0,2.2-0.1
			c0.2,0,0.4-0.2,0.6-0.3c-0.2-0.1-0.4-0.3-0.6-0.3c-1.6,0-3.2,0-4.8,0c-0.2,0-0.4,0.2-0.6,0.3C15.8,14.9,14.7,14.9,13.6,14.8z"/>
		<path class="st2" d="M28.1,33c-0.5,0.4-1,0.9-1.5,1.3c-0.4,0.3-0.4,0.5-0.3,0.9c1,2.2,0.3,2.3-1.4,2.9c-0.5,0.2-1,0.4-1.5,0.5
			c-0.7,0.2-1.2,0-1.5-0.7c-0.2-0.5-0.5-1.1-0.7-1.6c0-0.2-0.1-0.5,0-0.6c1.6-1.4,3.1-2.8,4.7-4.2c0.5-0.4,0.6-0.8,0.1-1.3
			c0.7-0.4,1.4-0.8,2.1-1.1c0,0.6,0.1,1.2,0.1,1.7C28.3,31.5,28.2,32.3,28.1,33z"/>
		<path class="st0" d="M20.2,15.3c0.1,0.6,0.5,0.5,0.8,0.5c1.8,0,3.6,0,5.4,0c0.2,1.8,0.2,1.8-1.5,1.8c-3.5,0-7,0-10.5,0
			c-0.3,0-0.5,0-0.8,0c0-1,0-1.9,0-2.8c1.1,0,2.2,0.1,3.3,0.1c0.2,0.1,0.5,0.3,0.7,0.3C18.5,15.3,19.4,15.3,20.2,15.3z"/>
		<path class="st0" d="M19.9,11.3c-0.6,0-1.3,0.1-1.9,0.1c-1.5,0-2.9-0.1-4.4-0.1c-0.1-0.1-0.3-0.3-0.4-0.4
			c-0.1,0.2-0.2,0.3-0.3,0.5c-0.1,0.2,0,0.4,0,0.6c-1.3,0-2.6,0-3.9,0c0.8-1.2,1.7-2.4,2.9-3.2c1.7,0,3.4,0,5,0
			c0.1,0.3,0.2,0.6,0.4,0.9c0.1-0.3,0.2-0.6,0.3-0.9c0-0.1,0-0.3,0-0.4c0.8,0,1.6,0,2.4,0c0,0.5,0,1,0,1.5
			C20,10.4,20,10.8,19.9,11.3z"/>
		<path class="st0" d="M19.9,11.3c0-0.5,0.1-0.9,0.1-1.4c0.8-0.1,1.6-0.2,2.4-0.3c0.2,0,0.3,0,0.5,0c0.6,0,1.3,0,1.9,0
			c1.4,0,2.9,0.1,4.3,0.1c0.6,0.7,1.1,1.4,1.7,2.1c-1.3,0.1-2.5,0.2-3.8,0.3c0-0.3,0-0.6,0-0.8c0-0.1-0.2-0.3-0.3-0.4
			c-0.1,0.1-0.2,0.3-0.3,0.4c-0.1,0.2,0,0.5-0.1,0.7c-1.1,0.1-2.2,0.2-3.4,0.3c-0.2-0.1-0.4-0.4-0.7-0.4c-0.8-0.1-1.6,0-2.4,0
			C20,11.7,20,11.5,19.9,11.3z"/>
		<path class="st0" d="M35.5,20.2c0,0.9-0.4,1.4-1.2,1.6c-0.3,0.1-0.6,0.1-0.9,0.1c-9,0-17.9,0-26.9,0c-1.4,0-2.1-0.6-2-1.8
			c0.1,0.1,0.2,0.3,0.3,0.4c0.4,0.6,1,0.7,1.7,0.7c4.2,0,8.5,0,12.7,0c0.3,0,0.5-0.1,0.8-0.1c1.7,0,3.4,0.1,5.1,0.1
			c2.8,0,5.6,0,8.4,0c0.7,0,1.4-0.1,1.7-0.8C35.4,20.3,35.5,20.2,35.5,20.2z"/>
		<path class="st2" d="M28.3,29.1c-0.7,0.4-1.4,0.8-2.1,1.1c-0.6,0-1.1,0.7-1.7,0.3c1.2-1.1,2-2.4,2.3-3.9c0.2,0,0.4,0,0.5-0.1
			c1.2-0.7,2.3-1.3,3.5-2c0.2-0.1,0.2-0.4,0.3-0.5c0.9,0,1.7,0,2.6,0c0.3,1.3,0.1,1.7-1.2,1.9c-0.3,0-0.5,0-0.7,0.1
			c-0.2,0.1-0.5,0.4-0.6,0.6c-0.1,0.4-0.2,0.9-0.2,1.3c-0.2,0-0.5-0.1-0.7,0C29.5,28.2,28.9,28.6,28.3,29.1z"/>
		<path class="st2" d="M28.3,29.1c0.6-0.4,1.3-0.9,1.9-1.3c0.2-0.1,0.5,0,0.7,0c-0.2,0.6,0,1,0.6,1.3c0.2,0.1,0.4,0.2,0.5,0.3
			c0.9,0.5,1,1,0.5,1.8c-0.4,0.7-0.8,1.5-1.3,2.2c-0.4,0.7-0.9,0.8-1.5,0.4c-0.5-0.3-1-0.5-1.5-0.8c0.1-0.7,0.2-1.5,0.2-2.2
			C28.4,30.2,28.3,29.6,28.3,29.1z"/>
		<path class="st0" d="M33,17.5c-0.3,0-0.7,0.1-1,0.1c-1.6,0-3.2,0-4.9,0c0-1,0-1.9,0-2.8c1.7,0,3.5-0.1,5.2-0.1
			c0,0.1,0.1,0.1,0.1,0.2C32.7,15.7,32.8,16.6,33,17.5z"/>
		<path class="st2" d="M24.4,30.4c0.7,0.4,1.1-0.3,1.7-0.3c0.4,0.5,0.4,0.9-0.1,1.3c-1.6,1.4-3.2,2.8-4.7,4.2c-0.1,0.1,0,0.4,0,0.6
			c-0.3,0-0.7,0-1,0c0-1.1-0.1-2.3-0.1-3.4c0.9-0.1,1.8-0.5,2.3-1.4C23,31.2,23.7,30.8,24.4,30.4z"/>
		<path class="st0" d="M9,12c1.3,0,2.6,0,3.9,0c0,1.1,0,2.2,0,3.2c-1.8,0-3.6,0-5.4,0c0-0.3,0-0.6,0-0.9c0,0,0,0,0,0
			c0.1-0.1,0.2-0.2,0.3-0.3C8.2,13.3,8.6,12.7,9,12z"/>
		<path class="st0" d="M7.6,15.3c1.8,0,3.6,0,5.4,0c0,0.8,0,1.5,0,2.3c-2,0-3.9,0-6,0C7,17,7.1,16.4,7.2,15.8
			C7.3,15.6,7.4,15.4,7.6,15.3z"/>
		<path class="st0" d="M29.2,9.8c-1.4,0-2.9-0.1-4.3-0.1c-0.6,0-1.3,0-1.9,0c0-1.1,0.1-2.2,0.1-3.4c0.2,0,0.3,0.1,0.5,0.1
			C25.8,7,27.7,8.1,29.2,9.8z"/>
		<path class="st0" d="M32.3,14.7c-1.7,0-3.5,0.1-5.2,0.1c0-0.9,0-1.8,0-2.7c1.3-0.1,2.5-0.2,3.8-0.3C31.4,12.8,31.9,13.7,32.3,14.7
			z"/>
		<path class="st0" d="M4.9,20.5c-0.1-0.1-0.2-0.3-0.3-0.4c0,0,0-0.1,0-0.1c0.1-0.1,0.2-0.2,0.3-0.3c5.1,0,10.1,0,15.2,0
			c0,0.1,0,0.3,0,0.4c0,0.1,0,0.2,0,0.3c-4.4,0-8.8,0-13.1,0C6.3,20.3,5.6,20.4,4.9,20.5z"/>
		<path class="st0" d="M4.9,19.6c-0.1,0.1-0.2,0.2-0.3,0.3c0-1.1,0.5-1.7,1.7-1.7c1.8,0,3.5,0,5.3,0c2.8,0,5.7,0,8.5,0
			c0,0.2,0,0.4,0,0.6c-4.5,0-9.1,0-13.6,0C5.8,18.9,5.2,19,4.9,19.6z"/>
		<path class="st3" d="M13.3,23.8c-2.3,0-4.6,0-6.9,0c0.1-0.4,0.1-0.9,0.2-1.3c2.4,0,4.7,0,7.2,0C13.6,23,13.5,23.4,13.3,23.8z"/>
		<path class="st0" d="M32.3,14.7c-0.5-0.9-0.9-1.9-1.4-2.8c-0.6-0.7-1.1-1.4-1.7-2.1c-1.5-1.7-3.5-2.7-5.6-3.4
			c-0.2,0-0.3-0.1-0.5-0.1c0-0.3,0-0.6-0.1-1c3.7,0.6,8.4,4.1,9.6,9.5c-0.1,0-0.2,0-0.3,0C32.4,14.8,32.4,14.7,32.3,14.7z"/>
		<path class="st0" d="M22.5,9.6c-0.8,0.1-1.6,0.2-2.4,0.3c0-0.5,0-1,0-1.5c0-0.8,0-1.7,0-2.5c0.8,0,1.6-0.1,2.3-0.1
			C22.5,7,22.5,8.3,22.5,9.6z"/>
		<path class="st0" d="M9,12c-0.4,0.7-0.7,1.3-1.1,2c-0.1,0-0.2,0-0.3,0c1-4,5.4-8.1,9.4-8.7c0,0.3,0,0.6,0,1c0,0-0.1,0.1-0.1,0.1
			c-1.9,0.3-3.5,1.2-4.9,2.4C10.7,9.6,9.8,10.8,9,12z"/>
		<path class="st0" d="M22.4,5.7c-0.8,0-1.6,0.1-2.3,0.1c0-0.1,0-0.3,0-0.4c0-1-0.1-2.1-0.1-3.1c0,0,0.1,0,0.1,0c1-0.1,1.8,0,2.4,1
			C22.4,4.1,22.4,4.9,22.4,5.7z"/>
		<path class="st0" d="M11.9,8.8c1.5-1.2,3-2.1,4.9-2.4c0,0,0.1,0,0.1,0c0,0.8,0,1.6,0,2.4C15.3,8.8,13.6,8.8,11.9,8.8z"/>
		<path class="st0" d="M20.1,5.4c0,0.1,0,0.3,0,0.4c0,0.8,0,1.7,0,2.5c-0.8,0-1.6,0-2.4,0c0-1,0-2,0-3C18.5,5.4,19.3,5.4,20.1,5.4z"
			/>
		<path class="st2" d="M31.1,23.9c-0.1,0.2-0.2,0.5-0.3,0.5c-1.1,0.7-2.3,1.4-3.5,2c-0.1,0.1-0.4,0.1-0.5,0.1c0-0.9,0-1.8,0-2.7
			c0.6,0,1.1,0,1.7,0C29.3,23.8,30.2,23.9,31.1,23.9z"/>
		<path class="st0" d="M20.1,5.4c-0.8,0-1.6,0-2.4,0c0-0.7,0-1.4,0-2.1c0.5-0.9,1.3-1.1,2.3-1C20,3.3,20,4.4,20.1,5.4z"/>
		<path class="st0" d="M26.6,18.3c2.5,0,5,0,7.4,0c1,0,1.5,0.6,1.5,1.6c-0.2-0.1-0.3-0.3-0.5-0.4c-0.4-0.2-0.7-0.5-1.1-0.5
			c-2.3,0-4.6,0-6.9,0c-0.1,0-0.3,0-0.4,0C26.6,18.7,26.6,18.5,26.6,18.3z"/>
		<path class="st3" d="M31.1,23.9c-0.9,0-1.8,0-2.7,0c0.2-0.2,0.4-0.4,0.6-0.6c0.3-0.3,0.5-0.5,0.8-0.8c1.2,0,2.4,0,3.6,0
			c0.1,0.4,0.1,0.9,0.2,1.3C32.8,23.8,31.9,23.8,31.1,23.9z"/>
		<path class="st0" d="M35,19.5c0.2,0.1,0.3,0.3,0.5,0.4c0,0.1,0,0.2,0,0.3c-0.1,0.1-0.2,0.1-0.2,0.2c-2.9,0-5.8-0.1-8.7-0.1
			c0.2-0.1,0.3-0.2,0.5-0.3c0.4-0.2,0.8-0.3,1.2-0.4c0.4,0,0.8,0.1,1.2,0.1c1.6,0,3.2,0,4.8,0C34.6,19.6,34.8,19.5,35,19.5z"/>
		<path class="st3" d="M29.8,22.5c-0.3,0.3-0.5,0.5-0.8,0.8c-0.2,0.2-0.4,0.4-0.6,0.6c-0.6,0-1.1,0-1.7,0c-0.1-0.4-0.3-0.9-0.4-1.4
			C27.5,22.5,28.7,22.5,29.8,22.5z"/>
		<path class="st0" d="M26.6,18.3c0,0.2,0,0.4,0,0.6c-1.1,0-2.2,0-3.2,0c-0.6,0-1.2,0-1.8,0c0-0.2,0-0.4,0-0.6
			C23.2,18.3,24.9,18.3,26.6,18.3z"/>
		<path class="st0" d="M19.9,2.3c-1-0.1-1.7,0.1-2.3,1c-0.1-1.6,0.6-2.2,2.4-2c0,0.3,0,0.7,0,1C20,2.3,20,2.3,19.9,2.3z"/>
		<path class="st0" d="M20.1,2.3c0-0.3,0-0.7,0-1c1.7-0.2,2.5,0.4,2.4,2C21.9,2.3,21,2.2,20.1,2.3z"/>
		<path class="st2" d="M22.3,31.6c-0.5,0.9-1.3,1.2-2.3,1.4c0-0.3,0-0.6,0-1C20.8,31.9,21.6,31.7,22.3,31.6z"/>
		<path class="st0" d="M21.5,18.3c0,0.2,0,0.4,0,0.6c-0.5,0-0.9,0-1.4,0l0,0c0-0.2,0-0.4,0-0.6C20.5,18.3,21,18.3,21.5,18.3z"/>
		<path class="st4" d="M32.5,14.8c0.1,0,0.2,0,0.3,0c0.1,0.9,0.2,1.8,0.3,2.7C32.8,16.6,32.7,15.7,32.5,14.8z"/>
		<path class="st5" d="M7.6,15.3c-0.1,0.2-0.2,0.4-0.3,0.6c0.1-0.5,0.2-1,0.3-1.5C7.5,14.6,7.5,14.9,7.6,15.3z"/>
		<path class="st5" d="M7.6,14c0.1,0,0.2,0,0.3,0c-0.1,0.1-0.2,0.2-0.3,0.3C7.5,14.2,7.6,14.1,7.6,14z"/>
		<path class="st6" d="M17,6.4c0,0-0.1,0-0.1,0c0,0,0.1-0.1,0.1-0.1C17,6.3,17,6.3,17,6.4z"/>
		<path class="st0" d="M4.9,20.5c0.7,0,1.4-0.1,2.1-0.1c4.4,0,8.8,0,13.1,0c0,0.2,0,0.5,0,0.7c-0.3,0-0.5,0.1-0.8,0.1
			c-4.2,0-8.5,0-12.7,0C5.9,21.2,5.3,21.1,4.9,20.5z"/>
		<path class="st0" d="M26.6,20.2c2.9,0,5.8,0.1,8.7,0.1c-0.4,0.7-1.1,0.8-1.7,0.8c-2.8,0-5.6,0-8.4,0c-0.2-0.3-0.5-0.6-0.7-1
			c0,0,0.1,0,0.1,0C25.2,20.2,25.9,20.2,26.6,20.2z"/>
		<path class="st0" d="M24.4,20.2c0.2,0.3,0.5,0.6,0.7,1c-1.7,0-3.4-0.1-5.1-0.1c0-0.2,0-0.5,0-0.7c0-0.1,0-0.2,0-0.3
			C21.5,20.1,23,20.1,24.4,20.2z"/>
		<path class="st0" d="M4.9,19.6c0.4-0.6,0.9-0.7,1.6-0.7c4.5,0,9.1,0,13.6,0c0,0,0,0,0,0c0,0.2,0,0.5,0,0.7
			C15,19.6,9.9,19.6,4.9,19.6z"/>
		<path class="st0" d="M20.1,19.6c0-0.2,0-0.5,0-0.7c0.5,0,0.9,0,1.4,0c0.6,0,1.2,0,1.8,0c0.2,0.2,0.3,0.4,0.5,0.5
			c0.3,0.2,0.5,0.5,0.8,0.7c0,0-0.1,0-0.1,0c-1.5,0-2.9-0.1-4.4-0.1C20.1,19.9,20.1,19.8,20.1,19.6z"/>
		<path class="st0" d="M35,19.5c-0.2,0.1-0.5,0.2-0.7,0.2c-1.6,0-3.2,0-4.8,0c-0.4,0-0.8-0.1-1.2-0.1c-0.2,0-0.4-0.1-0.6-0.2
			c-0.2-0.1-0.5-0.3-0.7-0.4c2.3,0,4.6,0,6.9,0C34.3,18.9,34.7,19.3,35,19.5z"/>
		<path class="st0" d="M27,18.9c0.2,0.1,0.5,0.3,0.7,0.4c0.2,0.1,0.4,0.1,0.6,0.2c-0.4,0.1-0.8,0.3-1.2,0.4
			c-0.2,0.1-0.3,0.2-0.5,0.3c-0.7,0-1.3,0-2,0c-0.3-0.2-0.5-0.5-0.8-0.7c-0.2-0.2-0.3-0.3-0.5-0.5c1.1,0,2.2,0,3.2,0
			C26.7,18.9,26.8,18.9,27,18.9z"/>
	</g>
</g>
<path d="M17.3,10.1L17.3,10.1c-0.2,0-0.4-0.2-0.4-0.4V6c0-0.1,0.1-0.2,0.2-0.2h0.4c0.1,0,0.2,0.1,0.2,0.2v3.7
	C17.7,9.9,17.5,10.1,17.3,10.1z"/>
<path d="M13.3,10.8L13.3,10.8c0.2,0,0.4,0.2,0.4,0.4v3.7c0,0.1-0.1,0.2-0.2,0.2h-0.4c-0.1,0-0.2-0.1-0.2-0.2v-3.7
	C12.9,11,13.1,10.8,13.3,10.8z"/>
<path d="M16.8,12.3L16.8,12.3c0-0.2,0.2-0.4,0.4-0.4h5.6c0.2,0,0.4,0.2,0.4,0.4v0c0,0.2-0.2,0.4-0.4,0.4h-5.6
	C16.9,12.6,16.8,12.5,16.8,12.3z"/>
<path d="M16.8,15L16.8,15c0-0.2,0.2-0.4,0.4-0.4h5.6c0.2,0,0.4,0.2,0.4,0.4v0c0,0.2-0.2,0.4-0.4,0.4h-5.6
	C16.9,15.4,16.8,15.2,16.8,15z"/>
<path d="M26.8,10.8L26.8,10.8c0.2,0,0.4,0.2,0.4,0.4v6.4c0,0.1-0.1,0.2-0.2,0.2h-0.4c-0.1,0-0.2-0.1-0.2-0.2v-6.4
	C26.5,11,26.6,10.8,26.8,10.8z"/>
<path d="M22.8,10.1L22.8,10.1c-0.2,0-0.4-0.2-0.4-0.4V5.8l0.7-0.6v4.5C23.2,9.9,23,10.1,22.8,10.1z"/>
</svg>
