<?xml version="1.0" encoding="utf-8"?>
<!-- Generator: Adobe Illustrator 22.0.0, SVG Export Plug-In . SVG Version: 6.00 Build 0)  -->
<svg version="1.1" id="Livello_1" xmlns="http://www.w3.org/2000/svg" xmlns:xlink="http://www.w3.org/1999/xlink" x="0px" y="0px"
	 viewBox="0 0 200 200" style="enable-background:new 0 0 200 200;" xml:space="preserve">
<g>
	<g>
		<path d="M-0.1,105.6c0-3.9,0-7.8,0-11.7c0.2-1.4,0.3-2.8,0.5-4.2C2.8,68.2,11,49.3,25.5,33.2C40.9,16.1,59.9,5.5,82.6,1.5
			c3.8-0.7,7.6-1,11.3-1.6c3.9,0,7.8,0,11.7,0c3.3,0.4,6.7,0.7,10,1.3c20.9,3.5,39,12.5,54,27.4c22.4,22.4,32.3,49.7,29.4,81.2
			c-1.9,21.2-10.2,39.9-24.4,55.8c-18.8,21.1-42.5,32.5-70.7,33.9c-19.7,1-38.2-3.6-55.1-13.9C23,169.8,7.1,146.9,1.5,116.9
			C0.8,113.2,0.4,109.4-0.1,105.6z M84.3,103.3c0,19.4,0,38.5,0,57.8c8.1,0,16,0,24.1,0c0-19.3,0-38.5,0-57.8c5.5,0,10.8,0,16.2,0
			c0.7-6.8,1.4-13.5,2.1-20.4c-6.2,0-12.2,0-18.3,0c0-4.5-0.1-8.9,0.1-13.2c0.1-2.7,1.7-4.1,4.4-4.3c3.1-0.2,6.2-0.1,9.3-0.2
			c1.3,0,2.7,0,4,0c0-6.8,0-13.2,0-19.6c-0.3-0.1-0.4-0.2-0.6-0.2c-7.1,0.1-14.3-0.3-21.4,0.3c-9,0.8-15.6,5.5-18.2,14.3
			c-1.1,3.8-1.4,7.9-1.7,11.9c-0.3,3.5-0.1,7.1-0.1,10.9c-3.8,0-7.5,0-11.3,0c0,6.9,0,13.6,0,20.5C76.7,103.3,80.3,103.3,84.3,103.3
			z"/>
	</g>
</g>
</svg>
