<?xml version="1.0" encoding="utf-8"?>
<!-- Generator: Adobe Illustrator 22.0.0, SVG Export Plug-In . SVG Version: 6.00 Build 0)  -->
<svg version="1.1" id="Livello_1" xmlns="http://www.w3.org/2000/svg" xmlns:xlink="http://www.w3.org/1999/xlink" x="0px" y="0px"
	 viewBox="0 0 378.2 378.2" style="enable-background:new 0 0 378.2 378.2;" xml:space="preserve">
<style type="text/css">
	.st0{fill:#8CCDF2;}
	.st1{fill:#FFFFFF;}
	.st2{fill:none;stroke:#FFFFFF;stroke-width:5;stroke-miterlimit:10;}
</style>
<circle class="st0" cx="189.1" cy="189.1" r="190.1"/>
<g>
	<path class="st1" d="M116.8,111.9l4.9,12.4l6.2,15.6l10.8-12.9l2.5-3l7.6,29.4l0,0l0,0c0.4,1.5,1.9,5.5,6.5,9.1
		c5,3.9,12,5.8,20.7,5.8c11.5,0,17.4-4.6,20.9-7.4c0.2-0.1,0.4-0.3,0.5-0.4c1.7,0.6,3.3,1.1,4.7,1.5c0.9,0.3,2,0.6,2.9,1
		c0,0.1-0.1,0.1-0.1,0.2c-2.8,5.5-8,15.8-1.8,27.1c1,1.8,2.3,5.1,3.7,8.6c5.2,12.9,11.1,27.6,23.6,27.6c3.3,0,8.1-1.1,12.6-6.5
		c4.7-5.5,6.9-10,8.5-13.1c0.6,0.4,1.3,1.1,2.6,2.5c2.2,2.5,6,6.8,12.3,6.8c1.3,0,2.6-0.2,3.9-0.6c3.9-1.2,6.5-3.7,8.6-6v69.4H99
		V142.3L116.8,111.9 M118.5,89.1L89,139.6v149.5h200v-95c-14,0-16.5,10.5-21.5,12c-0.3,0.1-0.7,0.2-1,0.2c-4.3,0-6.2-8.7-15-9.7
		c-0.7-0.1-1.4-0.1-2-0.1c-7,0-4.3,5.6-14,17.1c-1.7,2.1-3.4,3-5,3c-8,0-13.9-22.6-18.5-31c-5.5-10,4-18.5,4.5-24.5
		s-7.5-7-16.5-10.2c-1.2-0.4-2.2-0.6-3.1-0.6c-6,0-7.4,8.1-20.9,8.1c-15.5,0-17.5-7.5-17.5-7.5L146,102.6l-15,18L118.5,89.1
		L118.5,89.1z"/>
</g>
<g>
	<path class="st1" d="M114.4,219c0-4.4,1-7.6,2.9-9.7c1.9-2.1,4.5-3.2,7.8-3.2c3.4,0,6,1,8,3.1c1.9,2.1,2.9,5.3,2.9,9.7
		c0,4.4-1,7.6-2.9,9.7c-1.9,2.1-4.5,3.2-7.8,3.2c-3.4,0-6-1-8-3.1C115.3,226.6,114.4,223.3,114.4,219z M121.7,218.9
		c0,3.2,0.4,5.3,1.1,6.4c0.6,0.8,1.3,1.2,2.3,1.2c1,0,1.8-0.4,2.3-1.2c0.7-1.1,1.1-3.2,1.1-6.4c0-3.2-0.4-5.3-1.1-6.4
		c-0.6-0.8-1.3-1.2-2.3-1.2c-1,0-1.7,0.4-2.3,1.2C122,213.6,121.7,215.7,121.7,218.9z M132.2,257.5h-6.9l26-51.5h6.7L132.2,257.5z
		 M147.3,244.7c0-4.4,1-7.6,2.9-9.7c1.9-2.1,4.5-3.2,7.9-3.2c3.3,0,6,1.1,7.9,3.2c1.9,2.1,2.9,5.3,2.9,9.7c0,4.4-1,7.6-2.9,9.7
		c-1.9,2.1-4.5,3.2-7.8,3.2c-3.4,0-6-1.1-8-3.2C148.2,252.4,147.3,249.1,147.3,244.7z M154.6,244.7c0,3.2,0.4,5.3,1.1,6.4
		c0.6,0.8,1.3,1.2,2.3,1.2c1,0,1.8-0.4,2.3-1.2c0.7-1.1,1.1-3.2,1.1-6.4c0-3.2-0.4-5.3-1.1-6.4c-0.6-0.8-1.3-1.2-2.3-1.2
		s-1.8,0.4-2.3,1.2C154.9,239.4,154.6,241.5,154.6,244.7z"/>
</g>
</svg>
