<?xml version="1.0" encoding="utf-8"?>
<!-- Generator: Adobe Illustrator 22.0.0, SVG Export Plug-In . SVG Version: 6.00 Build 0)  -->
<svg version="1.1" id="Livello_1" xmlns="http://www.w3.org/2000/svg" xmlns:xlink="http://www.w3.org/1999/xlink" x="0px" y="0px"
	 viewBox="0 0 378.2 378.2" style="enable-background:new 0 0 378.2 378.2;" xml:space="preserve">
<style type="text/css">
	.st0{fill:#8CCDF2;}
	.st1{fill:#FFFFFF;}
</style>
<circle class="st0" cx="190.2" cy="189.1" r="190.1"/>
<g>
	<circle class="st1" cx="115" cy="216.7" r="6.3"/>
</g>
<g>
	<circle class="st1" cx="142.1" cy="216.7" r="6.3"/>
</g>
<g>
	<circle class="st1" cx="251.6" cy="216.7" r="6.3"/>
</g>
<g>
	<circle class="st1" cx="224.5" cy="216.7" r="6.3"/>
</g>
<g>
	<circle class="st1" cx="183.3" cy="216.7" r="6.3"/>
</g>
<g>
	<circle class="st1" cx="115" cy="238" r="6.3"/>
</g>
<g>
	<circle class="st1" cx="142.1" cy="238" r="6.3"/>
</g>
<g>
	<circle class="st1" cx="251.6" cy="238" r="6.3"/>
</g>
<g>
	<circle class="st1" cx="224.5" cy="238" r="6.3"/>
</g>
<g>
	<circle class="st1" cx="183.3" cy="238" r="6.3"/>
</g>
<g>
	<circle class="st1" cx="115" cy="259.2" r="6.3"/>
</g>
<g>
	<circle class="st1" cx="142.1" cy="259.2" r="6.3"/>
</g>
<g>
	<circle class="st1" cx="251.6" cy="259.2" r="6.3"/>
</g>
<g>
	<circle class="st1" cx="224.5" cy="259.2" r="6.3"/>
</g>
<g>
	<circle class="st1" cx="183.3" cy="259.2" r="6.3"/>
</g>
<g>
	<path class="st1" d="M269.5,283.6H95.8c-6.9,0-12.4-5.6-12.4-12.4V205c0-6.9,5.6-12.4,12.4-12.4h173.7c6.9,0,12.4,5.6,12.4,12.4
		v66.1C282,278,276.4,283.6,269.5,283.6z M95.8,202.5c-1.4,0-2.5,1.1-2.5,2.5v66.1c0,1.4,1.1,2.5,2.5,2.5h173.7
		c1.4,0,2.5-1.1,2.5-2.5V205c0-1.4-1.1-2.5-2.5-2.5H95.8z"/>
</g>
<g>
	<rect x="161.2" y="197.1" class="st1" width="5" height="81.5"/>
</g>
<g>
	<rect x="201.4" y="197.1" class="st1" width="5" height="81.5"/>
</g>
<g>
	<path class="st1" d="M229.5,201.1h-92.3v-5c0-12.8,10.4-23.2,23.2-23.2h8.9v-59.8h9.9v69.8h-18.9c-5.5,0-10.3,3.4-12.3,8.3h70.5
		c-2-4.8-6.7-8.3-12.3-8.3h-18.9v-69.8h9.9v59.8h8.9c12.8,0,23.2,10.4,23.2,23.2V201.1z"/>
</g>
</svg>
