<?xml version="1.0" encoding="utf-8"?>
<!-- Generator: Adobe Illustrator 22.0.0, SVG Export Plug-In . SVG Version: 6.00 Build 0)  -->
<svg version="1.1" id="Livello_1" xmlns="http://www.w3.org/2000/svg" xmlns:xlink="http://www.w3.org/1999/xlink" x="0px" y="0px"
	 viewBox="0 0 378.2 378.2" style="enable-background:new 0 0 378.2 378.2;" xml:space="preserve">
<style type="text/css">
	.st0{fill:#8CCDF2;}
	.st1{fill:#FFFFFF;}
</style>
<circle class="st0" cx="190.2" cy="189.1" r="190.1"/>
<g>
	<circle class="st1" cx="125" cy="204.3" r="3.6"/>
</g>
<g>
	<circle class="st1" cx="265.9" cy="201.4" r="2"/>
</g>
<g>
	<circle class="st1" cx="189" cy="207.7" r="3.4"/>
</g>
<g>
	<circle class="st1" cx="141.3" cy="221" r="2.9"/>
</g>
<g>
	<circle class="st1" cx="141.3" cy="241.6" r="4.3"/>
</g>
<g>
	<circle class="st1" cx="246" cy="210.6" r="2.8"/>
</g>
<g>
	<circle class="st1" cx="261.6" cy="224.1" r="3"/>
</g>
<g>
	<circle class="st1" cx="199.5" cy="231.9" r="3.2"/>
</g>
<g>
	<circle class="st1" cx="218.5" cy="249.8" r="4.3"/>
</g>
<g>
	<circle class="st1" cx="118.7" cy="235.3" r="4.1"/>
</g>
<g>
	<circle class="st1" cx="263.9" cy="246.8" r="3.9"/>
</g>
<g>
	<circle class="st1" cx="242.2" cy="237.8" r="2.6"/>
</g>
<g>
	<circle class="st1" cx="180.7" cy="249.8" r="4.3"/>
</g>
<g>
	<path class="st1" d="M279.5,271.2H105.8c-6.9,0-12.4-5.6-12.4-12.4v-66.2c0-6.9,5.6-12.4,12.4-12.4h173.7c6.9,0,12.4,5.6,12.4,12.4
		v66.1C292,265.6,286.4,271.2,279.5,271.2z M105.8,190.1c-1.4,0-2.5,1.1-2.5,2.5v66.1c0,1.4,1.1,2.5,2.5,2.5h173.7
		c1.4,0,2.5-1.1,2.5-2.5v-66.1c0-1.4-1.1-2.5-2.5-2.5H105.8z"/>
</g>
<g>
	<rect x="157.7" y="184.7" class="st1" width="14.8" height="55.8"/>
</g>
<g>
	<rect x="214.4" y="184.7" class="st1" width="14.8" height="55.8"/>
</g>
<g>
	<rect x="144.2" y="161.8" class="st1" width="98.2" height="27.9"/>
</g>
<g>
	<rect x="178.7" y="100" class="st1" width="27.9" height="89.4"/>
</g>
</svg>
