<?xml version="1.0" encoding="utf-8"?>
<!-- Generator: Adobe Illustrator 22.0.0, SVG Export Plug-In . SVG Version: 6.00 Build 0)  -->
<svg version="1.1" id="Livello_1" xmlns="http://www.w3.org/2000/svg" xmlns:xlink="http://www.w3.org/1999/xlink" x="0px" y="0px"
	 viewBox="0 0 40 40" style="enable-background:new 0 0 40 40;" xml:space="preserve">
<style type="text/css">
	.st0{fill:#737373;}
</style>
<g>
	<g>
		<path class="st0" d="M18.1,18.9c0.7,0,1.5,0,2.3,0c0.3,0.9,0.6,1.8,0.9,2.7c0.3,0.9,0.6,1.8,0.9,2.7c0.8-1.2,1.5-2.4,2.2-3.6
			c0,0,0,0,0,0c0,0,0,0,0,0c-0.6,0-1.2,0-1.8,0c0-0.6,0-1.1,0-1.7c1.7,0,3.4,0,5.1,0c-0.1,0.1-0.1,0.3-0.2,0.4
			c-0.1,0.2-0.2,0.4-0.3,0.5C27,20,27,20.2,26.8,20.4c-0.3,0.4-0.5,0.8-0.7,1.2c-0.2,0.3-0.4,0.7-0.6,1c0,0.1-0.1,0.1-0.1,0.2
			c0.7,0,1.4,0,2.1,0c0,0.1,0,0.2,0,0.3c0,0.3,0,0.5,0,0.8c0,0.1,0,0.1,0,0.2c0,0.1-0.1,0.1,0,0.2c-0.1,0.1,0,0.1,0,0.2
			c-2.5,0-4.9,0-7.4,0C20,24.3,20,24,19.9,23.8c-0.2,0.1-0.5,0-0.7,0c-0.2,0-0.5,0-0.7,0c-0.1,0.2-0.1,0.4-0.2,0.7
			c-0.7,0-1.4,0-2.2,0c0-0.2,0.1-0.3,0.1-0.5c0-0.1,0.1-0.2,0.1-0.3c0.1-0.1,0-0.3,0.1-0.3c0-0.2,0.1-0.3,0.2-0.5
			c0-0.2,0.1-0.3,0.2-0.5c0.1-0.1,0.1-0.3,0.1-0.4c0.1-0.1,0.1-0.3,0.2-0.4c0-0.1,0.1-0.3,0.1-0.4c0.1-0.3,0.2-0.7,0.4-1
			c0-0.1,0-0.2,0.1-0.3c0.1-0.2,0.1-0.5,0.3-0.7C18.1,19,18.1,19,18.1,18.9z M19.2,21c-0.1,0.1-0.1,0.2-0.1,0.3
			c0,0.2-0.1,0.3-0.1,0.5c0,0.2-0.1,0.4-0.1,0.6c0,0.1,0,0.1,0.1,0.1c0.2,0,0.4,0,0.7,0C19.5,22,19.4,21.5,19.2,21z"/>
		<path class="st0" d="M8.5,24.5c-1,0-2,0-3,0c-0.2,0-0.2,0-0.2-0.2c0-0.5,0-1.1,0-1.6c0-1.9,0-3.7,0-5.6c0-0.1,0-0.2,0.1-0.3
			c0-0.2,0.1-0.2,0.1-0.4c0,0,0-0.1,0.1-0.1c0,0,0.1-0.1,0.1-0.1C5.8,16,6,15.9,6.2,15.8c0.1,0,0.3-0.1,0.4-0.2c0.2,0,0.4,0,0.6,0
			c0.3,0,0.5,0.2,0.7,0.3c0,0,0,0,0.1,0c0.2,0.2,0.4,0.5,0.5,0.8c0,0.1,0,0.2,0,0.2c0,0.1,0.1,0.1,0,0.2c0.1,0.2,0,0.4,0,0.6
			c0,0.2,0,0.4,0,0.6c0,0.2,0,0.4,0,0.6c0,0.2,0,0.4,0,0.6c0,0.2,0,0.4,0,0.6c0,0.2,0,0.4,0,0.6c0,0.2,0,0.4,0,0.6
			c0,0.9,0,1.8,0,2.7C8.5,24.3,8.5,24.4,8.5,24.5z"/>
		<path class="st0" d="M12,24.5c-1,0-2,0-3,0c0,0-0.1,0-0.1,0c-0.1,0-0.1,0-0.1-0.1c0,0,0-0.1,0-0.1c0-2,0-4,0-6c0-0.1,0-0.2,0-0.3
			c0.1-0.1,0-0.3,0.1-0.4c0-0.1,0.1-0.2,0.2-0.3c0.1-0.2,0.3-0.3,0.5-0.5c0.1-0.1,0.2-0.1,0.3-0.1c0.5-0.1,0.9-0.1,1.3,0.2
			c0.2,0.2,0.5,0.4,0.6,0.8c0,0.1,0.1,0.1,0.1,0.2c0,0.1,0,0.3,0,0.4c0,0.1,0,0.2,0,0.4c0,0.1,0,0.2,0,0.2c0,0.1,0,0.2,0,0.2
			c0,1.7,0,3.4,0,5.1C12.1,24.3,12.1,24.4,12,24.5z"/>
		<path class="st0" d="M30.9,22.7c0.7,0,1.4,0,2.1,0c0,0.6,0,1.2,0,1.7c-1.8,0-3.6,0-5.4,0c0.8-1.3,1.6-2.6,2.3-3.8c0,0,0,0,0,0
			c0,0,0,0,0,0c-0.6,0-1.2,0-1.8,0c0-0.6,0-1.1,0-1.7c1.7,0,3.4,0,5.1,0C32.4,20.2,31.7,21.5,30.9,22.7z"/>
		<path class="st0" d="M15.7,24.5c-0.1,0-0.2,0-0.2,0c-0.9,0-1.7,0-2.6,0c-0.1,0-0.2-0.1-0.3,0c0,0-0.1,0-0.1-0.1c0,0,0-0.1,0-0.2
			c0-1.6,0-3.2,0-4.9c0-0.1,0-0.2,0-0.3c0-0.2,0.1-0.3,0.2-0.4c0.1-0.2,0.2-0.4,0.4-0.5c0.2-0.1,0.3-0.3,0.5-0.3c0,0,0.1,0,0.1,0
			c0.1,0,0.2-0.1,0.4,0c0.2,0,0.4,0,0.6,0.1c0.2,0,0.4,0.2,0.5,0.3c0.1,0.1,0.2,0.2,0.3,0.4c0,0.1,0.2,0.1,0.1,0.2
			c0.1,0.1,0.1,0.3,0.1,0.4c0.1,0.2,0,0.5,0,0.7C15.7,21.4,15.7,23,15.7,24.5z"/>
		<path class="st0" d="M15.2,18c-0.1,0-0.2-0.2-0.3-0.2c-0.1,0-0.2-0.1-0.3-0.1c-0.1,0-0.3-0.1-0.4,0c-0.1,0-0.3-0.1-0.4,0
			c-0.1,0-0.2,0.1-0.3,0.1c-0.1,0-0.2,0.1-0.3,0.1c-0.1,0.1-0.2,0.2-0.3,0.2c-0.1,0.1-0.2,0.2-0.3,0.3c-0.1,0.1-0.1,0.2-0.2,0.3
			c0-0.1,0-0.3,0-0.4c0-0.3-0.1-0.5-0.2-0.7c-0.1-0.2-0.2-0.4-0.3-0.5c-0.2-0.3-0.5-0.5-0.8-0.6c-0.1,0-0.2,0-0.4-0.1
			c-0.1,0-0.2,0-0.3,0c-0.4,0-0.8,0.2-1.1,0.5c-0.2,0.2-0.3,0.3-0.5,0.5c0,0,0,0.1,0,0.1c0-0.1,0-0.2,0-0.2c0-0.3-0.1-0.6-0.1-0.8
			c0-0.2-0.1-0.3-0.2-0.4C8.3,16.1,8.3,16,8.3,16c-0.2-0.2-0.4-0.3-0.6-0.4c-0.1-0.1-0.2-0.1-0.4-0.1c-0.2,0-0.3-0.1-0.5,0
			c-0.2,0-0.4,0.1-0.6,0.1c-0.2,0.1-0.4,0.2-0.6,0.3c0.2-0.5,0.4-1,0.6-1.5c2.5,0,5,0,7.5,0c0,0,0,0.1,0.1,0.1
			c0.1,0.3,0.3,0.7,0.4,1c0.1,0.2,0.2,0.4,0.3,0.7c0.1,0.2,0.2,0.4,0.3,0.6c0,0.1,0.1,0.2,0.1,0.2c0.1,0.2,0.2,0.5,0.3,0.7
			C15.2,17.8,15.2,17.9,15.2,18z"/>
		<path class="st0" d="M37.2,19c0,0.5,0,1,0,1.4c0,0,0,0,0,0c0,0,0,0,0,0c-0.5,0-1.1,0-1.6,0c0,0,0,0,0,0c0,0.2,0,0.4,0,0.6
			c0.5,0,1,0,1.5,0c0,0.5,0,0.9,0,1.4c-0.2-0.1-0.5,0-0.7,0c-0.2,0-0.5,0-0.7,0c-0.1,0-0.2,0-0.2,0.2c0,0.2,0,0.3,0,0.5
			c0.6,0,1.2,0,1.8,0c0,0.1,0.1,0.1,0,0.2c0,0.1,0,0.2,0,0.2c0.1,0.1,0,0.1,0,0.2c0,0.1,0,0.1,0,0.2c0,0.1,0,0.2,0,0.2
			c0,0.1,0,0.1,0,0.2c0,0.1,0,0.1,0,0.2c-1.3,0-2.5,0-3.8,0c0-1.8,0-3.7,0-5.5C34.7,19,36,19,37.2,19z"/>
		<path class="st0" d="M1.6,25.6c0-0.1,0-0.1,0-0.1c0.1-0.1,0.1-0.3,0.2-0.4C1.9,24.9,2,24.8,2,24.6c0.1-0.1,0.1-0.3,0.2-0.4
			c0-0.1,0.1-0.2,0.1-0.4c0.2-0.2,0.2-0.5,0.3-0.7c0.1-0.3,0.2-0.5,0.3-0.8c0.1-0.2,0.2-0.4,0.3-0.7c0.1-0.3,0.3-0.6,0.4-1
			c0.1-0.2,0.1-0.4,0.2-0.5c0.2-0.5,0.4-1,0.6-1.5c0-0.2,0.1-0.3,0.2-0.4c0-0.1,0.1-0.3,0.2-0.4C4.9,17.7,5,17.5,5,17.3
			c0,0.1,0,0.2,0,0.2c0,2.3,0,4.6,0,6.8c0,0,0,0.1,0,0.1c0,0.2,0.1,0.2,0.2,0.2c0,0,0.1,0,0.1,0c1.3,0,2.6,0,4,0c0.1,0,0.2,0,0.2,0
			c0,0.3,0,0.6,0,0.8C7,25.6,4.3,25.6,1.6,25.6z"/>
		<path class="st0" d="M38,24.5c0-1.8,0-3.7,0-5.5c0.7,0,1.3,0,2,0c0,0.2,0,4.8,0,5.5C39.3,24.5,38.7,24.5,38,24.5z"/>
		<path class="st0" d="M5.6,14.4c0.1,0,0.2,0,0.4,0c0,0,0,0.1-0.1,0.1c-0.1,0.3-0.2,0.5-0.4,0.8c-0.1,0.3-0.3,0.6-0.4,0.9
			c-0.1,0.2-0.1,0.3-0.2,0.5c0,0.1-0.1,0.2-0.1,0.2c-0.1,0.2-0.2,0.5-0.3,0.7c-0.1,0.1-0.1,0.3-0.2,0.5c0,0.1-0.1,0.2-0.1,0.3
			c-0.1,0.3-0.2,0.5-0.3,0.8c-0.1,0.3-0.2,0.6-0.4,0.9c-0.1,0.2-0.2,0.4-0.2,0.6c0,0.1-0.1,0.2-0.1,0.3C3,21,2.8,21.2,2.7,21.5
			c-0.1,0.3-0.3,0.7-0.4,1c0,0.1-0.1,0.1-0.1,0.2c-0.1,0.1-0.1,0.2-0.2,0.4c0,0.1-0.2,0.2-0.1,0.4c0,0,0,0.1-0.1,0.1
			c-0.1,0.3-0.3,0.6-0.4,0.9C1.3,24.7,1.2,25,1,25.3c0,0.1-0.1,0.2-0.1,0.3c-0.2,0-0.3,0-0.5,0c-0.1,0-0.3,0-0.4,0
			c0-0.1,0-0.1,0-0.1c0.6-1.3,1.3-2.5,1.9-3.8c0.1-0.2,0.2-0.3,0.2-0.5c0.1-0.1,0.2-0.3,0.3-0.5c0.1-0.3,0.3-0.6,0.4-0.9
			c0.1-0.2,0.2-0.4,0.3-0.6c0.1-0.1,0.1-0.3,0.2-0.4c0-0.1,0.1-0.2,0.1-0.3c0.2-0.3,0.2-0.6,0.4-0.8c0,0,0-0.1,0-0.1
			c0-0.2,0.2-0.2,0.2-0.4c0.2-0.2,0.2-0.4,0.3-0.6c0.1-0.2,0.2-0.4,0.3-0.6C5,15.5,5.3,15,5.6,14.4C5.5,14.4,5.6,14.4,5.6,14.4z"/>
		<path class="st0" d="M10.4,25.6c0-0.3,0-0.6-0.1-0.8c0.1,0,0.1,0,0.2,0c2.4,0,4.8,0,7.3,0c0,0,0.1,0,0.1,0c0.1,0,0.1,0,0.1,0.1
			c0.1,0.3,0.2,0.5,0.3,0.8C15.7,25.6,13.1,25.6,10.4,25.6z"/>
		<path class="st0" d="M31.7,18.5c-0.3,0.1-0.6-0.1-0.9-0.3c-0.2-0.2-0.3-0.4-0.4-0.7c-0.1-0.2,0-0.4,0-0.6c0-0.1,0.1-0.2,0.2-0.3
			c0.1-0.2,0.3-0.3,0.5-0.4c0,0,0.1,0,0.2-0.1c0.1,0,0.2-0.1,0.3-0.1c0.1,0,0.3,0,0.4,0c0.3,0.1,0.5,0.1,0.7,0.3
			c0.2,0.2,0.3,0.4,0.4,0.7c0,0.1,0,0.2,0,0.3c0,0.1-0.1,0.3-0.1,0.4c-0.1,0.2-0.2,0.3-0.4,0.4c-0.2,0.1-0.4,0.2-0.6,0.3
			C32,18.5,31.8,18.5,31.7,18.5z M32.2,17.3c0-0.3-0.2-0.5-0.4-0.5c-0.2,0-0.4,0.2-0.4,0.5c0,0.1,0,0.2,0.1,0.3
			c0.1,0.1,0.2,0.1,0.3,0.1c0.1,0,0.2-0.1,0.3-0.1C32.1,17.5,32.2,17.4,32.2,17.3z"/>
		<path class="st0" d="M22.6,17.6c0.2,0.3,0.5,0.6,0.7,1c-0.1-0.1-0.1,0-0.2,0c-0.1,0-0.1,0-0.2,0c-0.1,0-0.1,0-0.2,0s-0.1,0-0.2,0
			c-0.2,0-0.2-0.1-0.3-0.2C22,18.2,22,18,21.8,17.8c0,0.3,0,0.5,0,0.8c-0.3,0-0.6,0-0.8,0c0-0.8,0-1.6,0-2.5c0.4,0,0.7,0,1.1,0
			c0.2,0,0.4,0,0.6,0.1c0.1,0,0.1,0.1,0.2,0.1c0.3,0.4,0.3,0.8,0.1,1.1C22.8,17.5,22.7,17.5,22.6,17.6z M21.8,16.8
			c0,0.1,0,0.2,0,0.4c0.1,0,0.2,0,0.3,0c0.1-0.1,0.1-0.1,0-0.4C22,16.8,21.9,16.8,21.8,16.8z"/>
		<path class="st0" d="M19.7,17.7c-0.1,0-0.2,0-0.3,0c-0.1,0-0.1,0-0.1-0.1c0-0.1,0-0.3,0-0.4c0.5,0,0.9,0,1.4,0c0,0.1,0,0.3,0,0.4
			c0,0,0,0,0,0.1c-0.1,0.1-0.1,0.3-0.2,0.4c-0.1,0.2-0.3,0.3-0.5,0.4c-0.2,0.1-0.3,0.2-0.6,0.1c0,0-0.1,0-0.1,0
			c-0.3,0-0.5,0-0.7-0.1c-0.2-0.1-0.3-0.2-0.5-0.4c-0.2-0.3-0.2-0.6-0.2-0.9c0.1-0.3,0.2-0.6,0.5-0.7c0.2-0.1,0.4-0.2,0.6-0.3
			c0.1,0,0.2,0,0.3,0c0.3,0,0.6,0.1,0.9,0.3c0.1,0.1,0.2,0.2,0.3,0.4c-0.3,0.1-0.5,0.2-0.8,0.3c-0.1-0.1-0.1-0.1-0.2-0.2
			c0-0.1-0.1-0.1-0.2-0.1c-0.1,0-0.2,0-0.2,0.1C19.1,16.9,19,17,19,17.1c0,0.1,0,0.2,0,0.3c0,0.2,0.2,0.3,0.3,0.4c0,0,0.1,0,0.1,0
			C19.5,17.9,19.6,17.8,19.7,17.7C19.7,17.7,19.7,17.7,19.7,17.7z"/>
		<path class="st0" d="M24.2,17.7c0.1,0.1,0.1,0.1,0.2,0.2c0.1-0.1,0.3,0,0.3-0.2c0-0.5,0-1.1,0-1.6c0.3,0,0.6,0,0.9,0
			c0,0.3,0,0.6,0,0.9c0,0.2,0,0.4,0,0.7c0,0.2-0.1,0.4-0.2,0.6c-0.1,0.2-0.3,0.3-0.5,0.3c-0.2,0.1-0.4,0.1-0.6,0
			c-0.3,0-0.5-0.1-0.7-0.3c-0.1-0.1-0.2-0.3-0.2-0.5c0-0.5,0-1.1,0-1.6c0,0,0,0,0,0c0.3,0,0.6,0,0.9,0
			C24.2,16.6,24.2,17.2,24.2,17.7z"/>
		<path class="st0" d="M25.9,16.1c0.5,0,0.9,0,1.4,0c0.2,0,0.4,0.1,0.5,0.3c0.1,0.1,0.1,0.2,0.2,0.3c0.1,0.3,0,0.6-0.1,0.8
			c-0.1,0.2-0.3,0.2-0.5,0.3c-0.2,0-0.3,0-0.5,0c0,0.1,0,0.2,0,0.4c0,0.1,0,0.2,0,0.4c-0.3,0-0.5,0-0.7,0c-0.1,0-0.2,0-0.2-0.2
			c0-0.7,0-1.3,0-2C25.9,16.3,25.9,16.2,25.9,16.1z M26.8,16.8c0,0.1,0,0.2,0,0.4c0.4,0,0.4-0.1,0.3-0.4
			C27,16.8,26.9,16.8,26.8,16.8z"/>
		<path class="st0" d="M28.2,16.1c0.5,0,0.9,0,1.4,0c0.1,0,0.3,0.1,0.4,0.2c0.1,0.1,0.3,0.3,0.3,0.5c0.1,0.2,0,0.3,0,0.5
			c-0.1,0.3-0.3,0.5-0.7,0.5c-0.1,0-0.3,0-0.4,0c0,0-0.1,0-0.1,0c0,0.3,0,0.5,0,0.8c-0.3,0-0.6,0-0.9,0
			C28.2,17.7,28.2,16.9,28.2,16.1z M29.1,17.1C29.1,17.1,29.1,17.1,29.1,17.1c0.2,0,0.3,0,0.4-0.1c0-0.1,0-0.2-0.1-0.2
			c-0.1,0-0.2,0-0.3,0C29.1,16.9,29.1,17,29.1,17.1z"/>
		<path class="st0" d="M14,14.4c0.1,0,0.2,0,0.4,0c0.1,0.2,0.2,0.5,0.3,0.7c0,0.1,0.1,0.2,0.1,0.3c0.1,0.1,0.1,0.2,0.2,0.3
			c0,0.1,0.1,0.2,0.1,0.2c0,0.1,0.1,0.1,0.1,0.2c0,0.1,0.1,0.1,0.1,0.2c0,0.1,0.1,0.1,0.1,0.2c0.1,0.2,0.2,0.4,0.3,0.5
			c0.1,0.2,0.2,0.4,0.3,0.5c0.1,0.2,0.2,0.5,0.3,0.7c0.1,0.2,0.2,0.5,0.4,0.7c0.1,0.2,0.2,0.5,0.3,0.7c0.1,0.2,0.2,0.5,0.3,0.7
			c0,0.1,0,0.1,0,0.2c-0.1,0.1-0.1,0.3-0.1,0.5c0,0.1-0.1,0.1-0.1,0.2c-0.1-0.2-0.2-0.4-0.3-0.6c-0.1-0.3-0.2-0.5-0.4-0.8
			c-0.1-0.2-0.2-0.4-0.3-0.6c-0.1-0.2-0.2-0.4-0.3-0.6c0-0.1-0.1-0.2-0.1-0.2c-0.1-0.2-0.2-0.4-0.3-0.7c-0.1-0.3-0.2-0.6-0.4-0.9
			c-0.2-0.4-0.4-0.8-0.6-1.3C14.4,15.2,14.2,14.8,14,14.4z"/>
		<path class="st0" d="M15.9,24.5c0-1.6,0-3.1,0-4.7c0,0,0,0,0,0c0.1,0.2,0.1,0.4,0.2,0.5c0,0,0,0,0,0c0.2,0.2,0.2,0.5,0.3,0.7
			c0.1,0.3,0.2,0.5,0.3,0.8c0,0.1,0,0.1,0,0.2c-0.2,0.5-0.4,1.1-0.5,1.6C16.2,23.9,16.1,24.2,15.9,24.5
			C15.9,24.5,15.9,24.5,15.9,24.5z"/>
		<path class="st0" d="M20,25.6c-0.3,0-0.6,0-0.8,0c-0.1,0-0.1,0-0.1-0.1c-0.1-0.2-0.2-0.4-0.3-0.7c0-0.1-0.1-0.1-0.1-0.2
			c-0.1-0.1-0.1-0.2,0-0.4c0-0.1,0-0.2,0.1-0.3c0.2,0,0.3,0,0.5,0c0.1,0.1,0.2,0.2,0.2,0.4c0,0.1,0.1,0.3,0.2,0.4
			c0.1,0.1,0.1,0.2,0.2,0.4C19.8,25.3,19.9,25.4,20,25.6z"/>
	</g>
</g>
</svg>
