<?xml version="1.0" encoding="utf-8"?>
<!-- Generator: Adobe Illustrator 22.0.0, SVG Export Plug-In . SVG Version: 6.00 Build 0)  -->
<svg version="1.1" id="Livello_1" xmlns="http://www.w3.org/2000/svg" xmlns:xlink="http://www.w3.org/1999/xlink" x="0px" y="0px"
	 viewBox="0 0 378.2 378.2" style="enable-background:new 0 0 378.2 378.2;" xml:space="preserve">
<style type="text/css">
	.st0{fill:#8CCDF2;}
	.st1{fill:#FFFFFF;}
</style>
<circle class="st0" cx="190.2" cy="189.1" r="190.1"/>
<g>
	<g>
		<path class="st1" d="M237,261.5c0-0.7,0.1-1.3,0.1-1.9c0-15.8,0-31.6,0-47.5c0-0.7,0-1.4,0-2c0.2-2.6,2-4.2,4.5-4.1
			c2.6,0.1,4.3,1.8,4.3,4.4c0,17.4,0.1,34.7,0,52.1c0,4-3.1,8.1-8.3,8.1c-36-0.1-71.9,0-107.9,0c-5.3,0-8.6-3.2-8.6-8.5
			c0-27.3,0-54.6,0-81.9c0-3.6,2.7-5.6,6-4.5c1.7,0.6,2.7,1.7,2.8,3.5c0,0.7,0,1.4,0,2c0,19.8,0,39.7,0,59.5c0,6.1,0,12.2,0,18.3
			c0,0.8,0,1.6,0,2.5C165.8,261.5,201.3,261.5,237,261.5z"/>
		<path class="st1" d="M268.6,194.2c-3.8,2-7.1,4.3-10.8,5.8c-18.3,7.5-39.2-1.5-46.6-19.9c-0.2-0.5-0.4-0.9-0.5-1.4
			c-0.7-2.8-0.2-3.6,2.1-5c-1,0.6-2,1.1-3.1,1.8c-1.1-3.9-1.5-7.9-1.2-12c1.5-17.1,14.4-30.8,31.3-33.2c18.7-2.6,36.4,9.8,40.4,28.4
			c2,9.5,0.6,18.4-4.7,26.6c-1,1.6-0.9,2.4,0.5,3.6c10.5,9.4,20.8,19,31.2,28.5c2.2,2,2.5,4.6,0.8,6.6c-1.7,2-4.5,2.1-6.7,0.1
			c-9.5-8.6-19-17.3-28.5-26C271.3,196.6,269.8,195.2,268.6,194.2z M244.3,193.7c15.4,0,27.8-12.1,27.8-27.3
			c0-15-12.3-27.5-27.2-27.6c-15.4-0.1-27.8,12.3-27.7,27.6C217.2,181.3,229.5,193.7,244.3,193.7z"/>
		<path class="st1" d="M183.3,116.2c-3.9,3.6-7.7,7.2-11.6,10.8c-17.2,16-34.4,32-51.5,48c-3.9,3.6-7.7,7.3-11.7,10.8
			c-1,0.9-2.7,1.3-4,1.3c-1.8-0.1-3.1-1.4-3.6-3.2c-0.5-1.8,0.3-3.2,1.6-4.4c8.1-7.6,16.3-15.2,24.4-22.7
			c17.2-16,34.4-32.1,51.7-48.1c4-3.8,5.4-3.8,9.5-0.1c8.9,8,17.7,15.9,26.6,23.9c1.9,1.7,2.3,3.6,1.5,5.5c-1.3,2.8-4.6,3.5-7.1,1.3
			c-3-2.6-6-5.3-9-8c-5.1-4.6-10.2-9.2-15.3-13.7C184.2,116.9,183.8,116.6,183.3,116.2z"/>
		<path class="st1" d="M183.5,139.4c-3.8,3.5-7.5,6.9-11.1,10.3c-8.8,8.2-17.5,16.3-26.3,24.5c-2.2,2.1-4.6,2.2-6.6,0.3
			c-2.2-2.1-2.1-4.4,0.3-6.6c6.5-6.1,13.1-12.2,19.6-18.3c6.8-6.3,13.6-12.6,20.3-18.9c2.6-2.4,4.8-2.4,7.3-0.1
			c4.2,3.9,8.5,7.7,12.7,11.6c2.3,2.1,2.5,4.7,0.8,6.7c-1.7,1.9-4.5,1.9-6.8-0.1C190.4,145.7,187.1,142.6,183.5,139.4z"/>
		<path class="st1" d="M230.5,148.2c1.1,0.6,2.3,1,3.1,1.7c8.6,7.7,17.2,15.4,25.8,23.2c1.8,1.7,2,4.4,0.4,6.2
			c-1.6,1.9-4.4,2.1-6.5,0.3c-4.2-3.7-8.3-7.4-12.4-11.1c-4.6-4.1-9.1-8.3-13.7-12.4c-1.3-1.2-1.7-3.1-1.1-4.7
			C226.9,149.5,228.4,148.4,230.5,148.2z"/>
	</g>
</g>
</svg>
