<?xml version="1.0" encoding="utf-8"?>
<!-- Generator: Adobe Illustrator 22.0.0, SVG Export Plug-In . SVG Version: 6.00 Build 0)  -->
<svg version="1.1" id="Livello_1" xmlns="http://www.w3.org/2000/svg" xmlns:xlink="http://www.w3.org/1999/xlink" x="0px" y="0px"
	 viewBox="0 0 378.2 378.2" style="enable-background:new 0 0 378.2 378.2;" xml:space="preserve">
<style type="text/css">
	.st0{fill:#8CCDF2;}
	.st1{fill:#FFFFFF;}
	.st2{fill:none;stroke:#8CCDF2;stroke-width:10;stroke-miterlimit:10;}
</style>
<circle class="st0" cx="189.1" cy="189.1" r="190.1"/>
<path class="st1" d="M332.1,204.9l-6.9-8.2c0,0,0,0-0.1-0.1c-0.3-0.3-0.6-0.7-0.9-1v0l-1.2-1.4l-8.8-10.1v0.7
	c-0.1-0.1-0.2-0.1-0.2-0.2c-0.3-0.3-0.6-0.6-0.9-0.9c-0.8-0.8-1.7-1.6-2.5-2.4c-0.3-0.2-0.5-0.5-0.8-0.7c-0.9-0.8-1.8-1.7-2.7-2.5
	c-0.2-0.2-0.4-0.4-0.6-0.6c-1-0.8-1.9-1.7-2.9-2.5c-0.2-0.1-0.3-0.3-0.5-0.4c-1-0.9-2.1-1.7-3.1-2.5c-0.1-0.1-0.3-0.2-0.4-0.3
	c-0.4-0.4-0.9-0.7-1.3-1.1v0l-0.9-0.7c-0.3-0.3-0.7-0.5-1-0.8l-0.1,0l-8-6.1v0.3c-0.3-0.2-0.7-0.4-1-0.7c-0.3-0.2-0.7-0.4-1-0.7
	c-0.8-0.5-1.6-1-2.4-1.5c-0.4-0.3-0.9-0.6-1.3-0.8c-0.7-0.5-1.5-0.9-2.2-1.4c-0.6-0.4-1.2-0.7-1.8-1.1c-0.6-0.4-1.2-0.7-1.8-1.1
	c-1.3-0.7-2.5-1.4-3.8-2.1c-0.1-0.1-0.3-0.2-0.4-0.2c-0.1,0-0.1-0.1-0.2-0.1v0l-2.7-1.4l-7.3-3.7v0.2c-5.2-2.4-10.6-4.5-16-6.3v0
	l-3.5-1.1l-6.5-2.1v0.1c-5.3-1.4-10.6-2.6-16-3.6v-0.1l-4.3-0.6l-5.7-0.9v0.1c-0.5-0.1-0.9-0.1-1.4-0.2c-0.1,0-0.2,0-0.3,0
	c-1.4-0.1-2.7-0.3-4.1-0.4c-0.3,0-0.7-0.1-1-0.1c-1.4-0.1-2.9-0.2-4.3-0.3c-0.2,0-0.4,0-0.6,0c-1.3-0.1-2.5-0.1-3.8-0.2
	c-0.2,0-0.4,0-0.6,0v-0.1h-5h-5v0.1c-0.2,0-0.4,0-0.6,0c-1.3,0-2.5,0.1-3.8,0.2c-0.2,0-0.4,0-0.6,0c-1.4,0.1-2.9,0.2-4.3,0.3
	c-0.3,0-0.7,0.1-1,0.1c-1.4,0.1-2.7,0.2-4.1,0.4c-0.1,0-0.2,0-0.3,0c-0.5,0.1-0.9,0.1-1.4,0.2v-0.1l-5.7,0.9c0,0,0,0,0,0l-4.2,0.6
	v0.1c-5.4,1-10.8,2.2-16,3.6v-0.1l-6.5,2.1l-3.5,1.1v0c-5.4,1.8-10.8,4-16,6.3v-0.2l-7.3,3.7l-2.7,1.4v0c-0.1,0-0.1,0.1-0.2,0.1
	c-0.1,0.1-0.3,0.1-0.4,0.2c-1.3,0.7-2.5,1.4-3.8,2.1c-0.6,0.3-1.2,0.7-1.8,1c-0.6,0.4-1.3,0.7-1.9,1.1c-0.7,0.4-1.4,0.9-2.2,1.3
	c-0.5,0.3-0.9,0.6-1.4,0.9c-0.8,0.5-1.6,1-2.3,1.5c-0.4,0.2-0.7,0.5-1.1,0.7c-0.3,0.2-0.6,0.4-0.9,0.6v-0.3l-8,6.1c0,0,0,0,0,0
	l-0.1,0.1c-0.3,0.2-0.6,0.5-0.9,0.7l-0.9,0.7v0c-0.4,0.3-0.9,0.7-1.3,1c-0.1,0.1-0.3,0.2-0.4,0.3c-1,0.8-2.1,1.7-3.1,2.5
	c-0.2,0.1-0.3,0.3-0.5,0.4c-1,0.8-2,1.7-2.9,2.5c-0.2,0.2-0.4,0.4-0.6,0.5c-0.9,0.8-1.8,1.6-2.7,2.5c-0.3,0.2-0.5,0.5-0.8,0.7
	c-0.8,0.8-1.7,1.6-2.5,2.4c-0.3,0.3-0.6,0.6-0.9,0.9c-0.1,0.1-0.1,0.1-0.2,0.2v-0.7l-8.8,10.1l-1.2,1.4v0c-0.3,0.4-0.6,0.7-0.9,1.1
	l-0.3,0.4l-6.6,7.8h0h0.1v16h33v-16H80h10h16h10h16h10h16h10h16h10h16h10h16h10h16h10h16h10h0.7v16h33v-16H332.1L332.1,204.9z
	 M68.1,194.9c3.8-3.9,7.8-7.7,11.9-11.3v11.3H68.1z M90,194.9v-19.2c2.6-1.9,5.2-3.7,7.9-5.4c0,0,0.1,0,0.1-0.1
	c1.2-0.8,2.4-1.6,3.7-2.3c0.3-0.2,0.7-0.4,1-0.6c0.9-0.6,1.9-1.1,2.8-1.6c0.2-0.1,0.4-0.2,0.6-0.4v29.6H90z M116,194.9V160
	c5.2-2.5,10.6-4.8,16-6.8v41.7H116z M142,194.9V150c5.3-1.5,10.6-2.8,16-3.8v48.8H142z M168.1,194.9v-50.3c2.7-0.3,5.4-0.6,8.1-0.8
	c0.3,0,0.6,0,0.9-0.1c1.1-0.1,2.1-0.1,3.2-0.2c0.6,0,1.1,0,1.7-0.1c0.7,0,1.4-0.1,2.1-0.1v51.6H168.1z M194.1,194.9v-51.6
	c0.7,0,1.4,0.1,2.1,0.1c0.6,0,1.1,0,1.7,0.1c1.1,0.1,2.2,0.1,3.2,0.2c0.3,0,0.6,0,0.9,0.1c2.7,0.2,5.4,0.5,8.1,0.8v50.3H194.1z
	 M220.1,194.9v-48.8c5.4,1,10.8,2.3,16,3.8v44.9H220.1z M246.2,194.9v-41.7c5.5,2,10.8,4.2,16,6.8v34.9H246.2z M272.2,194.9v-29.6
	c0.2,0.1,0.4,0.2,0.6,0.4c0.9,0.5,1.9,1.1,2.8,1.7c0.3,0.2,0.7,0.4,1,0.6c1.3,0.8,2.5,1.5,3.7,2.3c0,0,0,0,0.1,0
	c2.7,1.7,5.3,3.6,7.9,5.4v19.2H272.2z M298.2,183.6c4.1,3.6,8.1,7.3,11.9,11.3h-11.9V183.6z"/>
<path class="st2" d="M-326.2-649.2c-94-111.9-234.9-183-392.4-183s-298.4,71.1-392.4,183H-326.2z"/>
<g>
	<path class="st2" d="M-950.4-776.9v127.7h77.2v-159.3C-899.9-800-925.7-789.4-950.4-776.9z"/>
	<path class="st2" d="M-873.1-808.4v159.3h77.2v-177.2C-822.3-822.4-848.1-816.3-873.1-808.4z"/>
	<path class="st2" d="M-1104.9-656.4v7.2h77.2v-79.3C-1055.8-707.2-1081.7-683-1104.9-656.4z"/>
	<path class="st2" d="M-1027.6-728.5v79.3h77.2v-127.7C-977.6-763-1003.4-746.8-1027.6-728.5z"/>
	<path class="st2" d="M-795.9-826.4v177.2h77.2v-183C-744.9-832.2-770.7-830.2-795.9-826.4z"/>
	<path class="st2" d="M-1111-649.2h6.2v-7.2C-1106.9-654-1109-651.6-1111-649.2z"/>
	<path class="st2" d="M-409.6-728.5v79.3h77.2v-7.2C-355.6-683-381.5-707.2-409.6-728.5z"/>
	<path class="st2" d="M-486.9-776.9v127.7h77.2v-79.3C-433.8-746.8-459.6-763-486.9-776.9z"/>
	<path class="st2" d="M-332.4-656.4v7.2h6.2C-328.2-651.6-330.3-654-332.4-656.4z"/>
	<path class="st2" d="M-564.1-808.4v159.3h77.2v-127.7C-511.5-789.4-537.4-800-564.1-808.4z"/>
	<path class="st2" d="M-641.4-826.4v177.2h77.2v-159.3C-589.1-816.3-614.9-822.4-641.4-826.4z"/>
	<path class="st2" d="M-718.6-832.2v183h77.2v-177.2C-666.6-830.2-692.4-832.2-718.6-832.2z"/>
</g>
<rect x="-1121.8" y="-644.3" class="st0" width="98" height="47.6"/>
<rect x="-413.6" y="-644.3" class="st0" width="98" height="47.6"/>
</svg>
