<?xml version="1.0" encoding="utf-8"?>
<!-- Generator: Adobe Illustrator 22.0.0, SVG Export Plug-In . SVG Version: 6.00 Build 0)  -->
<svg version="1.1" id="Livello_1" xmlns="http://www.w3.org/2000/svg" xmlns:xlink="http://www.w3.org/1999/xlink" x="0px" y="0px"
	 viewBox="0 0 378.2 378.2" style="enable-background:new 0 0 378.2 378.2;" xml:space="preserve">
<style type="text/css">
	.st0{fill:#8CCDF2;}
	.st1{fill:#FFFFFF;}
</style>
<circle class="st0" cx="189.1" cy="189.1" r="190.1"/>
<g>
	<circle class="st1" cx="112" cy="200.7" r="7.1"/>
</g>
<g>
	<circle class="st1" cx="142.9" cy="200.7" r="7.1"/>
</g>
<g>
	<circle class="st1" cx="267.6" cy="200.7" r="7.1"/>
</g>
<g>
	<circle class="st1" cx="236.7" cy="200.7" r="7.1"/>
</g>
<g>
	<circle class="st1" cx="189.8" cy="200.7" r="7.1"/>
</g>
<g>
	<circle class="st1" cx="112" cy="225" r="7.1"/>
</g>
<g>
	<circle class="st1" cx="142.9" cy="225" r="7.1"/>
</g>
<g>
	<circle class="st1" cx="267.6" cy="225" r="7.1"/>
</g>
<g>
	<circle class="st1" cx="236.7" cy="225" r="7.1"/>
</g>
<g>
	<circle class="st1" cx="189.8" cy="225" r="7.1"/>
</g>
<g>
	<circle class="st1" cx="112" cy="249.2" r="7.1"/>
</g>
<g>
	<circle class="st1" cx="142.9" cy="249.2" r="7.1"/>
</g>
<g>
	<circle class="st1" cx="267.6" cy="249.2" r="7.1"/>
</g>
<g>
	<circle class="st1" cx="236.7" cy="249.2" r="7.1"/>
</g>
<g>
	<circle class="st1" cx="189.8" cy="249.2" r="7.1"/>
</g>
<g>
	<path class="st1" d="M288.1,277h-198c-7.8,0-14.2-6.4-14.2-14.2v-75.3c0-7.8,6.4-14.2,14.2-14.2h198c7.8,0,14.2,6.4,14.2,14.2v75.3
		C302.3,270.6,295.9,277,288.1,277z M90.1,184.6c-1.6,0-2.8,1.3-2.8,2.8v75.3c0,1.6,1.3,2.8,2.8,2.8h198c1.6,0,2.8-1.3,2.8-2.8
		v-75.3c0-1.6-1.3-2.8-2.8-2.8H90.1z"/>
</g>
<g>
	<rect x="164.6" y="178.5" class="st1" width="5.7" height="92.8"/>
</g>
<g>
	<rect x="210.4" y="178.5" class="st1" width="5.7" height="92.8"/>
</g>
<g>
	<path class="st1" d="M242.4,184.6H137.2v-20.9h-10.6c-4.5,0-8.4-2.8-9.9-7.1c-1.5-4.3-0.1-8.9,3.5-11.6l63.5-49.2
		c3.8-2.9,9-2.9,12.8,0l63.5,49.2c3.6,2.8,5,7.3,3.5,11.6c-1.5,4.3-5.3,7.1-9.9,7.1h-11.3V184.6z M148.6,173.3h82.5v-20.9h20
		l-60.9-47.2l-60.9,47.2h19.3V173.3z M253.1,154L253.1,154L253.1,154z"/>
</g>
</svg>
