<?xml version="1.0" encoding="utf-8"?>
<!-- Generator: Adobe Illustrator 22.0.0, SVG Export Plug-In . SVG Version: 6.00 Build 0)  -->
<svg version="1.1" id="Livello_1" xmlns="http://www.w3.org/2000/svg" xmlns:xlink="http://www.w3.org/1999/xlink" x="0px" y="0px"
	 viewBox="0 0 200 200" style="enable-background:new 0 0 200 200;" xml:space="preserve">
<style type="text/css">
	.st0{fill:#1D1D1B;}
</style>
<g>
	<g>
		<path class="st0" d="M99.6,199.5c-26.9,0-53.7,0-80.6,0c-7.8,0-13.6-3.3-17.2-10.3c-1.4-2.8-1.8-5.8-1.8-8.9C0,132.9,0,85.4,0,38
			c0-6.5,0-13,0-19.5c0-8.9,5.3-15.7,13.8-18c1.6-0.4,3.3-0.6,5-0.6c54,0,107.9,0,161.9,0c9,0,15.9,5.2,18.2,13.7
			c0.4,1.6,0.6,3.3,0.6,5c0,54,0,108,0,162c0,9-5.2,15.9-13.8,18.1c-1.8,0.5-3.7,0.6-5.5,0.6C153.3,199.5,126.5,199.5,99.6,199.5z
			 M109.4,85.7c0-2.3,0-4.6,0-6.8c0-3.6-2-5.7-5.7-5.7c-7.1,0-14.2,0-21.3,0c-4.1,0-6,1.9-6,6c0,30.8,0,61.6,0,92.4
			c0,4,1.9,5.9,5.9,5.9c6.9,0,13.8,0,20.8,0c4.4,0,6.2-1.8,6.2-6.2c0-15.5,0-31,0-46.4c0-4.2,0.7-8.3,2-12.3
			c2.7-7.9,8.3-12.3,15.9-12.5c7.8-0.2,13.1,3.4,15.7,10.7c1.4,3.8,1.8,7.7,1.8,11.7c0.1,16.5,0,32.9,0,49.4c0,3.7,2,5.6,5.6,5.6
			c7.5,0,14.9,0,22.4,0c3.7,0,5.6-2,5.6-5.7c0-9.1,0.1-18.2,0-27.3c-0.1-11.2-0.2-22.3-0.6-33.5c-0.2-6.3-1.5-12.4-3.9-18.3
			c-4.3-10.6-11.7-17.5-23.1-19.9c-7.1-1.5-14.3-1.4-21.4-0.1c-5.3,1-10.1,3-14.1,6.7C113.4,81.3,111.6,83.5,109.4,85.7z
			 M28.8,125.3c0,15.4,0,30.7,0,46.1c0,4,2.1,6.1,6,6.1c7,0,14,0,20.9,0c3.9,0,6-2.1,6-6c0-30.7,0-61.5,0-92.2c0-4-2.1-6-6.1-6
			c-6.8,0-13.6,0-20.4,0c-4.4,0-6.4,2-6.4,6.4C28.8,94.9,28.8,110.1,28.8,125.3z M24.1,43.2c0,11.8,9.4,21.2,21.1,21.2
			c11.7,0,21.4-9.6,21.3-21.3C66.5,31.5,56.9,21.9,45.3,22C33.5,22,24.1,31.5,24.1,43.2z"/>
	</g>
</g>
</svg>
