<?xml version="1.0" encoding="utf-8"?>
<!-- Generator: Adobe Illustrator 23.0.0, SVG Export Plug-In . SVG Version: 6.00 Build 0)  -->
<svg version="1.1" id="Livello_1" xmlns="http://www.w3.org/2000/svg" xmlns:xlink="http://www.w3.org/1999/xlink" x="0px" y="0px"
	 viewBox="0 0 563.9 194.31" style="enable-background:new 0 0 563.9 194.31;" xml:space="preserve">
<style type="text/css">
	.st0{fill:url(#SVGID_1_);stroke:#A1B8B5;stroke-miterlimit:10;}
	.st1{fill:url(#SVGID_2_);}
	.st2{fill:#A1B8B5;}
</style>
<radialGradient id="SVGID_1_" cx="97.766" cy="97.5404" r="96.766" gradientUnits="userSpaceOnUse">
	<stop  offset="1.252300e-07" style="stop-color:#FFFFFF"/>
	<stop  offset="0.2834" style="stop-color:#FCFEFE"/>
	<stop  offset="0.4742" style="stop-color:#F3FDF9"/>
	<stop  offset="0.6378" style="stop-color:#E4FAF2"/>
	<stop  offset="0.7859" style="stop-color:#CFF5E8"/>
	<stop  offset="0.9224" style="stop-color:#B3F0DB"/>
	<stop  offset="1" style="stop-color:#A0ECD2"/>
</radialGradient>
<circle class="st0" cx="97.77" cy="97.54" r="96.77"/>
<g>
	<linearGradient id="SVGID_2_" gradientUnits="userSpaceOnUse" x1="97.6016" y1="145.6361" x2="97.6016" y2="0.9999">
		<stop  offset="1.198083e-07" style="stop-color:#B2E6F2"/>
		<stop  offset="1" style="stop-color:#FFFFFF"/>
	</linearGradient>
	<polygon class="st1" points="14.1,145.64 97.6,1 181.11,145.64 	"/>
	<path class="st2" d="M97.6,2l82.64,143.14H14.96L97.6,2 M97.6,0L13.23,146.14h168.74L97.6,0L97.6,0z"/>
</g>
<circle cx="74.62" cy="101.97" r="11.57"/>
<circle cx="97.77" cy="74.64" r="11.57"/>
<circle cx="120.91" cy="101.97" r="11.57"/>
<g>
	<path d="M309.12,71.82c-0.33-6.29-0.74-13.84-0.67-19.46h-0.2c-1.54,5.28-3.41,10.9-5.68,17.12l-7.96,21.87h-4.41l-7.29-21.47
		c-2.14-6.35-3.95-12.17-5.22-17.52h-0.13c-0.13,5.62-0.47,13.17-0.87,19.93l-1.2,19.33h-5.55l3.14-45.08h7.42l7.69,21.8
		c1.87,5.55,3.41,10.5,4.55,15.18h0.2c1.14-4.55,2.74-9.5,4.75-15.18l8.02-21.8h7.42l2.81,45.08h-5.69L309.12,71.82z"/>
	<path d="M330.72,46.54v45.08h-5.82V46.54H330.72z"/>
	<path d="M340.08,84.52c2.61,1.61,6.42,2.94,10.43,2.94c5.95,0,9.43-3.14,9.43-7.69c0-4.21-2.41-6.62-8.49-8.96
		c-7.36-2.61-11.91-6.42-11.91-12.77c0-7.02,5.82-12.24,14.58-12.24c4.61,0,7.96,1.07,9.96,2.21l-1.61,4.75
		c-1.47-0.8-4.48-2.14-8.56-2.14c-6.15,0-8.49,3.68-8.49,6.76c0,4.21,2.74,6.29,8.96,8.69c7.63,2.94,11.5,6.62,11.5,13.24
		c0,6.96-5.15,12.97-15.78,12.97c-4.35,0-9.09-1.27-11.5-2.88L340.08,84.52z"/>
	<path d="M379.67,46.54v45.08h-5.82V46.54H379.67z"/>
	<path d="M397.12,77.43l-4.68,14.18h-6.02l15.32-45.08h7.02l15.38,45.08h-6.22l-4.82-14.18H397.12z M411.9,72.89l-4.41-12.97
		c-1-2.94-1.67-5.62-2.34-8.23h-0.13c-0.67,2.67-1.41,5.42-2.27,8.16l-4.41,13.04H411.9z"/>
	<path d="M430.76,91.61V46.54h6.35l14.45,22.8c3.34,5.28,5.95,10.03,8.09,14.65l0.13-0.07c-0.54-6.02-0.67-11.5-0.67-18.53V46.54
		h5.48v45.08h-5.89L444.4,68.74c-3.14-5.02-6.15-10.17-8.43-15.05l-0.2,0.07c0.33,5.68,0.47,11.1,0.47,18.59v19.26H430.76z"/>
	<path d="M513.28,68.61c0,15.52-9.43,23.74-20.93,23.74c-11.9,0-20.26-9.23-20.26-22.87c0-14.31,8.89-23.67,20.93-23.67
		C505.32,45.8,513.28,55.23,513.28,68.61z M478.3,69.34c0,9.63,5.22,18.26,14.38,18.26c9.23,0,14.45-8.49,14.45-18.73
		c0-8.96-4.68-18.32-14.38-18.32C483.12,50.55,478.3,59.44,478.3,69.34z"/>
	<path d="M227.27,100.03v45.08h-5.82v-45.08H227.27z"/>
	<path d="M237.43,145.11v-45.08h6.35l14.45,22.8c3.34,5.28,5.95,10.03,8.09,14.65l0.13-0.07c-0.54-6.02-0.67-11.5-0.67-18.53v-18.86
		h5.48v45.08h-5.89l-14.31-22.87c-3.14-5.02-6.15-10.17-8.43-15.05l-0.2,0.07c0.33,5.68,0.47,11.1,0.47,18.59v19.26H237.43z"/>
	<path d="M315.74,143.1c-2.61,0.94-7.76,2.47-13.84,2.47c-6.82,0-12.44-1.74-16.85-5.95c-3.88-3.74-6.29-9.76-6.29-16.79
		c0.07-13.44,9.3-23.27,24.41-23.27c5.22,0,9.3,1.14,11.24,2.07l-1.41,4.75c-2.41-1.07-5.42-1.94-9.96-1.94
		c-10.97,0-18.12,6.82-18.12,18.12c0,11.44,6.89,18.19,17.39,18.19c3.81,0,6.42-0.54,7.76-1.2v-13.44h-9.16v-4.68h14.85V143.1z"/>
	<path d="M347.97,123.98h-17.52v16.25h19.53v4.88h-25.35v-45.08h24.34v4.88h-18.52v14.24h17.52V123.98z"/>
	<path d="M391.84,143.1c-2.61,0.94-7.76,2.47-13.84,2.47c-6.82,0-12.44-1.74-16.85-5.95c-3.88-3.74-6.29-9.76-6.29-16.79
		c0.07-13.44,9.3-23.27,24.41-23.27c5.22,0,9.3,1.14,11.24,2.07l-1.41,4.75c-2.41-1.07-5.42-1.94-9.96-1.94
		c-10.97,0-18.12,6.82-18.12,18.12c0,11.44,6.89,18.19,17.39,18.19c3.81,0,6.42-0.54,7.76-1.2v-13.44h-9.16v-4.68h14.85V143.1z"/>
	<path d="M400.73,145.11v-45.08h6.35l14.45,22.8c3.34,5.28,5.95,10.03,8.09,14.65l0.13-0.07c-0.54-6.02-0.67-11.5-0.67-18.53v-18.86
		h5.48v45.08h-5.89l-14.31-22.87c-3.14-5.02-6.15-10.17-8.43-15.05l-0.2,0.07c0.33,5.68,0.47,11.1,0.47,18.59v19.26H400.73z"/>
	<path d="M468.07,123.98h-17.52v16.25h19.53v4.88h-25.35v-45.08h24.34v4.88h-18.52v14.24h17.52V123.98z"/>
	<path d="M477.63,100.64c2.94-0.6,7.16-0.94,11.17-0.94c6.22,0,10.23,1.14,13.04,3.68c2.27,2.01,3.54,5.08,3.54,8.56
		c0,5.95-3.75,9.9-8.49,11.5v0.2c3.48,1.2,5.55,4.41,6.62,9.09c1.47,6.29,2.54,10.63,3.48,12.37h-6.02
		c-0.74-1.27-1.74-5.15-3.01-10.77c-1.34-6.22-3.74-8.56-9.03-8.76h-5.48v19.53h-5.82V100.64z M483.45,121.17h5.95
		c6.22,0,10.17-3.41,10.17-8.56c0-5.82-4.21-8.36-10.37-8.43c-2.81,0-4.82,0.27-5.75,0.53V121.17z"/>
	<path d="M519.43,100.03v45.08h-5.82v-45.08H519.43z"/>
	<path d="M536.89,130.93l-4.68,14.18h-6.02l15.32-45.08h7.02l15.38,45.08h-6.22l-4.82-14.18H536.89z M551.66,126.38l-4.41-12.97
		c-1-2.94-1.67-5.62-2.34-8.23h-0.13c-0.67,2.67-1.41,5.42-2.27,8.16l-4.41,13.04H551.66z"/>
</g>
</svg>
