<?xml version="1.0" encoding="utf-8"?>
<!-- Generator: Adobe Illustrator 22.0.0, SVG Export Plug-In . SVG Version: 6.00 Build 0)  -->
<svg version="1.1" xmlns="http://www.w3.org/2000/svg" xmlns:xlink="http://www.w3.org/1999/xlink" x="0px" y="0px"
	 viewBox="0 0 40 40" style="enable-background:new 0 0 40 40;" xml:space="preserve">
<style type="text/css">
	.st0{display:none;}
	.st1{display:inline;}
	.st2{fill:#FFFFFF;}
	.st3{fill:#8CCDF2;}
	.st4{fill:#8ECCF1;}
	.st5{opacity:0.3;fill:#404042;}
	.st6{fill:none;}
	.st7{opacity:0.5;}
</style>
<g id="Livello_1" class="st0">
	<g class="st1">
		<rect x="7.9" y="8.6" class="st3" width="17.5" height="1.7"/>
	</g>
	<g class="st1">
		<rect x="7.9" y="13.5" class="st3" width="17.5" height="1.7"/>
	</g>
	<g class="st1">
		<rect x="7.9" y="18.4" class="st3" width="17.5" height="1.7"/>
	</g>
	<g class="st1">
		<path d="M3.5,37.1l1.9-8.4H0.2V0H33v28.7H13.4L3.5,37.1z M1.9,27h5.6l-1.3,5.5l6.5-5.5h18.6V1.7H1.9V27z"/>
	</g>
	<g class="st1">
		<polygon class="st4" points="38.5,39.9 34.6,36.2 19.1,36.4 19.1,30.4 20,30.4 20,35.5 34.9,35.4 37.4,37.7 37,35.1 38.9,35.1 
			38.9,25 34.7,25 34.7,24.2 39.8,24.2 39.8,35.9 38,35.9 		"/>
	</g>
</g>
<g id="Livello_2">
	<path class="st5" d="M29.8,14l-6.7,5.8l6.7,6.1v0.7l-7.5-6.2l-2.3,2l-2.3-2l-7.5,6.2v-0.7l6.7-6.1L10.2,14v-0.7l9.8,7l9.8-7V14z
		 M9.5,12.6v14.7h21V12.6H9.5z"/>
	<polygon class="st7" points="67.3,49.6 30.3,12.7 29.8,26.7 9.5,27.3 46.5,64.3 52.4,58.3 54.9,61.9 	"/>
	<path d="M9.5,12.7v14.7h21V12.7H9.5z M29.8,14.1l-6.7,5.8l6.7,6.1v0.7l-7.5-6.2l-2.3,2l-2.3-2l-7.5,6.2V26l6.7-6.1l-6.7-5.8v-0.7
		l9.8,7l9.8-7V14.1z"/>
</g>
</svg>
