<?xml version="1.0" encoding="utf-8"?>
<!-- Generator: Adobe Illustrator 22.0.0, SVG Export Plug-In . SVG Version: 6.00 Build 0)  -->
<svg version="1.1" id="Livello_1" xmlns="http://www.w3.org/2000/svg" xmlns:xlink="http://www.w3.org/1999/xlink" x="0px" y="0px"
	 viewBox="0 0 40 40" style="enable-background:new 0 0 40 40;" xml:space="preserve">
<style type="text/css">
	.st0{fill:#87CEFA;}
	.st1{fill:#9C9C9C;}
</style>
<g>
	<path class="st0" d="M13.4,25.7h13.3c1.8,0,3.2-1.5,3.2-3.2v-6.7c0-1.8-1.5-3.2-3.2-3.2H13.4c-1.8,0-3.2,1.5-3.2,3.2v6.7
		C10.1,24.3,11.6,25.7,13.4,25.7z"/>
	<g>
		<path d="M26.8,14.8l-6.8,6l-6.8-6c-0.3-0.2-0.7-0.2-0.9,0.1c-0.2,0.3-0.2,0.7,0.1,0.9l7.2,6.4c0.1,0.1,0.3,0.2,0.4,0.2
			c0.2,0,0.3-0.1,0.4-0.2l7.2-6.4c0.3-0.2,0.3-0.7,0.1-0.9C27.5,14.6,27.1,14.5,26.8,14.8L26.8,14.8z M26.8,14.8"/>
		<path d="M28.5,12H11.5c-1.1,0-2,0.9-2,2v10.4c0,1.1,0.9,2,2,2h17.1c1.1,0,2-0.9,2-2V13.9C30.5,12.9,29.6,12,28.5,12L28.5,12z
			 M29.2,24.3c0,0.4-0.3,0.7-0.7,0.7H11.5c-0.4,0-0.7-0.3-0.7-0.7V13.9c0-0.4,0.3-0.7,0.7-0.7h17.1c0.4,0,0.7,0.3,0.7,0.7V24.3z
			 M29.2,24.3"/>
	</g>
</g>
</svg>
