<?xml version="1.0" encoding="utf-8"?>
<!-- Generator: Adobe Illustrator 22.0.0, SVG Export Plug-In . SVG Version: 6.00 Build 0)  -->
<svg version="1.1" id="Livello_1" xmlns="http://www.w3.org/2000/svg" xmlns:xlink="http://www.w3.org/1999/xlink" x="0px" y="0px"
	 viewBox="0 0 40 40" style="enable-background:new 0 0 40 40;" xml:space="preserve">
<style type="text/css">
	.st0{fill:#87CEFA;}
	.st1{fill:#9C9C9C;}
</style>
<g>
	<path class="st1" d="M23.8,29.2h-7.6c-1.3,0-2.3-1-2.3-2.3V13c0-1.3,1-2.3,2.3-2.3h7.6c1.3,0,2.3,1,2.3,2.3v13.9
		C26.1,28.2,25,29.2,23.8,29.2z"/>
	<rect x="13.9" y="14.6" class="st0" width="12.2" height="9.8"/>
	<g>
		<path d="M25.3,10.1H14.6c-0.8,0-1.4,0.6-1.4,1.4v16.8c0,0.8,0.6,1.4,1.4,1.4h10.7c0.8,0,1.4-0.6,1.4-1.4V11.5
			C26.8,10.7,26.1,10.1,25.3,10.1L25.3,10.1z M14.6,15.5h10.8v8.4H14.6V15.5z M14.6,11.5h10.7c0,0,0.1,0,0.1,0.1v2.6H14.6L14.6,11.5
			C14.6,11.5,14.6,11.5,14.6,11.5L14.6,11.5z M25.3,28.4H14.6c0,0-0.1,0-0.1-0.1v-3.1h10.8L25.3,28.4C25.4,28.4,25.4,28.4,25.3,28.4
			L25.3,28.4z M25.3,28.4"/>
		<path d="M20,25.5c-0.7,0-1.3,0.6-1.3,1.3c0,0.7,0.6,1.3,1.3,1.3c0.7,0,1.3-0.6,1.3-1.3C21.2,26.1,20.7,25.5,20,25.5L20,25.5z
			 M20,27.4c-0.3,0-0.5-0.2-0.5-0.5c0-0.3,0.2-0.5,0.5-0.5c0.3,0,0.5,0.2,0.5,0.5C20.5,27.1,20.3,27.4,20,27.4L20,27.4z M20,27.4"/>
		<path d="M18.9,13.2H21c0.3,0,0.5-0.2,0.5-0.5c0-0.3-0.2-0.5-0.5-0.5h-2.1c-0.3,0-0.5,0.2-0.5,0.5C18.5,13,18.7,13.2,18.9,13.2
			L18.9,13.2z M18.9,13.2"/>
	</g>
</g>
</svg>
