<?xml version="1.0" encoding="utf-8"?>
<!-- Generator: Adobe Illustrator 22.0.0, SVG Export Plug-In . SVG Version: 6.00 Build 0)  -->
<svg version="1.1" id="Livello_1" xmlns="http://www.w3.org/2000/svg" xmlns:xlink="http://www.w3.org/1999/xlink" x="0px" y="0px"
	 viewBox="0 0 40 40" style="enable-background:new 0 0 40 40;" xml:space="preserve">
<style type="text/css">
	.st0{fill:#87CEFA;}
	.st1{stroke:#000000;stroke-width:0.5;stroke-miterlimit:10;}
</style>
<path class="st0" d="M20.4,0.4l-1.9,0.2l-0.7,1.1l0.7,3.1L15.9,6l0.6,1.1l7.1,1.4L25,6.7l-2.3-1.5l-0.1-1.6l0.6-1.8
	C23.2,1.7,21.2,0.3,20.4,0.4z"/>
<polygon class="st0" points="7.8,6.3 11.1,5.7 27.9,6 33.4,6.3 34.5,6.9 35,10.5 34.4,20.4 34.4,30.6 34.7,37.3 32.6,39.1 
	10.2,39.6 7,38.3 6.3,36.5 6.8,7.6 "/>
<path d="M21.2,39.9c-3.3,0-6.7,0-10,0c-0.8,0-1.6,0-2.3-0.3c-1.6-0.5-2.4-1.6-2.6-3.1c-0.1-0.4,0-0.9,0-1.3c0-3.8-0.1-7.5-0.1-11.3
	c0-3.5,0-7.1,0.1-10.6c0-1.6,0-3.2,0.1-4.7c0.1-2,0.5-2.5,2.4-2.8c1-0.2,2-0.2,3-0.2c1,0,2,0,3,0.1c1.1,0.1,1.8-0.5,2.6-1.1
	c0.2-0.2,0.3-0.5,0.3-0.8c0-0.4,0-0.9,0-1.3c0-0.8,0.3-1.4,0.9-1.8c1.2-0.7,2.5-0.8,3.8-0.3c0.8,0.3,1.2,1,1.3,1.8
	c0,0.5-0.1,1-0.2,1.5c-0.1,0.6,0,0.9,0.5,1.2c0.6,0.4,1.3,0.7,2.1,0.7c1.8,0,3.6,0,5.4,0c0.6,0,1.1,0,1.7,0c0.7,0.1,1.2,0.4,1.4,1.1
	c0.2,0.7,0.3,1.4,0.4,2.2c0.4,3.1,0.3,6.1,0.1,9.2c-0.1,2.2-0.2,4.5-0.2,6.7c0,3.3,0,6.6,0.1,9.9c0,0.8,0,1.7-0.2,2.5
	c-0.1,0.2-0.1,0.4-0.2,0.6c-0.4,1.1-1.2,1.7-2.4,1.7c-2.9,0-5.9,0.1-8.8,0.2C22.6,39.8,21.9,39.8,21.2,39.9
	C21.2,39.9,21.2,39.9,21.2,39.9z M14,9.4c-1.2-0.2-2-0.3-2.8-0.1c-0.8,0.2-0.9,0.4-1,1.2c0,0.7,0,1.3,0.1,2c0.2,1.2,0.1,2.4,0.1,3.7
	c0,0.4,0,0.8,0,1.2c0,2.5,0,4.9,0.1,7.4c0,3,0.1,6,0.1,8.9c0,0.3,0.1,0.7,0.1,1c0.1,0.8,0.6,1.3,1.5,1.5c0.6,0.1,1.2,0.1,1.8,0.1
	c3.2,0,6.3-0.1,9.5-0.2c0.7,0,1.5,0,2.2-0.1c1.1-0.1,2.3-0.2,3.4,0c0.5,0.1,1.1,0.1,1.6-0.3c0-1.2,0.1-2.4,0.1-3.6
	c0-7.3-0.1-14.5-0.1-21.8c0-0.2-0.1-0.4-0.1-0.7c-1.1-0.2-2.2-0.2-3.2-0.1c-0.1,0.1-0.1,0.2-0.2,0.3c-0.1,0.9-0.7,1.2-1.5,1.4
	c-0.3,0.1-0.7,0.1-1,0.1c-0.8,0-1.7,0-2.5,0c-1.5,0-3,0-4.5,0.2c-0.6,0.1-1.3,0.1-2,0c-0.8-0.1-1.3-0.5-1.4-1.3
	C14.1,9.9,14,9.7,14,9.4z M14.5,6.5c-0.3-0.1-0.4-0.1-0.6-0.2c-1.5-0.1-3.1-0.1-4.6,0.1C7.5,6.8,7,7.4,7,9.2c0,1,0.1,1.9,0.1,2.9
	c0,7.5,0,15.1,0,22.6c0,0.7,0.1,1.4,0.2,2.1c0.2,1.1,0.9,1.8,1.9,2.1c0.7,0.2,1.4,0.3,2.1,0.3c3.5,0,7-0.1,10.5-0.1
	c2.8,0,5.6-0.1,8.4-0.1c0.4,0,0.9,0,1.3-0.1c1.5-0.2,2.2-0.9,2.3-2.4c0.1-0.5,0.1-1,0.1-1.4c0-3.3,0-6.7,0-10
	c0.1-2.7,0.3-5.4,0.4-8.1c0.1-1.9,0.1-3.9,0.1-5.8c0-1.1-0.3-2.2-0.6-3.2c-0.3-0.8-0.8-1.2-1.7-1.3c-0.1,0-0.3,0-0.4,0
	c-1.5,0-3,0-4.5,0c-0.3,0-0.5,0-0.9,0.1c0.2,0.6,0.4,1.2,0.6,1.7c0.1,0,0.2,0.1,0.2,0.1c0.5,0,1,0,1.6,0c0.4,0,0.8,0,1.2,0.1
	c1,0.2,1.3,0.7,1.4,1.6c0.1,0.6,0,1.1,0,1.7c0,5.8,0,11.7,0,17.5c0,1.7,0,3.3,0.1,5c0,0.3,0,0.7,0,1c-0.1,0.7-0.4,1-1.1,1.1
	c-0.5,0.1-1,0.1-1.4,0.1c-2.3,0-4.6,0-7,0.1C20,36.8,17.9,37,15.8,37c-1.4,0-2.7,0-4.1-0.1c-1.2-0.1-1.6-0.5-1.8-1.7
	c0-0.2-0.1-0.4-0.1-0.6c-0.1-2-0.2-3.9-0.2-5.9c0-5.1,0-10.2,0-15.2c0-1.1,0-2.1,0-3.2c0-1.4,0.4-1.8,1.8-1.9c0.6,0,1.2,0,1.8,0
	c0.3,0,0.6,0,0.9-0.1C14.1,7.7,14.3,7.2,14.5,6.5z M18.6,4.8c-0.7,0.4-1.3,0.7-1.8,1c-1.4,0.7-2.1,1.8-1.8,3.4
	c0.1,0.9,0.4,1.2,1.3,1.3c0.2,0,0.3,0,0.5,0c2.2,0,4.5,0,6.7-0.1c0.5,0,1-0.1,1.4-0.2c1.1-0.3,1.6-1.5,1.1-2.5
	C25.7,7.3,25.4,7,25,6.7c-0.4-0.3-0.9-0.6-1.3-0.9c-0.3-0.2-0.7-0.4-1-0.6c-0.4-0.3-0.5-0.5-0.3-1c0.1-0.4,0.3-0.7,0.4-1.1
	c0.2-0.9-0.2-1.7-1-2c-0.8-0.3-1.6-0.2-2.3,0.1c-0.7,0.3-1.1,0.9-1.1,1.6c0,0.4,0.1,0.8,0.1,1.2C18.5,4.2,18.5,4.5,18.6,4.8z"/>
<path d="M22.4,25.2c1.2,0,2.4,0,3.5,0c0.2,0,0.4,0,0.6,0.1c0.1,0,0.2,0.2,0.2,0.3c0,0.1-0.1,0.3-0.2,0.3C26.5,26,26.3,26,26,26
	c-1.6,0-3.2,0.1-4.8,0.1c-1.2,0-2.4-0.1-3.5,0.1c-0.2,0-0.4,0.1-0.6,0c-0.1,0-0.2-0.2-0.2-0.3c0-0.1,0-0.3,0.1-0.3
	c0.1-0.1,0.2-0.1,0.3-0.2c0.6-0.1,1.1-0.2,1.7-0.2C20.1,25.2,21.3,25.3,22.4,25.2C22.4,25.2,22.4,25.2,22.4,25.2z"/>
<path d="M26.7,30.3c0.2,0.4,0,0.7-0.3,0.7c-0.8,0.1-1.6,0.1-2.4,0.1c-1,0-2.1-0.1-3.1-0.2c-1-0.1-1.9-0.1-2.9,0c-0.2,0-0.3,0-0.5,0
	c-0.4,0-0.6-0.1-0.6-0.4c0-0.3,0.2-0.4,0.4-0.4c0.4-0.1,0.8-0.2,1.2-0.2c0.8,0,1.6,0,2.4,0c1.8,0.2,3.6,0.3,5.4,0.2
	C26.4,30.2,26.5,30.3,26.7,30.3z"/>
<path d="M21.7,21.2c-1.2,0-2.4,0-3.5,0c-0.3,0-0.7,0-1-0.1c-0.1,0-0.2-0.2-0.2-0.3c0-0.1,0.1-0.3,0.2-0.3c0.1-0.1,0.3-0.1,0.5-0.1
	c0.8,0,1.6-0.1,2.4-0.1c2,0,3.9,0,5.9,0c0.3,0,0.7-0.1,0.9,0.3c0.1,0.3-0.2,0.5-0.9,0.5C24.5,21.2,23.1,21.2,21.7,21.2
	C21.7,21.2,21.7,21.2,21.7,21.2z"/>
<path d="M17.1,16.2c-0.1-0.3,0-0.5,0.3-0.6c0.3-0.1,0.6-0.1,0.9-0.1c0.9,0,1.8,0.1,2.7,0c0.8,0,1.6,0,2.3-0.1c0.9-0.1,1.8,0,2.7,0.1
	c0.1,0,0.2,0,0.2,0.1c0.1,0.1,0.2,0.2,0.1,0.3c0,0.1-0.1,0.3-0.2,0.3c-0.3,0-0.5,0-0.8,0c-1,0-2.1,0.1-3.1,0.1c-0.3,0-0.5,0-0.8,0
	c-1.4,0-2.8-0.1-4.2-0.1C17.3,16.3,17.2,16.2,17.1,16.2z"/>
<path d="M14.9,26.4c-0.5,0-0.8-0.2-0.7-0.5c0-0.3,0.3-0.4,0.7-0.4c0.5,0,0.8,0.2,0.8,0.5C15.6,26.3,15.4,26.4,14.9,26.4z"/>
<path d="M15,16.5c-0.1,0-0.2,0-0.3,0c-0.2,0-0.4-0.1-0.4-0.4c0-0.2,0.2-0.4,0.5-0.5c0.1,0,0.2,0,0.3,0c0.5,0,0.8,0.3,0.7,0.5
	C15.7,16.4,15.5,16.5,15,16.5z"/>
<path d="M14.8,21.2c-0.1,0-0.2,0-0.3,0c-0.1-0.1-0.3-0.2-0.3-0.3c-0.1-0.2,0.1-0.3,0.2-0.4c0.2-0.1,0.4-0.1,0.6-0.1
	c0.3,0,0.5,0.3,0.5,0.5c-0.1,0.3-0.3,0.3-0.5,0.3C15,21.2,14.9,21.2,14.8,21.2C14.8,21.2,14.8,21.2,14.8,21.2z"/>
<path d="M14.9,31c-0.1,0-0.2,0-0.3,0c-0.1-0.1-0.3-0.2-0.3-0.3c0-0.1,0.1-0.3,0.2-0.4c0.2-0.1,0.5-0.1,0.8,0c0.1,0,0.3,0.2,0.3,0.3
	c0,0.1-0.1,0.3-0.3,0.4C15.2,31,15,31,14.9,31z"/>
<path d="M15.9,8.8c0-1.1,0.4-1.7,1.3-2.2c0.1-0.1,0.3-0.1,0.5-0.1c0.1,0,0.3,0.3,0.2,0.4c-0.1,0.1-0.1,0.2-0.2,0.3
	c-0.6,0.4-1,0.8-0.9,1.6c0,0.1,0,0.2-0.1,0.2c-0.1,0.1-0.3,0.3-0.4,0.3c-0.1,0-0.3-0.2-0.4-0.3C15.8,9,15.9,8.8,15.9,8.8z"/>
</svg>
