<?xml version="1.0" encoding="utf-8"?>
<!-- Generator: Adobe Illustrator 22.0.0, SVG Export Plug-In . SVG Version: 6.00 Build 0)  -->
<svg version="1.1" id="Livello_1" xmlns="http://www.w3.org/2000/svg" xmlns:xlink="http://www.w3.org/1999/xlink" x="0px" y="0px"
	 viewBox="0 0 40 40" style="enable-background:new 0 0 40 40;" xml:space="preserve">
<style type="text/css">
	.st0{fill:#87CEFA;}
	.st1{stroke:#000000;stroke-miterlimit:10;}
	.st2{fill:#E1F1F8;}
	.st3{fill:#B3C0C6;}
	.st4{fill:#71D8FA;}
	.st5{fill:#A7DDF1;}
	.st6{fill:#62D1FB;}
	.st7{fill:#87CEFA;stroke:#000000;stroke-miterlimit:10;}
</style>
<path class="st7" d="M20.1,39.4h-0.2c-0.8,0-1.5-0.7-1.5-1.5V25.6c0-0.8,0.7-1.5,1.5-1.5h0.2c0.8,0,1.5,0.7,1.5,1.5v12.3
	C21.5,38.7,20.9,39.4,20.1,39.4z"/>
<path class="st7" d="M7.3,39.4l-0.5,0c-1.1,0-1.9-1.1-1.5-2.2L11,22.1c0.3-0.8,1.2-1.2,2-0.9l0,0c0.8,0.3,1.3,1.2,1,2L8.8,38.3
	C8.6,38.9,7.9,39.4,7.3,39.4z"/>
<path class="st7" d="M32.6,39.4l0.5,0c1.1,0,1.9-1.1,1.5-2.2l-5.8-15.1c-0.3-0.8-1.2-1.2-2-0.9l0,0c-0.8,0.3-1.3,1.2-1,2l5.2,15.1
	C31.3,38.9,32,39.4,32.6,39.4z"/>
<path class="st7" d="M25,5v7.6c0,0.9-0.7,1.6-1.6,1.6h-7.1c-0.9,0-1.6-0.7-1.6-1.6V5c0-0.9-0.7-1.6-1.6-1.6h0
	c-0.9,0-1.6,0.7-1.6,1.6v12.1c0,0.9,0.7,1.6,1.6,1.6h0.2h1.4H16v2c0,0.9,0.7,1.6,1.6,1.6h3.9c0.9,0,1.6-0.7,1.6-1.6v-2H25h1.5h0.1
	c0.9,0,1.6-0.7,1.6-1.6V5c0-0.9-0.7-1.6-1.6-1.6h0C25.7,3.4,25,4.1,25,5z"/>
<path class="st7" d="M21.1,0.7h-2.2c-1.1,0-2,0.9-2,2v7.4c0,1.1,0.9,2,2,2h2.2c1.1,0,2-0.9,2-2V2.8C23.1,1.6,22.2,0.7,21.1,0.7z
	 M20,7.6c-0.9,0-1.6-0.7-1.6-1.6s0.7-1.6,1.6-1.6c0.9,0,1.6,0.7,1.6,1.6S20.9,7.6,20,7.6z"/>
</svg>
