<?xml version="1.0" encoding="utf-8"?>
<!-- Generator: Adobe Illustrator 22.0.0, SVG Export Plug-In . SVG Version: 6.00 Build 0)  -->
<svg version="1.1" id="Livello_1" xmlns="http://www.w3.org/2000/svg" xmlns:xlink="http://www.w3.org/1999/xlink" x="0px" y="0px"
	 viewBox="0 0 200 200" style="enable-background:new 0 0 200 200;" xml:space="preserve">
<g>
	<g>
		<path d="M100.1,30.2c21.5,0.9,43,0.7,64.5,1.7c3.6,0.2,7.2,0.7,10.7,1.3c11.3,2.2,18.7,9,20.7,20.2c1.8,10,2.8,20.2,3.4,30.4
			c1.1,19.7,0.7,39.4-2.6,59c-2.5,14.9-10.5,22.4-25.6,24.1c-26.3,2.9-52.8,3.2-79.2,2.8c-19.4-0.3-38.8-1.4-58.2-2.3
			c-2.9-0.1-5.8-0.6-8.6-1.1c-11.3-2-18.8-8.5-21.2-19.7c-1.7-8.2-2.6-16.6-3.2-25c-1.5-21.3-1.1-42.6,2.1-63.8c0.3-2,0.7-4,1.2-5.9
			c3.2-10.7,10.2-17.5,21.4-18.8c12.8-1.5,25.7-2.4,38.6-2.9C76.1,29.8,88.1,30.2,100.1,30.2C100.1,29.8,100.1,30.6,100.1,30.2z
			 M80,129.7c17.5-10.1,34.5-19.9,51.9-30c-17.6-10.1-34.5-20-51.9-30C80,89.8,80,109.4,80,129.7z"/>
	</g>
</g>
</svg>
