<svg id="Livello_1" data-name="Livello 1" xmlns="http://www.w3.org/2000/svg" viewBox="0 0 40 40"><defs><style>.cls-1{fill:#87cefa;}.cls-2{stroke:#000;stroke-miterlimit:10;stroke-width:0.5px;}</style></defs><title>esperienze-icon</title><polygon class="cls-1" points="12.17 6.09 9.39 8.21 6.88 13.63 3.96 20.63 1.47 26.63 1.13 30.88 6.65 34 14.44 36.05 21.88 36.63 29.06 35.38 34.56 33 37.69 30.92 38.58 27.88 38.88 25.19 37.72 23.14 36.13 20.81 32 19.38 28.81 19.98 26.25 22.5 24.19 20.63 20.81 19.44 18.11 19.69 14.19 22.13 13.68 20 14.06 16.63 15.3 11.25 16.7 12.56 19.5 12.81 21.63 12.44 23.38 10.81 24.06 8.18 22.77 4.98 20.5 3.09 14.31 3.9 12.17 6.09"/><path class="cls-2" d="M15.42,12.39a25.6,25.6,0,0,0-.95,8.71c.45.26.65-.07.88-.24a8,8,0,0,1,3.94-1.66,7.83,7.83,0,0,1,6.37,2l.64.6a1.93,1.93,0,0,0,.4-.32A5.55,5.55,0,0,1,31.44,19a8.57,8.57,0,0,1,4.18.91A6.86,6.86,0,0,1,39.15,28a8.15,8.15,0,0,1-3.67,4.83,25.63,25.63,0,0,1-8.36,3.36A35.06,35.06,0,0,1,1.62,31.9c-.12-.07-.22-.16-.34-.22a1.18,1.18,0,0,1-.7-1.31,31.73,31.73,0,0,1,.8-4.66A44.21,44.21,0,0,1,5.24,15.64c1.31-2.51,2.71-5,4.15-7.43a25.3,25.3,0,0,1,2.24-3,4.9,4.9,0,0,1,3.5-1.82c1.48-.11,3-.21,4.45-.33A2.82,2.82,0,0,1,22,4a7.57,7.57,0,0,1,2.08,4.17,5.44,5.44,0,0,1,0,1.61,3.7,3.7,0,0,1-3.24,3.32C19,13.42,17.2,13.57,15.42,12.39Zm4.2,23.66a32.64,32.64,0,0,0,8.69-1.12,26.55,26.55,0,0,0,6.47-2.68,7.34,7.34,0,0,0,3.28-3.65A5.76,5.76,0,0,0,37,22.18a7.13,7.13,0,0,0-6.91-2.13,3.76,3.76,0,0,0-2.89,2.41c-.11.29-.2.59-.33.88a.4.4,0,0,1-.58.09,2.43,2.43,0,0,1-.24-.32,6.22,6.22,0,0,0-5.5-3.1,7.09,7.09,0,0,0-5.36,2.17A4.16,4.16,0,0,0,14,23.79a11.42,11.42,0,0,1-2.85,4.06,1,1,0,0,1-.44.28.44.44,0,0,1-.36-.11.34.34,0,0,1-.09-.34,4.86,4.86,0,0,1,.48-.64c.54-.66,1.13-1.29,1.63-2a6.66,6.66,0,0,0,1.33-4c0-.85,0-1.71,0-2.57a23.53,23.53,0,0,1,1.36-7.8,1.62,1.62,0,0,1,.43-.67,3.9,3.9,0,0,1,3.11-1,.51.51,0,0,1,.32.35.56.56,0,0,1-.33.36c-.3.09-.62.09-.93.16a4.66,4.66,0,0,0-.89.3.94.94,0,0,0-.33,1.48,2.1,2.1,0,0,0,1.88.87c.76-.06,1.53-.13,2.28-.26A2.87,2.87,0,0,0,23.17,9.4a6.06,6.06,0,0,0-1.09-4,3.25,3.25,0,0,0-3-1.54c-1,0-2.07.1-3.11.19a5.27,5.27,0,0,0-3.83,2A33.25,33.25,0,0,0,9,10.61a84.37,84.37,0,0,0-5,10c-.6,1.45-1.08,3-1.54,4.46-.36,1.16-.62,2.35-.87,3.54A2.61,2.61,0,0,0,3,31.69l.71.4A33.48,33.48,0,0,0,19.62,36.05Z"/><path class="cls-2" d="M25.35,28.86a6.78,6.78,0,0,1-4.57,2.3,12.85,12.85,0,0,1-5.9-1,8.8,8.8,0,0,1-1.3-.81c-.07-.06-.12-.31-.06-.37a.65.65,0,0,1,.43-.24,2,2,0,0,1,.64.27,11.49,11.49,0,0,0,6.26,1.17,5.33,5.33,0,0,0,2.73-1c.34-.24.67-.51,1-.73S25.13,28.42,25.35,28.86Z"/><path class="cls-2" d="M15.5,24.63c-.06-.11-.21-.26-.2-.39a1.28,1.28,0,0,1,.24-.61A5.36,5.36,0,0,1,17.48,22a.64.64,0,0,1,.39,0,.3.3,0,0,1,.2.14,1,1,0,0,1,0,.38s0,.08-.07.11a9.18,9.18,0,0,0-2.19,1.93C15.81,24.62,15.68,24.6,15.5,24.63Z"/><path class="cls-2" d="M19.5,21.8c-.21.16-.35.34-.46.33a.48.48,0,0,1-.32-.34.45.45,0,0,1,.32-.32C19.16,21.45,19.29,21.64,19.5,21.8Z"/></svg>